<svg width="360" height="640" viewBox="0 0 360 640" fill="none" xmlns="http://www.w3.org/2000/svg">
<mask id="mask0" mask-type="alpha" maskUnits="userSpaceOnUse" x="0" y="0" width="360" height="640">
<rect width="360" height="640" fill="#0062D6"/>
</mask>
<g mask="url(#mask0)">
<rect width="360" height="640" fill="#0062D6"/>
<path fill-rule="evenodd" clip-rule="evenodd" d="M155.387 -70.2807C155.225 -64.7847 179.576 309.015 180.058 308.434C180.53 307.864 204.767 -66.4981 204.608 -70.7719C204.573 -71.72 198.971 -72 180 -72C157.282 -72 155.434 -71.8713 155.387 -70.2807ZM32.962 -43.3529L11.1927 -34.5312L14.7857 -26.9033C35.7769 17.6639 176.624 312.858 176.816 312.686C176.956 312.561 150.216 230.376 117.393 130.053C72.1215 -8.31872 57.3555 -52.3288 56.2237 -52.262C55.4033 -52.2129 44.9347 -48.2044 32.962 -43.3529ZM310.876 -46.7012C309.094 -41.7436 248.413 128.735 215.901 220.127C198.247 269.753 183.572 311.091 183.29 311.989C182.602 314.189 201.575 277.451 227.098 227.165C238.618 204.469 269.598 143.457 295.943 91.5826C354.16 -23.05 357.76 -30.1759 357.526 -30.3036C356.332 -30.955 312.672 -49.403 312.323 -49.403C312.062 -49.403 311.41 -48.1877 310.876 -46.7012ZM407.371 62.4285C389.496 82.7865 332.1 148.009 279.825 207.369C227.55 266.728 185.337 314.95 186.02 314.529C187.315 313.728 468.506 67.0305 472.772 62.9512L475.216 60.6159L457.544 43.0148L439.871 25.4147L407.371 62.4285ZM-98.0406 43.4343L-115.212 60.6257L-112.279 63.4395C-110.666 64.9869 -71.1024 99.7951 -24.36 140.79C22.3824 181.786 86.1585 237.772 117.366 265.205C148.572 292.638 174.105 314.868 174.105 314.605C174.105 313.769 -78.8455 26.9012 -79.8791 26.5642C-80.4234 26.3873 -88.5968 33.9789 -98.0406 43.4343ZM-180.96 165.802C-186.287 178.254 -190.48 188.576 -190.278 188.739C-189.623 189.27 173.556 317.938 173.777 317.717C173.895 317.6 158.873 309.899 140.397 300.605C121.921 291.312 86.466 273.39 61.6088 260.78C-68.2119 194.923 -170.521 143.163 -170.874 143.163C-171.094 143.163 -175.633 153.35 -180.96 165.802ZM361.539 234.323C266.582 279.494 189.029 316.594 189.202 316.766C189.653 317.217 551.705 199.052 552.743 198.115C553.637 197.308 535.967 151.929 534.825 152.099C534.476 152.15 456.498 189.152 361.539 234.323ZM-213 320.468V345.608L-206.859 345.04C-200.991 344.498 163.678 321.149 171.043 320.844C173.474 320.744 173.821 320.585 172.14 320.346C170.789 320.152 86.5643 314.709 -15.0262 308.249C-116.617 301.79 -202.721 296.241 -206.368 295.916L-213 295.328V320.468ZM380.921 307.784C278.79 314.432 193.018 319.973 190.316 320.097C187.271 320.238 186.525 320.451 188.351 320.66C189.972 320.845 274.639 326.289 376.5 332.757C478.361 339.226 564.243 344.773 567.351 345.085L573 345.65V320.549V295.447L569.807 295.572C568.05 295.64 483.052 301.136 380.921 307.784ZM125.962 338.203C80.3814 353.217 -2.86781 380.426 -126.54 420.732C-162.475 432.444 -192.266 442.395 -192.743 442.847C-193.235 443.313 -189.69 453.457 -184.554 466.282L-175.498 488.897L-170.423 486.612C-162.296 482.954 172.589 323.757 173.041 323.336C174.003 322.442 169.392 323.898 125.962 338.203ZM234.038 347.496C440.669 452.459 530.866 498.055 531.143 497.69C531.948 496.625 550.496 452.417 550.231 452.195C549.918 451.935 189.787 324.12 186.878 323.238C186.067 322.993 207.289 333.908 234.038 347.496ZM30.884 451.543C-47.6177 520.567 -112.599 577.794 -113.521 578.715C-115.099 580.294 -114.205 581.381 -98.0357 597.572C-88.5968 607.021 -80.5619 614.752 -80.1797 614.752C-79.5116 614.752 171.917 329.644 173.464 327.132C173.881 326.457 174.084 325.936 173.917 325.975C173.75 326.015 109.386 382.52 30.884 451.543ZM185.895 326.419C185.895 327.002 431.217 605.82 436.557 611.305L440.373 615.226L457.796 597.803L475.219 580.381L472.283 577.555C466.731 572.211 185.895 325.944 185.895 326.419ZM162.102 356.153C114.887 448.685 2.15671 671.056 2.38464 671.214C3.83186 672.217 47.6376 690.456 47.9206 690.172C48.1279 689.965 57.4135 664.179 68.554 632.87C155.497 388.54 176.068 330.487 175.8 330.219C175.631 330.05 169.467 341.721 162.102 356.153ZM183.973 331.1C183.921 332.036 301.888 692.681 302.441 693.277C302.654 693.507 313.194 689.568 325.861 684.524C345.186 676.83 348.758 675.103 348.06 673.79C347.602 672.931 311.379 596.954 267.563 504.952C187.568 336.984 184.054 329.673 183.973 331.1ZM167.398 520.706C160.763 624.577 155.356 710.336 155.385 711.281C155.434 712.871 157.282 713 180 713C198.97 713 204.573 712.72 204.609 711.772C204.77 707.49 180.53 333.135 180.054 332.562C179.73 332.172 174.034 416.837 167.398 520.706Z" fill="white" fill-opacity="0.2"/>
<ellipse cx="180" cy="320.5" rx="337" ry="336.5" fill="url(#paint0_radial)"/>
</g>
<defs>
<radialGradient id="paint0_radial" cx="0" cy="0" r="1" gradientUnits="userSpaceOnUse" gradientTransform="translate(180 320.5) rotate(90) scale(336.5 337)">
<stop stop-color="#7CDBE1"/>
<stop offset="1" stop-color="#7CDBE1" stop-opacity="0"/>
</radialGradient>
</defs>
</svg>
