<svg width="256" height="79" viewBox="0 0 256 79" fill="none" xmlns="http://www.w3.org/2000/svg">
<path d="M31.872 10.176L29.76 22.848C28.544 22.528 26.336 23.04 23.136 24.384C19.296 25.984 16 28.16 13.248 30.912C9.6 34.432 7.392 38.56 6.624 43.296C6.112 46.176 5.856 48.864 5.856 51.36C5.856 56.736 7.008 60.864 9.312 63.744C11.296 66.368 13.984 67.68 17.376 67.68C20.32 67.68 23.296 66.656 26.304 64.608L29.952 62.112L29.472 67.008C24.288 70.4 19.68 72.096 15.648 72.096C10.784 72.096 7.008 69.632 4.32 64.704C2.016 60.48 0.864 55.104 0.864 48.576C0.864 42.112 1.952 36.672 4.128 32.256C7.456 25.472 12.256 19.84 18.528 15.36C23.968 11.52 28.416 9.792 31.872 10.176ZM61.6461 78.624L54.9261 77.568L55.5981 59.136L40.9101 62.016L40.2381 76.416L36.3981 75.072L34.2861 31.968L42.4461 31.68L41.3901 58.656L55.6941 55.488L56.5581 23.712L60.3981 25.152L61.6461 78.624ZM94.9723 55.872C93.8203 61.312 90.6843 65.888 85.5643 69.6C81.4043 72.672 77.6603 74.208 74.3323 74.208C73.7563 74.208 73.2763 74.112 72.8923 73.92C68.0283 71.616 65.5963 67.04 65.5963 60.192C65.5963 58.4 65.7883 56.48 66.1723 54.432C67.4523 46.88 70.2683 41.28 74.6203 37.632C77.1163 35.584 80.4763 34.048 84.7003 33.024L82.2043 36.192C76.4443 38.624 72.5403 42.56 70.4923 48C69.3403 51.072 68.7643 54.592 68.7643 58.56C68.7643 64.256 70.2683 67.296 73.2763 67.68C75.9003 68 78.4603 67.296 80.9563 65.568C83.4523 63.84 85.4363 61.504 86.9083 58.56C88.5723 55.232 89.4043 52.16 89.4043 49.344C89.4043 46.528 88.6363 44.16 87.1003 42.24C86.7803 41.792 86.3643 41.568 85.8523 41.568C85.1483 41.568 84.1883 42.144 82.9723 43.296C82.0123 44.192 81.0523 45.088 80.0923 45.984C80.0923 44.64 81.7243 42.176 84.9883 38.592C86.3963 37.568 88.0603 37.056 89.9803 37.056C94.0123 37.056 96.0283 40.48 96.0283 47.328C96.0283 49.888 95.6763 52.736 94.9723 55.872ZM128.642 55.872C127.49 61.312 124.354 65.888 119.234 69.6C115.074 72.672 111.33 74.208 108.002 74.208C107.426 74.208 106.946 74.112 106.562 73.92C101.698 71.616 99.2659 67.04 99.2659 60.192C99.2659 58.4 99.4579 56.48 99.8419 54.432C101.122 46.88 103.938 41.28 108.29 37.632C110.786 35.584 114.146 34.048 118.37 33.024L115.874 36.192C110.114 38.624 106.21 42.56 104.162 48C103.01 51.072 102.434 54.592 102.434 58.56C102.434 64.256 103.938 67.296 106.946 67.68C109.57 68 112.13 67.296 114.626 65.568C117.122 63.84 119.106 61.504 120.578 58.56C122.242 55.232 123.074 52.16 123.074 49.344C123.074 46.528 122.306 44.16 120.77 42.24C120.45 41.792 120.034 41.568 119.522 41.568C118.818 41.568 117.858 42.144 116.642 43.296C115.682 44.192 114.722 45.088 113.762 45.984C113.762 44.64 115.394 42.176 118.658 38.592C120.066 37.568 121.73 37.056 123.65 37.056C127.682 37.056 129.698 40.48 129.698 47.328C129.698 49.888 129.346 52.736 128.642 55.872ZM164.424 38.88C161.672 38.24 158.792 37.92 155.784 37.92C151.752 37.92 148.168 38.592 145.032 39.936C141.896 41.216 140.328 42.784 140.328 44.64C140.328 46.432 142.28 48.544 146.184 50.976C149.768 53.216 153.384 55.456 157.032 57.696C160.808 60.512 162.568 63.232 162.312 65.856C162.12 67.584 159.912 69.216 155.688 70.752C151.464 72.224 147.016 72.96 142.344 72.96C139.656 72.96 137.288 72.672 135.24 72.096L136.68 67.68C138.856 68.576 141.416 69.024 144.36 69.024C147.56 69.024 150.248 68.512 152.424 67.488C154.856 66.464 155.944 65.12 155.688 63.456C155.496 62.112 153.448 60.128 149.544 57.504C145.896 55.072 142.248 52.64 138.6 50.208C134.632 47.264 132.488 44.8 132.168 42.816C131.656 39.616 135.048 36.512 142.344 33.504C149 30.688 156.296 28.928 164.232 28.224L164.424 38.88ZM199.792 51.36L198.544 57.696L167.92 69.216L168.88 34.464L198.064 22.464L197.776 29.28L174.352 38.976L173.968 49.92L191.728 41.856L190.864 46.752L174.16 55.392L174.352 60.768L199.792 51.36ZM255.26 0.191998C254.108 11.648 250.908 27.456 245.66 47.616L243.068 48C243.9 36.992 244.316 25.44 244.316 13.344C244.316 8.608 244.22 4.768 244.028 1.824L255.26 0.191998ZM247.964 56.064C247.964 58.368 247.196 60.64 245.66 62.88C244.124 65.056 242.588 66.144 241.052 66.144C240.028 66.144 239.164 65.632 238.46 64.608C237.82 63.52 237.5 62.272 237.5 60.864C237.5 58.88 238.14 56.992 239.42 55.2C241.084 52.832 242.876 51.648 244.796 51.648C246.908 51.648 247.964 53.12 247.964 56.064Z" fill="#FAFF00"/>
</svg>
