<svg width="98" height="102" viewBox="0 0 98 102" fill="none" xmlns="http://www.w3.org/2000/svg">
<g filter="url(#filter0_ddd)">
<path d="M22.381 6C13.334 6 6 13.334 6 22.381V77.6667C6 86.7136 13.334 94.0476 22.381 94.0476H75.619C84.666 94.0476 92 86.7136 92 77.6667V22.381C92 13.334 84.666 6 75.619 6H22.381Z" fill="url(#paint0_linear)"/>
<g opacity="0.25" filter="url(#filter1_di)">
<path fill-rule="evenodd" clip-rule="evenodd" d="M21.6984 35.3492C29.2376 35.3492 35.3492 29.2376 35.3492 21.6984C35.3492 14.1593 29.2376 8.04764 21.6984 8.04764C14.1593 8.04764 8.04764 14.1593 8.04764 21.6984C8.04764 29.2376 14.1593 35.3492 21.6984 35.3492ZM21.6984 33.4722C28.2009 33.4722 33.4722 28.2009 33.4722 21.6984C33.4722 15.1959 28.2009 9.92462 21.6984 9.92462C15.1959 9.92462 9.92462 15.1959 9.92462 21.6984C9.92462 28.2009 15.1959 33.4722 21.6984 33.4722Z" fill="url(#paint1_linear)"/>
</g>
<path opacity="0.3" fill-rule="evenodd" clip-rule="evenodd" d="M21.6984 33.4722C28.2009 33.4722 33.4722 28.2009 33.4722 21.6984C33.4722 15.1959 28.2009 9.92462 21.6984 9.92462C15.1959 9.92462 9.92462 15.1959 9.92462 21.6984C9.92462 28.2009 15.1959 33.4722 21.6984 33.4722ZM21.6984 32.7897C27.824 32.7897 32.7897 27.824 32.7897 21.6984C32.7897 15.5729 27.824 10.6072 21.6984 10.6072C15.5729 10.6072 10.6072 15.5729 10.6072 21.6984C10.6072 27.824 15.5729 32.7897 21.6984 32.7897Z" fill="url(#paint2_linear)"/>
<circle opacity="0.6" cx="21.6131" cy="19.5655" r="9.2996" fill="url(#paint3_radial)"/>
<g opacity="0.25" filter="url(#filter2_di)">
<path fill-rule="evenodd" clip-rule="evenodd" d="M21.6984 64.0159C29.2376 64.0159 35.3492 57.9043 35.3492 50.3651C35.3492 42.826 29.2376 36.7143 21.6984 36.7143C14.1593 36.7143 8.04764 42.826 8.04764 50.3651C8.04764 57.9043 14.1593 64.0159 21.6984 64.0159ZM21.6984 62.139C28.2009 62.139 33.4722 56.8676 33.4722 50.3651C33.4722 43.8626 28.2009 38.5913 21.6984 38.5913C15.1959 38.5913 9.92462 43.8626 9.92462 50.3651C9.92462 56.8676 15.1959 62.139 21.6984 62.139Z" fill="url(#paint4_linear)"/>
</g>
<path opacity="0.3" fill-rule="evenodd" clip-rule="evenodd" d="M21.6984 62.139C28.2009 62.139 33.4722 56.8676 33.4722 50.3651C33.4722 43.8626 28.2009 38.5913 21.6984 38.5913C15.1959 38.5913 9.92462 43.8626 9.92462 50.3651C9.92462 56.8676 15.1959 62.139 21.6984 62.139ZM21.6984 61.4564C27.824 61.4564 32.7897 56.4907 32.7897 50.3651C32.7897 44.2396 27.824 39.2739 21.6984 39.2739C15.5729 39.2739 10.6072 44.2396 10.6072 50.3651C10.6072 56.4907 15.5729 61.4564 21.6984 61.4564Z" fill="url(#paint5_linear)"/>
<circle opacity="0.6" cx="21.6131" cy="48.2322" r="9.2996" fill="url(#paint6_radial)"/>
<g opacity="0.25" filter="url(#filter3_di)">
<path fill-rule="evenodd" clip-rule="evenodd" d="M21.6984 92.6825C29.2376 92.6825 35.3492 86.5709 35.3492 79.0317C35.3492 71.4926 29.2376 65.381 21.6984 65.381C14.1593 65.381 8.04764 71.4926 8.04764 79.0317C8.04764 86.5709 14.1593 92.6825 21.6984 92.6825ZM21.6984 90.8056C28.2009 90.8056 33.4722 85.5342 33.4722 79.0317C33.4722 72.5292 28.2009 67.2579 21.6984 67.2579C15.1959 67.2579 9.92462 72.5292 9.92462 79.0317C9.92462 85.5342 15.1959 90.8056 21.6984 90.8056Z" fill="url(#paint7_linear)"/>
</g>
<path opacity="0.3" fill-rule="evenodd" clip-rule="evenodd" d="M21.6984 90.8056C28.2009 90.8056 33.4722 85.5342 33.4722 79.0317C33.4722 72.5292 28.2009 67.2579 21.6984 67.2579C15.1959 67.2579 9.92462 72.5292 9.92462 79.0317C9.92462 85.5342 15.1959 90.8056 21.6984 90.8056ZM21.6984 90.123C27.824 90.123 32.7897 85.1573 32.7897 79.0317C32.7897 72.9062 27.824 67.9405 21.6984 67.9405C15.5729 67.9405 10.6072 72.9062 10.6072 79.0317C10.6072 85.1573 15.5729 90.123 21.6984 90.123Z" fill="url(#paint8_linear)"/>
<circle opacity="0.6" cx="21.6131" cy="76.8988" r="9.2996" fill="url(#paint9_radial)"/>
<g opacity="0.25" filter="url(#filter4_di)">
<path fill-rule="evenodd" clip-rule="evenodd" d="M49 35.3492C56.5391 35.3492 62.6508 29.2376 62.6508 21.6984C62.6508 14.1593 56.5391 8.04764 49 8.04764C41.4609 8.04764 35.3492 14.1593 35.3492 21.6984C35.3492 29.2376 41.4609 35.3492 49 35.3492ZM49 33.4722C55.5025 33.4722 60.7738 28.2009 60.7738 21.6984C60.7738 15.1959 55.5025 9.92462 49 9.92462C42.4975 9.92462 37.2262 15.1959 37.2262 21.6984C37.2262 28.2009 42.4975 33.4722 49 33.4722Z" fill="url(#paint10_linear)"/>
</g>
<path opacity="0.3" fill-rule="evenodd" clip-rule="evenodd" d="M49 33.4722C55.5025 33.4722 60.7738 28.2009 60.7738 21.6984C60.7738 15.1959 55.5025 9.92462 49 9.92462C42.4975 9.92462 37.2262 15.1959 37.2262 21.6984C37.2262 28.2009 42.4975 33.4722 49 33.4722ZM49 32.7897C55.1255 32.7897 60.0913 27.824 60.0913 21.6984C60.0913 15.5729 55.1255 10.6072 49 10.6072C42.8745 10.6072 37.9087 15.5729 37.9087 21.6984C37.9087 27.824 42.8745 32.7897 49 32.7897Z" fill="url(#paint11_linear)"/>
<circle opacity="0.6" cx="48.9147" cy="19.5655" r="9.2996" fill="url(#paint12_radial)"/>
<g opacity="0.25" filter="url(#filter5_di)">
<path fill-rule="evenodd" clip-rule="evenodd" d="M49 64.0159C56.5391 64.0159 62.6508 57.9043 62.6508 50.3651C62.6508 42.826 56.5391 36.7143 49 36.7143C41.4609 36.7143 35.3492 42.826 35.3492 50.3651C35.3492 57.9043 41.4609 64.0159 49 64.0159ZM49 62.139C55.5025 62.139 60.7738 56.8676 60.7738 50.3651C60.7738 43.8626 55.5025 38.5913 49 38.5913C42.4975 38.5913 37.2262 43.8626 37.2262 50.3651C37.2262 56.8676 42.4975 62.139 49 62.139Z" fill="url(#paint13_linear)"/>
</g>
<path opacity="0.3" fill-rule="evenodd" clip-rule="evenodd" d="M49 62.139C55.5025 62.139 60.7738 56.8676 60.7738 50.3651C60.7738 43.8626 55.5025 38.5913 49 38.5913C42.4975 38.5913 37.2262 43.8626 37.2262 50.3651C37.2262 56.8676 42.4975 62.139 49 62.139ZM49 61.4564C55.1255 61.4564 60.0913 56.4907 60.0913 50.3651C60.0913 44.2396 55.1255 39.2739 49 39.2739C42.8745 39.2739 37.9087 44.2396 37.9087 50.3651C37.9087 56.4907 42.8745 61.4564 49 61.4564Z" fill="url(#paint14_linear)"/>
<circle opacity="0.6" cx="48.9147" cy="48.2322" r="9.2996" fill="url(#paint15_radial)"/>
<g opacity="0.25" filter="url(#filter6_di)">
<path fill-rule="evenodd" clip-rule="evenodd" d="M49 92.6825C56.5391 92.6825 62.6508 86.5709 62.6508 79.0317C62.6508 71.4926 56.5391 65.381 49 65.381C41.4609 65.381 35.3492 71.4926 35.3492 79.0317C35.3492 86.5709 41.4609 92.6825 49 92.6825ZM49 90.8056C55.5025 90.8056 60.7738 85.5342 60.7738 79.0317C60.7738 72.5292 55.5025 67.2579 49 67.2579C42.4975 67.2579 37.2262 72.5292 37.2262 79.0317C37.2262 85.5342 42.4975 90.8056 49 90.8056Z" fill="url(#paint16_linear)"/>
</g>
<path opacity="0.3" fill-rule="evenodd" clip-rule="evenodd" d="M49 90.8056C55.5025 90.8056 60.7738 85.5342 60.7738 79.0317C60.7738 72.5292 55.5025 67.2579 49 67.2579C42.4975 67.2579 37.2262 72.5292 37.2262 79.0317C37.2262 85.5342 42.4975 90.8056 49 90.8056ZM49 90.123C55.1255 90.123 60.0913 85.1573 60.0913 79.0317C60.0913 72.9062 55.1255 67.9405 49 67.9405C42.8745 67.9405 37.9087 72.9062 37.9087 79.0317C37.9087 85.1573 42.8745 90.123 49 90.123Z" fill="url(#paint17_linear)"/>
<circle opacity="0.6" cx="48.9147" cy="76.8988" r="9.2996" fill="url(#paint18_radial)"/>
<g opacity="0.25" filter="url(#filter7_di)">
<path fill-rule="evenodd" clip-rule="evenodd" d="M76.3016 35.3492C83.8407 35.3492 89.9524 29.2376 89.9524 21.6984C89.9524 14.1593 83.8407 8.04764 76.3016 8.04764C68.7625 8.04764 62.6508 14.1593 62.6508 21.6984C62.6508 29.2376 68.7625 35.3492 76.3016 35.3492ZM76.3016 33.4722C82.8041 33.4722 88.0754 28.2009 88.0754 21.6984C88.0754 15.1959 82.8041 9.92462 76.3016 9.92462C69.7991 9.92462 64.5278 15.1959 64.5278 21.6984C64.5278 28.2009 69.7991 33.4722 76.3016 33.4722Z" fill="url(#paint19_linear)"/>
</g>
<path opacity="0.3" fill-rule="evenodd" clip-rule="evenodd" d="M76.3016 33.4722C82.8041 33.4722 88.0755 28.2009 88.0755 21.6984C88.0755 15.1959 82.8041 9.92462 76.3016 9.92462C69.7991 9.92462 64.5278 15.1959 64.5278 21.6984C64.5278 28.2009 69.7991 33.4722 76.3016 33.4722ZM76.3016 32.7897C82.4272 32.7897 87.3929 27.824 87.3929 21.6984C87.3929 15.5729 82.4272 10.6072 76.3016 10.6072C70.1761 10.6072 65.2104 15.5729 65.2104 21.6984C65.2104 27.824 70.1761 32.7897 76.3016 32.7897Z" fill="url(#paint20_linear)"/>
<circle opacity="0.6" cx="76.2163" cy="19.5655" r="9.2996" fill="url(#paint21_radial)"/>
<g opacity="0.25" filter="url(#filter8_di)">
<path fill-rule="evenodd" clip-rule="evenodd" d="M76.3016 64.0159C83.8407 64.0159 89.9524 57.9043 89.9524 50.3651C89.9524 42.826 83.8407 36.7143 76.3016 36.7143C68.7625 36.7143 62.6508 42.826 62.6508 50.3651C62.6508 57.9043 68.7625 64.0159 76.3016 64.0159ZM76.3016 62.139C82.8041 62.139 88.0754 56.8676 88.0754 50.3651C88.0754 43.8626 82.8041 38.5913 76.3016 38.5913C69.7991 38.5913 64.5278 43.8626 64.5278 50.3651C64.5278 56.8676 69.7991 62.139 76.3016 62.139Z" fill="url(#paint22_linear)"/>
</g>
<path opacity="0.3" fill-rule="evenodd" clip-rule="evenodd" d="M76.3016 62.139C82.8041 62.139 88.0755 56.8676 88.0755 50.3651C88.0755 43.8626 82.8041 38.5913 76.3016 38.5913C69.7991 38.5913 64.5278 43.8626 64.5278 50.3651C64.5278 56.8676 69.7991 62.139 76.3016 62.139ZM76.3016 61.4564C82.4272 61.4564 87.3929 56.4907 87.3929 50.3651C87.3929 44.2396 82.4272 39.2739 76.3016 39.2739C70.1761 39.2739 65.2104 44.2396 65.2104 50.3651C65.2104 56.4907 70.1761 61.4564 76.3016 61.4564Z" fill="url(#paint23_linear)"/>
<circle opacity="0.6" cx="76.2163" cy="48.2322" r="9.2996" fill="url(#paint24_radial)"/>
<g opacity="0.25" filter="url(#filter9_di)">
<path fill-rule="evenodd" clip-rule="evenodd" d="M76.3016 92.6825C83.8407 92.6825 89.9524 86.5709 89.9524 79.0317C89.9524 71.4926 83.8407 65.381 76.3016 65.381C68.7625 65.381 62.6508 71.4926 62.6508 79.0317C62.6508 86.5709 68.7625 92.6825 76.3016 92.6825ZM76.3016 90.8056C82.8041 90.8056 88.0754 85.5342 88.0754 79.0317C88.0754 72.5292 82.8041 67.2579 76.3016 67.2579C69.7991 67.2579 64.5278 72.5292 64.5278 79.0317C64.5278 85.5342 69.7991 90.8056 76.3016 90.8056Z" fill="url(#paint25_linear)"/>
</g>
<path opacity="0.3" fill-rule="evenodd" clip-rule="evenodd" d="M76.3016 90.8056C82.8041 90.8056 88.0755 85.5342 88.0755 79.0317C88.0755 72.5292 82.8041 67.2579 76.3016 67.2579C69.7991 67.2579 64.5278 72.5292 64.5278 79.0317C64.5278 85.5342 69.7991 90.8056 76.3016 90.8056ZM76.3016 90.123C82.4272 90.123 87.3929 85.1573 87.3929 79.0317C87.3929 72.9062 82.4272 67.9405 76.3016 67.9405C70.1761 67.9405 65.2104 72.9062 65.2104 79.0317C65.2104 85.1573 70.1761 90.123 76.3016 90.123Z" fill="url(#paint26_linear)"/>
<circle opacity="0.6" cx="76.2163" cy="76.8988" r="9.2996" fill="url(#paint27_radial)"/>
<path fill-rule="evenodd" clip-rule="evenodd" d="M22.381 6C13.334 6 6 13.334 6 22.381V77.6667C6 86.7136 13.334 94.0476 22.381 94.0476H75.619C84.666 94.0476 92 86.7136 92 77.6667V22.381C92 13.334 84.666 6 75.619 6H22.381ZM23.0635 7.36508C14.3935 7.36508 7.36508 14.3935 7.36508 23.0635V76.9841C7.36508 85.6541 14.3935 92.6825 23.0635 92.6825H74.9365C83.6065 92.6825 90.6349 85.6541 90.6349 76.9841V65.381H7.36512V64.0159H90.6349V36.7143H7.36512V35.3492H90.6349V23.0635C90.6349 14.3935 83.6065 7.36508 74.9365 7.36508H23.0635Z" fill="white" fill-opacity="0.2"/>
</g>
<defs>
<filter id="filter0_ddd" x="1" y="2" width="96" height="99.0476" filterUnits="userSpaceOnUse" color-interpolation-filters="sRGB">
<feFlood flood-opacity="0" result="BackgroundImageFix"/>
<feColorMatrix in="SourceAlpha" type="matrix" values="0 0 0 0 0 0 0 0 0 0 0 0 0 0 0 0 0 0 127 0"/>
<feOffset dy="1"/>
<feGaussianBlur stdDeviation="2.5"/>
<feColorMatrix type="matrix" values="0 0 0 0 0 0 0 0 0 0 0 0 0 0 0 0 0 0 0.2 0"/>
<feBlend mode="normal" in2="BackgroundImageFix" result="effect1_dropShadow"/>
<feColorMatrix in="SourceAlpha" type="matrix" values="0 0 0 0 0 0 0 0 0 0 0 0 0 0 0 0 0 0 127 0"/>
<feOffset dy="3"/>
<feGaussianBlur stdDeviation="2"/>
<feColorMatrix type="matrix" values="0 0 0 0 0 0 0 0 0 0 0 0 0 0 0 0 0 0 0.12 0"/>
<feBlend mode="normal" in2="effect1_dropShadow" result="effect2_dropShadow"/>
<feColorMatrix in="SourceAlpha" type="matrix" values="0 0 0 0 0 0 0 0 0 0 0 0 0 0 0 0 0 0 127 0"/>
<feOffset dy="2"/>
<feGaussianBlur stdDeviation="2"/>
<feColorMatrix type="matrix" values="0 0 0 0 0 0 0 0 0 0 0 0 0 0 0 0 0 0 0.14 0"/>
<feBlend mode="normal" in2="effect2_dropShadow" result="effect3_dropShadow"/>
<feBlend mode="normal" in="SourceGraphic" in2="effect3_dropShadow" result="shape"/>
</filter>
<filter id="filter1_di" x="0.0476379" y="0.0476379" width="43.3016" height="43.3016" filterUnits="userSpaceOnUse" color-interpolation-filters="sRGB">
<feFlood flood-opacity="0" result="BackgroundImageFix"/>
<feColorMatrix in="SourceAlpha" type="matrix" values="0 0 0 0 0 0 0 0 0 0 0 0 0 0 0 0 0 0 127 0"/>
<feOffset/>
<feGaussianBlur stdDeviation="4"/>
<feColorMatrix type="matrix" values="0 0 0 0 0 0 0 0 0 0 0 0 0 0 0 0 0 0 0.25 0"/>
<feBlend mode="normal" in2="BackgroundImageFix" result="effect1_dropShadow"/>
<feBlend mode="normal" in="SourceGraphic" in2="effect1_dropShadow" result="shape"/>
<feColorMatrix in="SourceAlpha" type="matrix" values="0 0 0 0 0 0 0 0 0 0 0 0 0 0 0 0 0 0 127 0" result="hardAlpha"/>
<feOffset/>
<feGaussianBlur stdDeviation="1"/>
<feComposite in2="hardAlpha" operator="arithmetic" k2="-1" k3="1"/>
<feColorMatrix type="matrix" values="0 0 0 0 0 0 0 0 0 0 0 0 0 0 0 0 0 0 1 0"/>
<feBlend mode="normal" in2="shape" result="effect2_innerShadow"/>
</filter>
<filter id="filter2_di" x="0.0476379" y="28.7143" width="43.3016" height="43.3016" filterUnits="userSpaceOnUse" color-interpolation-filters="sRGB">
<feFlood flood-opacity="0" result="BackgroundImageFix"/>
<feColorMatrix in="SourceAlpha" type="matrix" values="0 0 0 0 0 0 0 0 0 0 0 0 0 0 0 0 0 0 127 0"/>
<feOffset/>
<feGaussianBlur stdDeviation="4"/>
<feColorMatrix type="matrix" values="0 0 0 0 0 0 0 0 0 0 0 0 0 0 0 0 0 0 0.25 0"/>
<feBlend mode="normal" in2="BackgroundImageFix" result="effect1_dropShadow"/>
<feBlend mode="normal" in="SourceGraphic" in2="effect1_dropShadow" result="shape"/>
<feColorMatrix in="SourceAlpha" type="matrix" values="0 0 0 0 0 0 0 0 0 0 0 0 0 0 0 0 0 0 127 0" result="hardAlpha"/>
<feOffset/>
<feGaussianBlur stdDeviation="1"/>
<feComposite in2="hardAlpha" operator="arithmetic" k2="-1" k3="1"/>
<feColorMatrix type="matrix" values="0 0 0 0 0 0 0 0 0 0 0 0 0 0 0 0 0 0 1 0"/>
<feBlend mode="normal" in2="shape" result="effect2_innerShadow"/>
</filter>
<filter id="filter3_di" x="0.0476379" y="57.381" width="43.3016" height="43.3016" filterUnits="userSpaceOnUse" color-interpolation-filters="sRGB">
<feFlood flood-opacity="0" result="BackgroundImageFix"/>
<feColorMatrix in="SourceAlpha" type="matrix" values="0 0 0 0 0 0 0 0 0 0 0 0 0 0 0 0 0 0 127 0"/>
<feOffset/>
<feGaussianBlur stdDeviation="4"/>
<feColorMatrix type="matrix" values="0 0 0 0 0 0 0 0 0 0 0 0 0 0 0 0 0 0 0.25 0"/>
<feBlend mode="normal" in2="BackgroundImageFix" result="effect1_dropShadow"/>
<feBlend mode="normal" in="SourceGraphic" in2="effect1_dropShadow" result="shape"/>
<feColorMatrix in="SourceAlpha" type="matrix" values="0 0 0 0 0 0 0 0 0 0 0 0 0 0 0 0 0 0 127 0" result="hardAlpha"/>
<feOffset/>
<feGaussianBlur stdDeviation="1"/>
<feComposite in2="hardAlpha" operator="arithmetic" k2="-1" k3="1"/>
<feColorMatrix type="matrix" values="0 0 0 0 0 0 0 0 0 0 0 0 0 0 0 0 0 0 1 0"/>
<feBlend mode="normal" in2="shape" result="effect2_innerShadow"/>
</filter>
<filter id="filter4_di" x="27.3492" y="0.0476379" width="43.3016" height="43.3016" filterUnits="userSpaceOnUse" color-interpolation-filters="sRGB">
<feFlood flood-opacity="0" result="BackgroundImageFix"/>
<feColorMatrix in="SourceAlpha" type="matrix" values="0 0 0 0 0 0 0 0 0 0 0 0 0 0 0 0 0 0 127 0"/>
<feOffset/>
<feGaussianBlur stdDeviation="4"/>
<feColorMatrix type="matrix" values="0 0 0 0 0 0 0 0 0 0 0 0 0 0 0 0 0 0 0.25 0"/>
<feBlend mode="normal" in2="BackgroundImageFix" result="effect1_dropShadow"/>
<feBlend mode="normal" in="SourceGraphic" in2="effect1_dropShadow" result="shape"/>
<feColorMatrix in="SourceAlpha" type="matrix" values="0 0 0 0 0 0 0 0 0 0 0 0 0 0 0 0 0 0 127 0" result="hardAlpha"/>
<feOffset/>
<feGaussianBlur stdDeviation="1"/>
<feComposite in2="hardAlpha" operator="arithmetic" k2="-1" k3="1"/>
<feColorMatrix type="matrix" values="0 0 0 0 0 0 0 0 0 0 0 0 0 0 0 0 0 0 1 0"/>
<feBlend mode="normal" in2="shape" result="effect2_innerShadow"/>
</filter>
<filter id="filter5_di" x="27.3492" y="28.7143" width="43.3016" height="43.3016" filterUnits="userSpaceOnUse" color-interpolation-filters="sRGB">
<feFlood flood-opacity="0" result="BackgroundImageFix"/>
<feColorMatrix in="SourceAlpha" type="matrix" values="0 0 0 0 0 0 0 0 0 0 0 0 0 0 0 0 0 0 127 0"/>
<feOffset/>
<feGaussianBlur stdDeviation="4"/>
<feColorMatrix type="matrix" values="0 0 0 0 0 0 0 0 0 0 0 0 0 0 0 0 0 0 0.25 0"/>
<feBlend mode="normal" in2="BackgroundImageFix" result="effect1_dropShadow"/>
<feBlend mode="normal" in="SourceGraphic" in2="effect1_dropShadow" result="shape"/>
<feColorMatrix in="SourceAlpha" type="matrix" values="0 0 0 0 0 0 0 0 0 0 0 0 0 0 0 0 0 0 127 0" result="hardAlpha"/>
<feOffset/>
<feGaussianBlur stdDeviation="1"/>
<feComposite in2="hardAlpha" operator="arithmetic" k2="-1" k3="1"/>
<feColorMatrix type="matrix" values="0 0 0 0 0 0 0 0 0 0 0 0 0 0 0 0 0 0 1 0"/>
<feBlend mode="normal" in2="shape" result="effect2_innerShadow"/>
</filter>
<filter id="filter6_di" x="27.3492" y="57.381" width="43.3016" height="43.3016" filterUnits="userSpaceOnUse" color-interpolation-filters="sRGB">
<feFlood flood-opacity="0" result="BackgroundImageFix"/>
<feColorMatrix in="SourceAlpha" type="matrix" values="0 0 0 0 0 0 0 0 0 0 0 0 0 0 0 0 0 0 127 0"/>
<feOffset/>
<feGaussianBlur stdDeviation="4"/>
<feColorMatrix type="matrix" values="0 0 0 0 0 0 0 0 0 0 0 0 0 0 0 0 0 0 0.25 0"/>
<feBlend mode="normal" in2="BackgroundImageFix" result="effect1_dropShadow"/>
<feBlend mode="normal" in="SourceGraphic" in2="effect1_dropShadow" result="shape"/>
<feColorMatrix in="SourceAlpha" type="matrix" values="0 0 0 0 0 0 0 0 0 0 0 0 0 0 0 0 0 0 127 0" result="hardAlpha"/>
<feOffset/>
<feGaussianBlur stdDeviation="1"/>
<feComposite in2="hardAlpha" operator="arithmetic" k2="-1" k3="1"/>
<feColorMatrix type="matrix" values="0 0 0 0 0 0 0 0 0 0 0 0 0 0 0 0 0 0 1 0"/>
<feBlend mode="normal" in2="shape" result="effect2_innerShadow"/>
</filter>
<filter id="filter7_di" x="54.6508" y="0.0476379" width="43.3016" height="43.3016" filterUnits="userSpaceOnUse" color-interpolation-filters="sRGB">
<feFlood flood-opacity="0" result="BackgroundImageFix"/>
<feColorMatrix in="SourceAlpha" type="matrix" values="0 0 0 0 0 0 0 0 0 0 0 0 0 0 0 0 0 0 127 0"/>
<feOffset/>
<feGaussianBlur stdDeviation="4"/>
<feColorMatrix type="matrix" values="0 0 0 0 0 0 0 0 0 0 0 0 0 0 0 0 0 0 0.25 0"/>
<feBlend mode="normal" in2="BackgroundImageFix" result="effect1_dropShadow"/>
<feBlend mode="normal" in="SourceGraphic" in2="effect1_dropShadow" result="shape"/>
<feColorMatrix in="SourceAlpha" type="matrix" values="0 0 0 0 0 0 0 0 0 0 0 0 0 0 0 0 0 0 127 0" result="hardAlpha"/>
<feOffset/>
<feGaussianBlur stdDeviation="1"/>
<feComposite in2="hardAlpha" operator="arithmetic" k2="-1" k3="1"/>
<feColorMatrix type="matrix" values="0 0 0 0 0 0 0 0 0 0 0 0 0 0 0 0 0 0 1 0"/>
<feBlend mode="normal" in2="shape" result="effect2_innerShadow"/>
</filter>
<filter id="filter8_di" x="54.6508" y="28.7143" width="43.3016" height="43.3016" filterUnits="userSpaceOnUse" color-interpolation-filters="sRGB">
<feFlood flood-opacity="0" result="BackgroundImageFix"/>
<feColorMatrix in="SourceAlpha" type="matrix" values="0 0 0 0 0 0 0 0 0 0 0 0 0 0 0 0 0 0 127 0"/>
<feOffset/>
<feGaussianBlur stdDeviation="4"/>
<feColorMatrix type="matrix" values="0 0 0 0 0 0 0 0 0 0 0 0 0 0 0 0 0 0 0.25 0"/>
<feBlend mode="normal" in2="BackgroundImageFix" result="effect1_dropShadow"/>
<feBlend mode="normal" in="SourceGraphic" in2="effect1_dropShadow" result="shape"/>
<feColorMatrix in="SourceAlpha" type="matrix" values="0 0 0 0 0 0 0 0 0 0 0 0 0 0 0 0 0 0 127 0" result="hardAlpha"/>
<feOffset/>
<feGaussianBlur stdDeviation="1"/>
<feComposite in2="hardAlpha" operator="arithmetic" k2="-1" k3="1"/>
<feColorMatrix type="matrix" values="0 0 0 0 0 0 0 0 0 0 0 0 0 0 0 0 0 0 1 0"/>
<feBlend mode="normal" in2="shape" result="effect2_innerShadow"/>
</filter>
<filter id="filter9_di" x="54.6508" y="57.381" width="43.3016" height="43.3016" filterUnits="userSpaceOnUse" color-interpolation-filters="sRGB">
<feFlood flood-opacity="0" result="BackgroundImageFix"/>
<feColorMatrix in="SourceAlpha" type="matrix" values="0 0 0 0 0 0 0 0 0 0 0 0 0 0 0 0 0 0 127 0"/>
<feOffset/>
<feGaussianBlur stdDeviation="4"/>
<feColorMatrix type="matrix" values="0 0 0 0 0 0 0 0 0 0 0 0 0 0 0 0 0 0 0.25 0"/>
<feBlend mode="normal" in2="BackgroundImageFix" result="effect1_dropShadow"/>
<feBlend mode="normal" in="SourceGraphic" in2="effect1_dropShadow" result="shape"/>
<feColorMatrix in="SourceAlpha" type="matrix" values="0 0 0 0 0 0 0 0 0 0 0 0 0 0 0 0 0 0 127 0" result="hardAlpha"/>
<feOffset/>
<feGaussianBlur stdDeviation="1"/>
<feComposite in2="hardAlpha" operator="arithmetic" k2="-1" k3="1"/>
<feColorMatrix type="matrix" values="0 0 0 0 0 0 0 0 0 0 0 0 0 0 0 0 0 0 1 0"/>
<feBlend mode="normal" in2="shape" result="effect2_innerShadow"/>
</filter>
<linearGradient id="paint0_linear" x1="48.9062" y1="15.4471" x2="48.9062" y2="83.8328" gradientUnits="userSpaceOnUse">
<stop stop-color="#EF232A"/>
<stop offset="0.25" stop-color="#FCD519"/>
<stop offset="0.492836" stop-color="#03A400"/>
<stop offset="0.68075" stop-color="#00B2FF"/>
<stop offset="1" stop-color="#A800DB"/>
</linearGradient>
<linearGradient id="paint1_linear" x1="21.6984" y1="8.04764" x2="21.6984" y2="35.3492" gradientUnits="userSpaceOnUse">
<stop offset="0.333333" stop-color="white"/>
<stop offset="1" stop-opacity="0.36"/>
</linearGradient>
<linearGradient id="paint2_linear" x1="13.4226" y1="13.3373" x2="30.0595" y2="29.9742" gradientUnits="userSpaceOnUse">
<stop stop-opacity="0.6"/>
<stop offset="0.0001" stop-opacity="0.99"/>
<stop offset="0.505208" stop-opacity="0.33"/>
<stop offset="1" stop-opacity="0.96"/>
</linearGradient>
<radialGradient id="paint3_radial" cx="0" cy="0" r="1" gradientUnits="userSpaceOnUse" gradientTransform="translate(21.6131 19.5655) rotate(90) scale(9.2996)">
<stop stop-color="white"/>
<stop offset="1" stop-color="white" stop-opacity="0"/>
</radialGradient>
<linearGradient id="paint4_linear" x1="21.6984" y1="36.7143" x2="21.6984" y2="64.0159" gradientUnits="userSpaceOnUse">
<stop offset="0.333333" stop-color="white"/>
<stop offset="1" stop-opacity="0.36"/>
</linearGradient>
<linearGradient id="paint5_linear" x1="13.4226" y1="42.004" x2="30.0595" y2="58.6409" gradientUnits="userSpaceOnUse">
<stop stop-opacity="0.6"/>
<stop offset="0.0001" stop-opacity="0.99"/>
<stop offset="0.505208" stop-opacity="0.33"/>
<stop offset="1" stop-opacity="0.96"/>
</linearGradient>
<radialGradient id="paint6_radial" cx="0" cy="0" r="1" gradientUnits="userSpaceOnUse" gradientTransform="translate(21.6131 48.2322) rotate(90) scale(9.2996)">
<stop stop-color="white"/>
<stop offset="1" stop-color="white" stop-opacity="0"/>
</radialGradient>
<linearGradient id="paint7_linear" x1="21.6984" y1="65.381" x2="21.6984" y2="92.6825" gradientUnits="userSpaceOnUse">
<stop offset="0.333333" stop-color="white"/>
<stop offset="1" stop-opacity="0.36"/>
</linearGradient>
<linearGradient id="paint8_linear" x1="13.4226" y1="70.6706" x2="30.0595" y2="87.3075" gradientUnits="userSpaceOnUse">
<stop stop-opacity="0.6"/>
<stop offset="0.0001" stop-opacity="0.99"/>
<stop offset="0.505208" stop-opacity="0.33"/>
<stop offset="1" stop-opacity="0.96"/>
</linearGradient>
<radialGradient id="paint9_radial" cx="0" cy="0" r="1" gradientUnits="userSpaceOnUse" gradientTransform="translate(21.6131 76.8988) rotate(90) scale(9.2996)">
<stop stop-color="white"/>
<stop offset="1" stop-color="white" stop-opacity="0"/>
</radialGradient>
<linearGradient id="paint10_linear" x1="49" y1="8.04764" x2="49" y2="35.3492" gradientUnits="userSpaceOnUse">
<stop offset="0.333333" stop-color="white"/>
<stop offset="1" stop-opacity="0.36"/>
</linearGradient>
<linearGradient id="paint11_linear" x1="40.7242" y1="13.3373" x2="57.3611" y2="29.9742" gradientUnits="userSpaceOnUse">
<stop stop-opacity="0.6"/>
<stop offset="0.0001" stop-opacity="0.99"/>
<stop offset="0.505208" stop-opacity="0.33"/>
<stop offset="1" stop-opacity="0.96"/>
</linearGradient>
<radialGradient id="paint12_radial" cx="0" cy="0" r="1" gradientUnits="userSpaceOnUse" gradientTransform="translate(48.9147 19.5655) rotate(90) scale(9.2996)">
<stop stop-color="white"/>
<stop offset="1" stop-color="white" stop-opacity="0"/>
</radialGradient>
<linearGradient id="paint13_linear" x1="49" y1="36.7143" x2="49" y2="64.0159" gradientUnits="userSpaceOnUse">
<stop offset="0.333333" stop-color="white"/>
<stop offset="1" stop-opacity="0.36"/>
</linearGradient>
<linearGradient id="paint14_linear" x1="40.7242" y1="42.004" x2="57.3611" y2="58.6409" gradientUnits="userSpaceOnUse">
<stop stop-opacity="0.6"/>
<stop offset="0.0001" stop-opacity="0.99"/>
<stop offset="0.505208" stop-opacity="0.33"/>
<stop offset="1" stop-opacity="0.96"/>
</linearGradient>
<radialGradient id="paint15_radial" cx="0" cy="0" r="1" gradientUnits="userSpaceOnUse" gradientTransform="translate(48.9147 48.2322) rotate(90) scale(9.2996)">
<stop stop-color="white"/>
<stop offset="1" stop-color="white" stop-opacity="0"/>
</radialGradient>
<linearGradient id="paint16_linear" x1="49" y1="65.381" x2="49" y2="92.6825" gradientUnits="userSpaceOnUse">
<stop offset="0.333333" stop-color="white"/>
<stop offset="1" stop-opacity="0.36"/>
</linearGradient>
<linearGradient id="paint17_linear" x1="40.7242" y1="70.6706" x2="57.3611" y2="87.3075" gradientUnits="userSpaceOnUse">
<stop stop-opacity="0.6"/>
<stop offset="0.0001" stop-opacity="0.99"/>
<stop offset="0.505208" stop-opacity="0.33"/>
<stop offset="1" stop-opacity="0.96"/>
</linearGradient>
<radialGradient id="paint18_radial" cx="0" cy="0" r="1" gradientUnits="userSpaceOnUse" gradientTransform="translate(48.9147 76.8988) rotate(90) scale(9.2996)">
<stop stop-color="white"/>
<stop offset="1" stop-color="white" stop-opacity="0"/>
</radialGradient>
<linearGradient id="paint19_linear" x1="76.3016" y1="8.04764" x2="76.3016" y2="35.3492" gradientUnits="userSpaceOnUse">
<stop offset="0.333333" stop-color="white"/>
<stop offset="1" stop-opacity="0.36"/>
</linearGradient>
<linearGradient id="paint20_linear" x1="68.0258" y1="13.3373" x2="84.6628" y2="29.9742" gradientUnits="userSpaceOnUse">
<stop stop-opacity="0.6"/>
<stop offset="0.0001" stop-opacity="0.99"/>
<stop offset="0.505208" stop-opacity="0.33"/>
<stop offset="1" stop-opacity="0.96"/>
</linearGradient>
<radialGradient id="paint21_radial" cx="0" cy="0" r="1" gradientUnits="userSpaceOnUse" gradientTransform="translate(76.2163 19.5655) rotate(90) scale(9.2996)">
<stop stop-color="white"/>
<stop offset="1" stop-color="white" stop-opacity="0"/>
</radialGradient>
<linearGradient id="paint22_linear" x1="76.3016" y1="36.7143" x2="76.3016" y2="64.0159" gradientUnits="userSpaceOnUse">
<stop offset="0.333333" stop-color="white"/>
<stop offset="1" stop-opacity="0.36"/>
</linearGradient>
<linearGradient id="paint23_linear" x1="68.0258" y1="42.004" x2="84.6628" y2="58.6409" gradientUnits="userSpaceOnUse">
<stop stop-opacity="0.6"/>
<stop offset="0.0001" stop-opacity="0.99"/>
<stop offset="0.505208" stop-opacity="0.33"/>
<stop offset="1" stop-opacity="0.96"/>
</linearGradient>
<radialGradient id="paint24_radial" cx="0" cy="0" r="1" gradientUnits="userSpaceOnUse" gradientTransform="translate(76.2163 48.2322) rotate(90) scale(9.2996)">
<stop stop-color="white"/>
<stop offset="1" stop-color="white" stop-opacity="0"/>
</radialGradient>
<linearGradient id="paint25_linear" x1="76.3016" y1="65.381" x2="76.3016" y2="92.6825" gradientUnits="userSpaceOnUse">
<stop offset="0.333333" stop-color="white"/>
<stop offset="1" stop-opacity="0.36"/>
</linearGradient>
<linearGradient id="paint26_linear" x1="68.0258" y1="70.6706" x2="84.6628" y2="87.3075" gradientUnits="userSpaceOnUse">
<stop stop-opacity="0.6"/>
<stop offset="0.0001" stop-opacity="0.99"/>
<stop offset="0.505208" stop-opacity="0.33"/>
<stop offset="1" stop-opacity="0.96"/>
</linearGradient>
<radialGradient id="paint27_radial" cx="0" cy="0" r="1" gradientUnits="userSpaceOnUse" gradientTransform="translate(76.2163 76.8988) rotate(90) scale(9.2996)">
<stop stop-color="white"/>
<stop offset="1" stop-color="white" stop-opacity="0"/>
</radialGradient>
</defs>
</svg>
