<svg width="154" height="154" viewBox="0 0 154 154" fill="none" xmlns="http://www.w3.org/2000/svg">
<path fill-rule="evenodd" clip-rule="evenodd" d="M36.3627 34.505C34.7176 36.9184 33.8288 39.9128 33.7508 43.3033C33.5932 50.1661 36.7027 56.5405 42.8865 62.0313C44.7801 63.7128 44.8731 63.7901 50.2785 68.1731C55.1855 72.152 57.0891 73.7737 59.7411 76.2347C64.0746 80.2559 67.4493 84.2151 69.8544 88.0996C70.4117 88.9997 71.6668 91.2978 71.6698 91.4233C71.6705 91.4553 70.9309 91.5814 70.0263 91.7033C65.0025 92.3808 60.1429 93.7688 56.7907 95.4836C53.0839 97.3799 50.2614 100.076 48.8515 103.067C47.8341 105.225 47.3963 107.292 47.3886 109.973C47.3807 112.725 48.0818 116.596 49.0023 118.885C50.1784 121.808 52.932 123.361 56.3869 123.048C60.9793 122.633 66.9531 119.934 73.3932 115.367C74.5835 114.523 75.3311 114.072 75.7843 113.924C77.5051 113.361 79.8574 113.269 85.9529 113.525C88.2875 113.622 91.9373 113.7 94.0634 113.697L97.9291 113.692L98.4585 114.786C98.922 115.744 99.1033 115.997 99.9147 116.812C101.015 117.916 101.829 118.423 103.396 118.978C106.578 120.106 110.654 119.891 114.058 118.417C118.204 116.622 123.384 112.864 127.798 108.451C132.739 103.512 134.815 99.9582 135.478 95.3041C135.841 92.7601 135.554 90.5901 134.635 88.9241C133.971 87.721 132.412 86.4488 130.864 85.8455C130.712 85.7863 130.7 85.3013 130.816 83.9235C131.019 81.5309 130.957 77.1522 130.691 75.0189C129.61 66.3579 126.177 58.3184 120.056 50.1187C116.723 45.6535 114.026 43.1215 110.122 40.7931C103.394 36.7805 97.32 36.0936 92.0062 38.7443C91.1165 39.1882 89.6814 40.0968 88.391 41.0332C88.0444 41.2846 87.9459 41.2813 87.1422 40.99C84.1356 39.9 80.0823 39.8446 76.6594 40.8464C72.9981 41.9182 70.1129 43.7432 67.0276 46.9389L65.29 48.7388L62.028 45.3666C58.4901 41.7093 57.0281 40.0959 53.6601 36.1317C51.0176 33.0212 49.7004 31.683 48.702 31.0943C46.5457 29.8227 44.039 29.5482 41.7969 30.338C41.1197 30.5765 40.2411 30.9646 39.8446 31.2005C38.8206 31.8098 37.0627 33.478 36.3627 34.505ZM42.5546 33.25C43.5118 32.8893 44.735 32.8929 45.7195 33.2589C46.9808 33.7282 47.7493 34.4176 50.1145 37.2021C55.1547 43.1357 58.4021 46.6357 63.3963 51.517C65.6106 53.6813 67.9053 55.8448 68.4955 56.3249C72.5712 59.6401 76.2762 61.6129 80.3144 62.6183C81.6787 62.958 83.5152 63.2577 83.1462 63.0806C79.8658 61.5054 74.3458 57.3701 69.6147 52.9432L67.7384 51.1876L68.1862 50.5911C68.9948 49.514 71.7302 46.8827 72.7764 46.1758C76.845 43.4268 81.3833 42.6208 85.3974 43.9342C85.8007 44.0661 87.2938 44.7226 88.7153 45.393C92.0242 46.9534 93.7706 47.682 95.7126 48.3126C97.1449 48.7776 99.4462 49.2628 99.4462 49.0999C99.4462 49.062 99.1446 48.8536 98.776 48.6367C97.7097 48.0093 91.0724 43.384 91.0723 43.2684C91.0724 43.2437 91.5884 42.8978 92.2191 42.4996C97.5702 39.121 103.285 39.967 110.796 45.2498C112.226 46.2559 114.983 49.0121 116.413 50.8666C122.682 58.9962 126.208 66.7079 127.291 74.6579C127.892 79.0644 127.581 85.7989 126.658 88.3805C125.765 90.8766 123.964 93.538 120.94 96.8259C116.306 101.866 109.957 106.862 106.074 108.525C104.201 109.327 101.486 109.903 98.439 110.143C96.3496 110.308 92.9427 110.308 87.0359 110.142C79.4191 109.927 76.9666 110.074 74.5306 110.889C73.2788 111.308 73.0782 111.42 71.5262 112.555C65.2095 117.177 59.0555 119.992 55.6618 119.812C54.3847 119.744 53.7192 119.467 52.9221 118.67C52.2884 118.036 52.2245 117.921 51.8597 116.757C50.5412 112.551 50.3663 108.607 51.3654 105.614C51.9287 103.926 52.7977 102.54 54.1218 101.217C57.5023 97.839 63.2316 95.8134 72.158 94.8399C74.8838 94.5427 74.9482 94.5282 75.3626 94.1219C76.0992 93.3997 75.9597 92.5455 74.673 89.8996C70.9264 82.1945 65.0487 75.723 52.9321 65.9617C45.6374 60.0852 43.8889 58.5544 42.1409 56.5147C37.3837 50.9636 35.8453 44.9321 37.7423 39.2707C38.4082 37.2834 39.2444 35.9443 40.6669 34.5881C41.6339 33.6658 41.8417 33.5185 42.5546 33.25ZM102.227 74.4731C102.026 75.0815 102.173 75.7615 102.635 76.3519C107.353 82.3813 110.594 86.897 113.352 91.2842C114.163 92.5746 114.697 93.3197 114.896 93.4388C115.342 93.7056 116.291 93.6648 116.737 93.3597C117.192 93.0481 117.483 92.3191 117.39 91.7221C117.26 90.8961 113.334 84.9095 110.07 80.5621C106.782 76.1833 104.919 73.7977 104.633 73.6015C104.116 73.2464 103.006 73.3834 102.529 73.8614C102.447 73.9434 102.311 74.2187 102.227 74.4731ZM97.6796 87.5318C97.6238 87.7679 97.5878 88.13 97.5999 88.3366C97.6208 88.6959 97.7884 88.8841 101.468 92.6756C103.79 95.0674 105.806 97.2356 106.553 98.1436C107.727 99.5718 107.817 99.6589 108.322 99.8559C108.961 100.106 109.51 99.9624 110.073 99.4003C110.405 99.0677 110.481 98.8909 110.501 98.3974C110.521 97.8854 110.453 97.7025 110.034 97.1391C108.845 95.5419 107.46 94.0114 103.984 90.4515C100.513 86.8971 100.238 86.6378 99.8005 86.5005C98.839 86.1988 97.8849 86.6627 97.6796 87.5318ZM114.069 71.8789C113.701 72.5674 113.803 72.8957 115.317 75.8967C117.387 79.998 118.366 82.3627 119.451 85.8843C119.964 87.5494 120.276 87.9948 121.059 88.1846C122.288 88.4827 123.326 87.3563 123.014 86.0621C122.824 85.2701 121.391 81.111 120.769 79.5471C120.054 77.7475 117.084 71.8189 116.711 71.4467C115.979 70.7164 114.567 70.9473 114.069 71.8789ZM103.022 112.937C106.901 112.129 109.513 110.864 113.737 107.747C118.764 104.038 124.245 98.5644 127.149 94.3539C128.172 92.8696 129.025 91.3724 129.503 90.2228C129.712 89.7187 129.913 89.2598 129.949 89.203C130.06 89.0287 131.112 89.7158 131.563 90.2576C132.712 91.6372 132.704 93.8321 131.536 97.4572C131.057 98.9453 130.483 100.043 129.212 101.904C128.508 102.935 128.083 103.399 125.284 106.202C122.499 108.989 121.957 109.485 120.484 110.601C116.472 113.64 113.081 115.485 110.481 116.042C107.952 116.585 105.897 116.554 104.202 115.947C103.394 115.658 103.235 115.552 102.52 114.826C101.827 114.124 101.358 113.423 101.49 113.29C101.514 113.266 102.203 113.107 103.022 112.937Z" fill="#FFF8D5"/>
<path fill-rule="evenodd" clip-rule="evenodd" d="M42.5546 33.25C43.5118 32.8893 44.735 32.8929 45.7195 33.2589C46.9808 33.7282 47.7493 34.4176 50.1145 37.2021C55.1547 43.1357 58.4021 46.6357 63.3963 51.517C65.6106 53.6813 67.9053 55.8448 68.4955 56.3249C72.5712 59.6401 76.2762 61.6129 80.3144 62.6183C81.6787 62.958 83.5152 63.2577 83.1462 63.0806C79.8658 61.5054 74.3458 57.3701 69.6147 52.9432L67.7384 51.1876L68.1862 50.5911C68.9948 49.514 71.7302 46.8827 72.7764 46.1758C76.845 43.4268 81.3833 42.6208 85.3974 43.9342C85.8007 44.0661 87.2938 44.7226 88.7153 45.393C92.0242 46.9534 93.7706 47.682 95.7126 48.3126C97.1449 48.7776 99.4462 49.2628 99.4462 49.0999C99.4462 49.062 99.1446 48.8536 98.776 48.6367C97.7097 48.0093 91.0724 43.384 91.0723 43.2684C91.0724 43.2437 91.5884 42.8978 92.2191 42.4996C97.5702 39.121 103.285 39.967 110.796 45.2498C112.226 46.2559 114.983 49.0121 116.413 50.8666C122.682 58.9962 126.208 66.7079 127.291 74.6579C127.892 79.0644 127.581 85.7989 126.658 88.3805C125.765 90.8766 123.964 93.538 120.94 96.8259C116.306 101.866 109.957 106.862 106.074 108.525C104.201 109.327 101.486 109.903 98.439 110.143C96.3496 110.308 92.9427 110.308 87.0359 110.142C79.4191 109.927 76.9666 110.074 74.5306 110.889C73.2788 111.308 73.0782 111.42 71.5262 112.555C65.2095 117.177 59.0555 119.992 55.6618 119.812C54.3847 119.744 53.7192 119.467 52.9221 118.67C52.2884 118.036 52.2245 117.921 51.8597 116.757C50.5412 112.551 50.3663 108.607 51.3654 105.614C51.9287 103.926 52.7977 102.54 54.1218 101.217C57.5023 97.839 63.2316 95.8134 72.158 94.8399C74.8838 94.5427 74.9482 94.5282 75.3626 94.1219C76.0992 93.3997 75.9597 92.5455 74.673 89.8996C70.9264 82.1945 65.0487 75.723 52.9321 65.9617C45.6374 60.0852 43.8889 58.5544 42.1409 56.5147C37.3837 50.9636 35.8453 44.9321 37.7423 39.2707C38.4082 37.2834 39.2444 35.9443 40.6669 34.5881C41.6339 33.6658 41.8417 33.5185 42.5546 33.25ZM102.635 76.3519C102.173 75.7615 102.026 75.0815 102.227 74.4731C102.311 74.2187 102.447 73.9434 102.529 73.8614C103.006 73.3834 104.116 73.2464 104.633 73.6015C104.919 73.7977 106.782 76.1833 110.07 80.5621C113.334 84.9095 117.26 90.8961 117.39 91.7221C117.483 92.3191 117.192 93.0481 116.737 93.3597C116.291 93.6648 115.342 93.7056 114.896 93.4388C114.697 93.3197 114.163 92.5746 113.352 91.2842C110.594 86.897 107.353 82.3813 102.635 76.3519ZM97.5999 88.3366C97.5878 88.13 97.6238 87.7679 97.6796 87.5318C97.8849 86.6627 98.839 86.1988 99.8005 86.5005C100.238 86.6378 100.513 86.8971 103.984 90.4515C107.46 94.0114 108.845 95.5419 110.034 97.1391C110.453 97.7025 110.521 97.8854 110.501 98.3974C110.481 98.8909 110.405 99.0677 110.073 99.4003C109.51 99.9624 108.961 100.106 108.322 99.8559C107.817 99.6589 107.727 99.5718 106.553 98.1436C105.806 97.2356 103.79 95.0674 101.468 92.6756C97.7884 88.8841 97.6208 88.6959 97.5999 88.3366ZM115.317 75.8967C113.803 72.8957 113.701 72.5674 114.069 71.8789C114.567 70.9473 115.979 70.7164 116.711 71.4467C117.084 71.8189 120.054 77.7475 120.769 79.5471C121.391 81.111 122.824 85.2701 123.014 86.0621C123.326 87.3563 122.288 88.4827 121.059 88.1846C120.276 87.9948 119.964 87.5494 119.451 85.8843C118.366 82.3627 117.387 79.998 115.317 75.8967Z" fill="#FFF8D5"/>
<path d="M103.022 112.937C106.901 112.129 109.513 110.864 113.737 107.747C118.764 104.038 124.245 98.5644 127.149 94.3539C128.172 92.8696 129.025 91.3724 129.503 90.2228C129.712 89.7187 129.913 89.2598 129.949 89.203C130.06 89.0287 131.112 89.7158 131.563 90.2576C132.712 91.6372 132.704 93.8321 131.536 97.4572C131.057 98.9453 130.483 100.043 129.212 101.904C128.508 102.935 128.083 103.399 125.284 106.202C122.499 108.989 121.957 109.485 120.484 110.601C116.472 113.64 113.081 115.485 110.481 116.042C107.952 116.585 105.897 116.554 104.202 115.947C103.394 115.658 103.235 115.552 102.52 114.826C101.827 114.124 101.358 113.423 101.49 113.29C101.514 113.266 102.203 113.107 103.022 112.937Z" fill="#FFF8D5"/>
<path fill-rule="evenodd" clip-rule="evenodd" d="M36.3627 34.505C34.7176 36.9184 33.8288 39.9128 33.7508 43.3033C33.5932 50.1661 36.7027 56.5405 42.8865 62.0313C44.7801 63.7128 44.8731 63.7901 50.2785 68.1731C55.1855 72.152 57.0891 73.7737 59.7411 76.2347C64.0746 80.2559 67.4493 84.2151 69.8544 88.0996C70.4117 88.9997 71.6668 91.2978 71.6698 91.4233C71.6705 91.4553 70.9309 91.5814 70.0263 91.7033C65.0025 92.3808 60.1429 93.7688 56.7907 95.4836C53.0839 97.3799 50.2614 100.076 48.8515 103.067C47.8341 105.225 47.3963 107.292 47.3886 109.973C47.3807 112.725 48.0818 116.596 49.0023 118.885C50.1784 121.808 52.932 123.361 56.3869 123.048C60.9793 122.633 66.9531 119.934 73.3932 115.367C74.5835 114.523 75.3311 114.072 75.7843 113.924C77.5051 113.361 79.8574 113.269 85.9529 113.525C88.2875 113.622 91.9373 113.7 94.0634 113.697L97.9291 113.692L98.4585 114.786C98.922 115.744 99.1033 115.997 99.9147 116.812C101.015 117.916 101.829 118.423 103.396 118.978C106.578 120.106 110.654 119.891 114.058 118.417C118.204 116.622 123.384 112.864 127.798 108.451C132.739 103.512 134.815 99.9582 135.478 95.3041C135.841 92.7601 135.554 90.5901 134.635 88.9241C133.971 87.721 132.412 86.4488 130.864 85.8455C130.712 85.7863 130.7 85.3013 130.816 83.9235C131.019 81.5309 130.957 77.1522 130.691 75.0189C129.61 66.3579 126.177 58.3184 120.056 50.1187C116.723 45.6535 114.026 43.1215 110.122 40.7931C103.394 36.7805 97.32 36.0936 92.0062 38.7443C91.1165 39.1882 89.6814 40.0968 88.391 41.0332C88.0444 41.2846 87.9459 41.2813 87.1422 40.99C84.1356 39.9 80.0823 39.8446 76.6594 40.8464C72.9981 41.9182 70.1129 43.7432 67.0276 46.9389L65.29 48.7388L62.028 45.3666C58.4901 41.7093 57.0281 40.0959 53.6601 36.1317C51.0176 33.0212 49.7004 31.683 48.702 31.0943C46.5457 29.8227 44.039 29.5482 41.7969 30.338C41.1197 30.5765 40.2411 30.9646 39.8446 31.2005C38.8206 31.8098 37.0627 33.478 36.3627 34.505ZM42.5546 33.25C43.5118 32.8893 44.735 32.8929 45.7195 33.2589C46.9808 33.7282 47.7493 34.4176 50.1145 37.2021C55.1547 43.1357 58.4021 46.6357 63.3963 51.517C65.6106 53.6813 67.9053 55.8448 68.4955 56.3249C72.5712 59.6401 76.2762 61.6129 80.3144 62.6183C81.6787 62.958 83.5152 63.2577 83.1462 63.0806C79.8658 61.5054 74.3458 57.3701 69.6147 52.9432L67.7384 51.1876L68.1862 50.5911C68.9948 49.514 71.7302 46.8827 72.7764 46.1758C76.845 43.4268 81.3833 42.6208 85.3974 43.9342C85.8007 44.0661 87.2938 44.7226 88.7153 45.393C92.0242 46.9534 93.7706 47.682 95.7126 48.3126C97.1449 48.7776 99.4462 49.2628 99.4462 49.0999C99.4462 49.062 99.1446 48.8536 98.776 48.6367C97.7097 48.0093 91.0724 43.384 91.0723 43.2684C91.0724 43.2437 91.5884 42.8978 92.2191 42.4996C97.5702 39.121 103.285 39.967 110.796 45.2498C112.226 46.2559 114.983 49.0121 116.413 50.8666C122.682 58.9962 126.208 66.7079 127.291 74.6579C127.892 79.0644 127.581 85.7989 126.658 88.3805C125.765 90.8766 123.964 93.538 120.94 96.8259C116.306 101.866 109.957 106.862 106.074 108.525C104.201 109.327 101.486 109.903 98.439 110.143C96.3496 110.308 92.9427 110.308 87.0359 110.142C79.4191 109.927 76.9666 110.074 74.5306 110.889C73.2788 111.308 73.0782 111.42 71.5262 112.555C65.2095 117.177 59.0555 119.992 55.6618 119.812C54.3847 119.744 53.7192 119.467 52.9221 118.67C52.2884 118.036 52.2245 117.921 51.8597 116.757C50.5412 112.551 50.3663 108.607 51.3654 105.614C51.9287 103.926 52.7977 102.54 54.1218 101.217C57.5023 97.839 63.2316 95.8134 72.158 94.8399C74.8838 94.5427 74.9482 94.5282 75.3626 94.1219C76.0992 93.3997 75.9597 92.5455 74.673 89.8996C70.9264 82.1945 65.0487 75.723 52.9321 65.9617C45.6374 60.0852 43.8889 58.5544 42.1409 56.5147C37.3837 50.9636 35.8453 44.9321 37.7423 39.2707C38.4082 37.2834 39.2444 35.9443 40.6669 34.5881C41.6339 33.6658 41.8417 33.5185 42.5546 33.25ZM102.227 74.4731C102.026 75.0815 102.173 75.7615 102.635 76.3519C107.353 82.3813 110.594 86.897 113.352 91.2842C114.163 92.5746 114.697 93.3197 114.896 93.4388C115.342 93.7056 116.291 93.6648 116.737 93.3597C117.192 93.0481 117.483 92.3191 117.39 91.7221C117.26 90.8961 113.334 84.9095 110.07 80.5621C106.782 76.1833 104.919 73.7977 104.633 73.6015C104.116 73.2464 103.006 73.3834 102.529 73.8614C102.447 73.9434 102.311 74.2187 102.227 74.4731ZM97.6796 87.5318C97.6238 87.7679 97.5878 88.13 97.5999 88.3366C97.6208 88.6959 97.7884 88.8841 101.468 92.6756C103.79 95.0674 105.806 97.2356 106.553 98.1436C107.727 99.5718 107.817 99.6589 108.322 99.8559C108.961 100.106 109.51 99.9624 110.073 99.4003C110.405 99.0677 110.481 98.8909 110.501 98.3974C110.521 97.8854 110.453 97.7025 110.034 97.1391C108.845 95.5419 107.46 94.0114 103.984 90.4515C100.513 86.8971 100.238 86.6378 99.8005 86.5005C98.839 86.1988 97.8849 86.6627 97.6796 87.5318ZM114.069 71.8789C113.701 72.5674 113.803 72.8957 115.317 75.8967C117.387 79.998 118.366 82.3627 119.451 85.8843C119.964 87.5494 120.276 87.9948 121.059 88.1846C122.288 88.4827 123.326 87.3563 123.014 86.0621C122.824 85.2701 121.391 81.111 120.769 79.5471C120.054 77.7475 117.084 71.8189 116.711 71.4467C115.979 70.7164 114.567 70.9473 114.069 71.8789ZM103.022 112.937C106.901 112.129 109.513 110.864 113.737 107.747C118.764 104.038 124.245 98.5644 127.149 94.3539C128.172 92.8696 129.025 91.3724 129.503 90.2228C129.712 89.7187 129.913 89.2598 129.949 89.203C130.06 89.0287 131.112 89.7158 131.563 90.2576C132.712 91.6372 132.704 93.8321 131.536 97.4572C131.057 98.9453 130.483 100.043 129.212 101.904C128.508 102.935 128.083 103.399 125.284 106.202C122.499 108.989 121.957 109.485 120.484 110.601C116.472 113.64 113.081 115.485 110.481 116.042C107.952 116.585 105.897 116.554 104.202 115.947C103.394 115.658 103.235 115.552 102.52 114.826C101.827 114.124 101.358 113.423 101.49 113.29C101.514 113.266 102.203 113.107 103.022 112.937Z" fill="black"/>
</svg>
