<svg width="39" height="31" viewBox="0 0 39 31" fill="none" xmlns="http://www.w3.org/2000/svg">
<path fill-rule="evenodd" clip-rule="evenodd" d="M6.71073 8.17941C6.51361 8.65812 6.62625 19.5841 6.79521 20.4289C6.96417 21.2737 16.2287 25.4695 19.2981 28.4263C22.3675 31.3831 22.7899 29.8343 23.156 29.4682C23.522 29.1021 24.0571 1.64634 22.6491 0.23835C21.2411 -1.16964 15.6373 4.09624 15.0741 4.65943C14.5109 5.22263 7.38656 7.50357 6.71073 8.17941ZM13.2906 7.73209L13.3001 7.72885C14.4734 7.17504 16.9834 5.9041 17.6367 5.25079C18.4533 4.43416 21.5509 2.74457 21.8043 3.5612C22.007 4.21451 22.0577 15.6793 22.1704 21.8932C22.2361 24.681 22.9363 30.251 21.6072 28.6516C19.9458 26.6522 15.4402 24.0052 15.4402 24.0052C15.4402 24.0052 9.61603 21.6631 8.73822 20.1755C7.86042 18.6879 8.14464 14.7849 9.63933 11.8965C10.6334 9.97556 11.3223 8.40693 13.2906 7.73209Z" fill="white"/>
<path fill-rule="evenodd" clip-rule="evenodd" d="M5.30126 7.51646C4.8614 6.87358 0.665831 6.94125 0.361314 7.24577C0.0567972 7.55029 -0.315391 19.6972 0.462819 21.9642C2.66211 22.2687 4.82756 22.201 5.09824 22.0657C5.31479 21.9574 5.32381 12.3211 5.30126 7.51646ZM1.41372 10.2536C1.58289 10.0844 3.64684 10.1859 3.88369 10.3551C4.26715 12.0694 4.43182 14.0026 3.91752 20.4719C3.13931 20.6411 3.30849 20.8779 1.27837 20.4042C0.906187 14.28 1.24454 10.4228 1.41372 10.2536Z" fill="white"/>
<path d="M3.88369 10.3551C3.64684 10.1859 1.58289 10.0844 1.41372 10.2536C1.24454 10.4228 0.906187 14.28 1.27837 20.4042C3.30849 20.8779 3.13931 20.6411 3.91752 20.4719C4.43182 14.0026 4.26715 12.0694 3.88369 10.3551Z" fill="white"/>
<path d="M9.63933 11.8965C8.14464 14.7849 7.86042 18.6879 8.73822 20.1755C9.61603 21.6631 15.4402 24.0052 15.4402 24.0052C15.4402 24.0052 19.9458 26.6522 21.6072 28.6516C22.9363 30.251 22.2361 24.681 22.1704 21.8932C22.0577 15.6793 22.007 4.21451 21.8043 3.5612C21.5509 2.74457 18.4533 4.43416 17.6367 5.25079C16.9834 5.9041 14.4734 7.17504 13.3001 7.72885L13.2906 7.73209C11.3223 8.40693 10.6334 9.97556 9.63933 11.8965Z" fill="white"/>
<path fill-rule="evenodd" clip-rule="evenodd" d="M6.71073 8.17941C6.51361 8.65812 6.62625 19.5841 6.79521 20.4289C6.96417 21.2737 16.2287 25.4695 19.2981 28.4263C22.3675 31.3831 22.7899 29.8343 23.156 29.4682C23.522 29.1021 24.0571 1.64634 22.6491 0.23835C21.2411 -1.16964 15.6373 4.09624 15.0741 4.65943C14.5109 5.22263 7.38656 7.50357 6.71073 8.17941ZM13.2906 7.73209L13.3001 7.72885C14.4734 7.17504 16.9834 5.9041 17.6367 5.25079C18.4533 4.43416 21.5509 2.74457 21.8043 3.5612C22.007 4.21451 22.0577 15.6793 22.1704 21.8932C22.2361 24.681 22.9363 30.251 21.6072 28.6516C19.9458 26.6522 15.4402 24.0052 15.4402 24.0052C15.4402 24.0052 9.61602 21.6631 8.73822 20.1755C7.86042 18.6879 8.14464 14.7849 9.63933 11.8965C10.6334 9.97556 11.3223 8.40693 13.2906 7.73209Z" fill="#242424"/>
<path fill-rule="evenodd" clip-rule="evenodd" d="M5.30126 7.51646C4.8614 6.87358 0.665831 6.94125 0.361314 7.24577C0.0567972 7.55029 -0.315391 19.6972 0.462819 21.9642C2.66211 22.2687 4.82756 22.201 5.09824 22.0657C5.31479 21.9574 5.32381 12.3211 5.30126 7.51646ZM1.41372 10.2536C1.58289 10.0844 3.64684 10.1859 3.88369 10.3551C4.26715 12.0694 4.43182 14.0026 3.91752 20.4719C3.13931 20.6411 3.30849 20.8779 1.27837 20.4042C0.906187 14.28 1.24454 10.4228 1.41372 10.2536Z" fill="#242424"/>
<path fill-rule="evenodd" clip-rule="evenodd" d="M31.0094 3.5671C30.604 4.08447 30.7633 4.35127 31.8692 5.0077C33.161 5.77447 33.6145 6.22037 34.5223 7.61561C35.569 9.22457 35.7252 9.6376 36.3329 12.4025C36.6527 13.858 36.6822 15.4929 36.4046 16.3902C36.3016 16.7234 36.0629 17.576 35.8741 18.2851C34.9967 21.5823 33.7229 23.2407 31.1353 24.4549C30.0846 24.9479 29.8538 25.2011 30.0411 25.6553C30.1887 26.0133 30.4805 26.2311 30.8122 26.2311C31.1302 26.2311 32.4989 25.5676 33.3115 25.0195C35.5265 23.5255 37.1004 20.6617 37.8008 16.8508C38.0294 15.6065 38.0519 15.3017 37.9998 14.1431C37.9235 12.446 37.719 11.2623 37.2626 9.87645C36.2732 6.87264 34.6609 4.81797 32.3068 3.5612C31.6907 3.23231 31.2701 3.23425 31.0094 3.5671ZM29.2338 6.99748C29.011 7.3168 29.0366 7.72982 29.2954 7.98966C29.4161 8.11074 29.7854 8.35472 30.1161 8.53169C31.3751 9.20543 32.4632 10.7504 32.9443 12.5475C33.1096 13.1653 33.1513 13.5939 33.1513 14.675C33.1513 16.2689 32.9948 16.9749 32.3198 18.4254C31.8091 19.5226 31.236 20.186 30.4757 20.5597C29.8548 20.865 29.6171 21.1663 29.7086 21.5323C29.7881 21.8501 30.1829 22.1696 30.4963 22.1696C31.2419 22.1696 32.7701 20.849 33.462 19.6068C34.2814 18.1356 34.8263 15.5017 34.6562 13.8345C34.4787 12.0946 33.9309 10.5555 32.9753 9.11211C32.1482 7.86318 30.8559 6.91287 29.8526 6.81606C29.4514 6.77738 29.3708 6.80098 29.2338 6.99748ZM28.5946 11.242C28.3109 11.5268 28.3583 11.8485 28.7537 12.3207C29.3575 13.0422 29.5093 13.4862 29.5094 14.5299C29.5095 15.3698 29.4829 15.5025 29.1997 16.0772C29.0292 16.4229 28.7931 16.8257 28.6748 16.9723C28.4325 17.2727 28.3887 17.8106 28.587 18.0506C28.7596 18.2593 29.449 18.2488 29.7182 18.0333C30.2168 17.6341 30.8179 16.2676 30.9919 15.1385C31.2015 13.7769 30.7787 12.2746 29.9525 11.445C29.6219 11.1131 29.495 11.0486 29.1724 11.0486C28.9156 11.0486 28.7229 11.1131 28.5946 11.242Z" fill="#242424"/>
</svg>
