<svg width="304" height="287" viewBox="0 0 304 287" fill="none" xmlns="http://www.w3.org/2000/svg">
<path fill-rule="evenodd" clip-rule="evenodd" d="M197.956 2.4166C196.747 6.24933 192.928 14.6794 190.415 19.0621C186.778 25.4041 183.239 30.1391 178.78 34.6277C172.287 41.1637 165.982 44.9214 158.463 46.736C153.616 47.906 145.909 47.8174 141.06 46.5359C125.759 42.4923 113.037 27.9545 104.474 4.72761L102.926 0.52915L103.274 4.02787C103.465 5.95217 103.616 12.1449 103.608 17.7895C103.597 25.9294 103.418 28.8725 102.742 32.0176C101.609 37.2886 101.258 37.8027 100.873 34.755C100.208 29.4939 96.3265 1.9473 96.2421 1.89552C96.1935 1.86566 94.3686 2.18055 92.1866 2.59526C88.8971 3.22083 88.2432 3.4886 88.358 4.16269C88.4346 4.60959 90.6921 13.7958 93.3754 24.5761C96.0586 35.3568 98.2542 44.5472 98.2542 44.9998C98.2542 46.445 93.7329 52.7664 90.6133 55.683C87.1426 58.9279 83.4489 60.8419 79.2791 61.5557C76.8026 61.9797 76.2323 61.9443 75.5219 61.3229C73.3946 59.4625 45.5651 36.3033 45.1441 36.043C44.5126 35.653 39.6133 42.2693 40.235 42.6729C40.4955 42.8417 47.3499 47.1787 55.4673 52.3102C63.5848 57.4417 70.2315 61.76 70.238 61.9065C70.2446 62.053 68.8327 62.0063 67.0997 61.8025C57.5625 60.6796 45.1483 56.581 33.3251 50.6509C30.7968 49.3825 28.6194 48.345 28.4869 48.345C28.3539 48.345 30.0392 50.6014 32.2315 53.3598C45.104 69.5547 51.3419 84.2456 49.7363 94.5869C49.04 99.0736 47.672 101.742 44.3605 105.076C37.6829 111.798 26.6148 115.046 7.70794 115.831L0.00684357 116.15L3.27398 116.707C8.38937 117.579 15.4072 119.624 19.8425 121.535C33.2942 127.332 40.3793 136.86 40.3793 149.155C40.3793 167.115 29.6341 183.134 10.7417 193.338C8.68808 194.448 7.53291 195.228 8.17467 195.073C26.4949 190.644 39.4318 190.524 47.7798 194.708C50.1783 195.909 53.9145 199.51 53.9145 200.619C53.9145 201.111 50.8453 204.87 28.9443 231.206C19.071 243.079 16.5759 246.176 16.5759 246.561C16.5759 247.05 22.5225 251.396 22.9519 251.22C23.1671 251.132 25.7397 247.591 28.6689 243.351C31.5977 239.112 35.086 234.069 36.4209 232.144C37.7553 230.22 41.765 224.439 45.3308 219.298C48.8967 214.157 52.5493 208.862 53.4478 207.531C54.3462 206.2 55.2237 205.106 55.3978 205.1C55.97 205.078 56.3789 210.292 56.0816 213.811C55.2176 224.023 49.7335 236.666 40.8147 249.005L38.5749 252.103L42.8753 249.402C60.5799 238.28 78.7466 233.042 90.7864 235.589C100.737 237.694 107.772 244.544 111.92 256.169C114.258 262.72 115.973 273.718 116.009 282.391L116.028 286.958L117.376 281.826C121.459 266.278 128.289 253.081 135.79 246.247C137.274 244.895 138.921 243.557 139.45 243.275L140.412 242.76L140.092 259.983L139.772 277.207L142.933 277.013C144.672 276.907 146.182 276.739 146.288 276.641C146.395 276.542 145.918 269.062 145.228 260.018C144.539 250.974 143.979 242.925 143.984 242.131C143.993 240.842 144.205 240.625 145.978 240.09C147.068 239.761 149.251 239.386 150.828 239.257C153.345 239.051 153.726 239.129 153.953 239.898C154.096 240.38 155.194 246.442 156.394 253.37C157.593 260.297 158.638 266.037 158.716 266.124C158.931 266.365 164.242 265.166 164.691 264.774C164.908 264.585 163.577 259.144 161.733 252.682C159.89 246.221 158.491 240.824 158.625 240.69C158.76 240.556 159.881 240.94 161.117 241.543C164.166 243.033 171.28 250.175 174.29 254.769C177.348 259.439 181.682 268.185 184.113 274.596L185.971 279.494L185.985 276.426C186.026 267.858 188.264 254.292 190.98 246.152C197.148 227.666 208.135 215.617 223.537 210.449C237.478 205.772 255.083 206.721 274.329 213.188C278.373 214.546 281.68 215.618 281.68 215.569C281.68 215.52 280.125 214.289 278.224 212.834C274.016 209.613 266.356 201.738 263.423 197.618C260.48 193.485 257.611 187.637 256.449 183.403C255.53 180.054 255.019 173.268 255.639 172.648C255.799 172.489 259.045 174.647 262.854 177.445C271.829 184.039 291.554 198.306 292.269 198.721C292.621 198.925 293.625 197.805 295.009 195.667L297.194 192.292L296.134 191.576C295.551 191.182 286.547 185.966 276.125 179.985C265.704 174.005 256.975 168.911 256.728 168.667C256.157 168.103 257.393 164.687 259.412 161.249C261.505 157.683 267.167 152.133 271.94 148.968C279.156 144.183 289.544 139.767 299.611 137.204C301.943 136.61 303.535 136.03 303.15 135.914C302.765 135.799 300.455 135.335 298.016 134.884C280.444 131.634 266.368 122.945 261.208 112.164C258.856 107.249 258.156 103.93 258.177 97.7936C258.209 88.4016 260.937 78.7661 267.02 66.5696C269.14 62.3189 272.353 56.5847 274.16 53.8263C275.967 51.0684 277.345 48.8115 277.222 48.8115C277.1 48.8115 275.795 49.7935 274.323 50.9933C266.059 57.729 254.914 63.0503 245.225 64.8874C240.321 65.8171 232.208 65.8064 227.636 64.8636C223.574 64.0263 217.646 61.8785 217.452 61.1736C217.381 60.9171 226.17 54.6194 236.983 47.1787C247.796 39.7381 256.715 33.4297 256.801 33.1596C256.937 32.7393 248.359 22.2212 247.88 22.2212C247.786 22.2212 241.446 28.7811 233.792 36.7992C226.137 44.8173 218.263 53.0389 216.294 55.0695L212.713 58.7623L210.441 56.6038L208.17 54.4458L217.559 44.9811C231.499 30.9288 237.344 24.8952 237.312 24.5915C237.296 24.4427 234.771 22.3724 231.7 19.9918L226.118 15.6632L224.731 17.8926C223.968 19.1185 219.3 26.7066 214.357 34.7541C209.414 42.8021 205.159 49.3937 204.903 49.403C204.143 49.4301 201.067 42.81 199.967 38.7818C199.406 36.7292 198.662 33.1605 198.311 30.8514C197.461 25.2385 197.497 12.3786 198.383 5.62142C198.776 2.62325 199.024 0.0962412 198.934 0.00527445C198.843 -0.0852258 198.403 0.999847 197.956 2.4166ZM110.345 22.0304C118.144 38.3498 129.123 48.9318 141.551 52.1087C146.376 53.3421 153.778 53.3295 158.738 52.0798C169.158 49.4539 178.833 41.8392 186.51 30.2221C189.713 25.3743 194.21 16.6951 195.325 13.2099C196.207 10.4501 196.294 11.3901 195.533 15.4743C195.152 17.5175 194.72 22.7577 194.573 27.1194C194.186 38.57 195.51 45.6897 199.41 53.1396L201.065 56.302L197.882 61.5366C196.131 64.4158 194.386 67.2964 194.004 67.9378C193.622 68.5793 195.603 66.8626 198.406 64.1224L203.502 59.1406L205.958 61.3271L208.413 63.5136L203.741 68.1659C201.171 70.7251 199.069 72.9704 199.069 73.156C199.069 73.3417 201.799 71.5998 205.136 69.2846L211.204 65.0749L214.348 66.3321C224.188 70.2666 236.256 70.3198 248.776 66.4847C253.793 64.9476 263.06 60.7258 267.219 58.0826C268.627 57.1879 270.084 56.2712 270.458 56.0459C270.831 55.8206 269.815 57.1968 268.2 59.1047C264.259 63.758 258.31 72.6928 255.723 77.8397C254.565 80.1451 252.867 84.2656 251.95 86.997C249.881 93.1627 249.336 100.321 250.572 105.129C251.99 110.65 255.61 116.356 260.637 120.994C266.896 126.77 277.89 132.73 288.803 136.265L291.959 137.287L286.003 138.114C270.866 140.215 259.926 144.687 253.533 151.386C250.867 154.179 248.339 158.67 247.79 161.587C247.633 162.421 247.311 163.103 247.075 163.103C246.701 163.103 237.111 157.722 232.79 155.088C229.379 153.009 231.711 154.922 239.142 160.298L247.01 165.99L247.297 169.561C248.11 179.682 254.117 191.184 264.811 203.091L268.505 207.205L263.248 204.603C257.24 201.631 248.319 198.541 242.217 197.318C235.935 196.059 223.931 196.168 218.905 197.529C199.352 202.822 186.445 221.639 183.689 248.871C183.419 251.528 183.193 254.887 183.184 256.335L183.168 258.968L181.164 254.07C174.068 236.724 164.897 225.72 155.848 223.696L153.341 223.135L152.195 219.36C151.565 217.283 150.475 213.54 149.772 211.041C149.07 208.542 148.437 206.556 148.366 206.627C148.296 206.697 148.854 210.211 149.607 214.435C150.36 218.659 150.981 222.377 150.986 222.698C150.991 223.019 150.463 223.281 149.813 223.281C149.164 223.281 147.354 223.711 145.792 224.237C144.23 224.763 142.888 225.13 142.81 225.052C142.567 224.809 141.664 214.312 141.655 211.619C141.649 209.789 141.516 209.254 141.194 209.753C140.945 210.137 140.738 214.056 140.734 218.46L140.727 226.467L138.464 228.127C130.476 233.988 123.494 246.868 118.964 264.099C118.713 265.054 118.501 263.276 118.296 258.501C117.75 245.794 115.357 237.146 110.341 229.747C105.965 223.292 98.4002 219.549 89.7293 219.549C79.9073 219.549 67.7695 224.696 57.5546 233.193C56.0662 234.431 54.848 235.351 54.848 235.237C54.848 235.123 55.4939 233.594 56.2841 231.838C58.3998 227.134 61.1573 218.907 62.3764 213.66C63.2627 209.845 63.4508 207.687 63.469 201.108L63.4909 193.164L69.5543 184.423C72.8891 179.616 75.9056 175.266 76.258 174.757C76.6103 174.249 76.7994 173.832 76.6789 173.832C76.5585 173.832 73.3502 177.611 69.5501 182.229C65.7499 186.848 62.4879 190.626 62.3012 190.626C62.115 190.626 61.6978 189.988 61.3743 189.208C60.5767 187.283 57.534 184.769 54.9259 183.881C47.8017 181.455 36.3187 183.222 21.4766 189.027C20.9632 189.228 22.2336 188.111 24.3003 186.546C29.131 182.887 36.7373 174.989 39.6521 170.608C44.0296 164.027 46.6839 157.645 48.0813 150.345C51.0142 135.024 44.6685 125.145 28.4477 119.779C24.1995 118.374 17.0095 116.965 13.5766 116.864L11.6752 116.809L14.0088 116.438C15.2924 116.235 18.5478 115.835 21.2432 115.551C38.4904 113.731 51.0651 108.231 55.4435 100.593C60.909 91.0574 54.5693 74.7953 38.6215 57.4417C37.4426 56.1588 35.9378 54.5083 35.2783 53.7745L34.0784 52.4399L37.422 54.1099C48.2754 59.5316 61.4392 63.8359 71.8315 65.3618C74.6263 65.7719 77.3567 66.3438 77.899 66.6316C78.4409 66.9199 82.1402 69.237 86.1191 71.7803C94.1268 76.8997 94.1469 76.8694 86.8192 70.7214C83.9955 68.3525 81.6151 66.2323 81.5297 66.0098C81.4438 65.7873 82.1043 65.6053 82.9971 65.6053C85.8932 65.6053 90.575 63.8289 93.5303 61.6084C96.2752 59.546 100.121 55.2552 100.121 54.255C100.121 52.327 101.306 56.1565 103.661 65.6991C105.162 71.7799 106.461 76.6846 106.547 76.5988C106.633 76.5125 106.382 74.1613 105.99 71.3736C105.598 68.5858 104.751 62.5801 104.107 58.0276L102.937 49.7501L104.337 45.5735C107.052 37.4756 107.798 27.1712 106.417 16.8565C105.539 10.3027 105.566 10.1464 106.906 13.9787C107.518 15.7318 109.066 19.3546 110.345 22.0304Z" fill="white"/>
<path d="M110.345 22.0304C118.144 38.3498 129.123 48.9318 141.551 52.1087C146.376 53.3421 153.778 53.3295 158.738 52.0798C169.158 49.4539 178.833 41.8392 186.51 30.2221C189.713 25.3743 194.21 16.6951 195.325 13.2099C196.207 10.4501 196.294 11.3901 195.533 15.4743C195.152 17.5175 194.72 22.7577 194.573 27.1194C194.186 38.57 195.51 45.6897 199.41 53.1396L201.065 56.302L197.882 61.5366C196.131 64.4158 194.386 67.2964 194.004 67.9378C193.622 68.5793 195.603 66.8626 198.406 64.1224L203.502 59.1406L205.958 61.3271L208.413 63.5136L203.741 68.1659C201.171 70.7251 199.069 72.9704 199.069 73.156C199.069 73.3417 201.799 71.5998 205.136 69.2846L211.204 65.0749L214.348 66.3321C224.188 70.2666 236.256 70.3198 248.776 66.4847C253.793 64.9476 263.06 60.7258 267.219 58.0826C268.627 57.1879 270.084 56.2712 270.458 56.0459C270.831 55.8206 269.815 57.1968 268.2 59.1047C264.259 63.758 258.31 72.6928 255.723 77.8397C254.565 80.1451 252.867 84.2656 251.95 86.997C249.881 93.1627 249.336 100.321 250.572 105.129C251.99 110.65 255.61 116.356 260.637 120.994C266.896 126.77 277.89 132.73 288.803 136.265L291.959 137.287L286.003 138.114C270.866 140.215 259.926 144.687 253.533 151.386C250.867 154.179 248.339 158.67 247.79 161.587C247.633 162.421 247.311 163.103 247.075 163.103C246.701 163.103 237.111 157.722 232.79 155.088C229.379 153.009 231.711 154.922 239.142 160.298L247.01 165.99L247.297 169.561C248.11 179.682 254.117 191.184 264.811 203.091L268.505 207.205L263.248 204.603C257.24 201.631 248.319 198.541 242.217 197.318C235.935 196.059 223.931 196.168 218.905 197.529C199.352 202.822 186.445 221.639 183.689 248.871C183.419 251.528 183.193 254.887 183.184 256.335L183.168 258.968L181.164 254.07C174.068 236.724 164.897 225.72 155.848 223.696L153.341 223.135L152.195 219.36C151.565 217.283 150.475 213.54 149.772 211.041C149.07 208.542 148.437 206.556 148.366 206.627C148.296 206.697 148.854 210.211 149.607 214.435C150.36 218.659 150.981 222.377 150.986 222.698C150.991 223.019 150.463 223.281 149.813 223.281C149.164 223.281 147.354 223.711 145.792 224.237C144.23 224.763 142.888 225.13 142.81 225.052C142.567 224.809 141.664 214.312 141.655 211.619C141.649 209.789 141.516 209.254 141.194 209.753C140.945 210.137 140.738 214.056 140.734 218.46L140.727 226.467L138.464 228.127C130.476 233.988 123.494 246.868 118.964 264.099C118.713 265.054 118.501 263.276 118.296 258.501C117.75 245.794 115.357 237.146 110.341 229.747C105.965 223.292 98.4002 219.549 89.7293 219.549C79.9073 219.549 67.7695 224.696 57.5546 233.193C56.0662 234.431 54.848 235.351 54.848 235.237C54.848 235.123 55.4939 233.594 56.2841 231.838C58.3998 227.134 61.1573 218.907 62.3764 213.66C63.2627 209.845 63.4508 207.687 63.469 201.108L63.4909 193.164L69.5543 184.423C72.8891 179.616 75.9056 175.266 76.258 174.757C76.6103 174.249 76.7994 173.832 76.6789 173.832C76.5585 173.832 73.3502 177.611 69.5501 182.229C65.7499 186.848 62.4879 190.626 62.3012 190.626C62.115 190.626 61.6978 189.988 61.3743 189.208C60.5767 187.283 57.534 184.769 54.9259 183.881C47.8017 181.455 36.3187 183.222 21.4766 189.027C20.9632 189.228 22.2336 188.111 24.3003 186.546C29.131 182.887 36.7373 174.989 39.6521 170.608C44.0296 164.027 46.6839 157.645 48.0813 150.345C51.0142 135.024 44.6685 125.145 28.4477 119.779C24.1995 118.374 17.0095 116.965 13.5766 116.864L11.6752 116.809L14.0088 116.438C15.2924 116.235 18.5478 115.835 21.2432 115.551C38.4904 113.731 51.0651 108.231 55.4435 100.593C60.909 91.0574 54.5693 74.7953 38.6215 57.4417C37.4426 56.1588 35.9378 54.5083 35.2783 53.7745L34.0784 52.4399L37.422 54.1099C48.2754 59.5316 61.4392 63.8359 71.8315 65.3618C74.6263 65.7719 77.3567 66.3438 77.899 66.6316C78.4409 66.9199 82.1402 69.237 86.1191 71.7803C94.1268 76.8997 94.1469 76.8694 86.8192 70.7214C83.9955 68.3525 81.6151 66.2323 81.5297 66.0098C81.4438 65.7873 82.1043 65.6053 82.9971 65.6053C85.8932 65.6053 90.575 63.8289 93.5303 61.6084C96.2752 59.546 100.121 55.2552 100.121 54.255C100.121 52.327 101.306 56.1565 103.661 65.6991C105.162 71.7799 106.461 76.6846 106.547 76.5988C106.633 76.5125 106.382 74.1613 105.99 71.3736C105.598 68.5858 104.751 62.5801 104.107 58.0276L102.937 49.7501L104.337 45.5735C107.052 37.4756 107.798 27.1712 106.417 16.8565C105.539 10.3027 105.566 10.1464 106.906 13.9787C107.518 15.7318 109.066 19.3546 110.345 22.0304Z" fill="white"/>
<path fill-rule="evenodd" clip-rule="evenodd" d="M197.956 2.4166C196.747 6.24933 192.928 14.6794 190.415 19.0621C186.778 25.4041 183.239 30.1391 178.78 34.6277C172.287 41.1637 165.982 44.9214 158.463 46.736C153.616 47.906 145.909 47.8174 141.06 46.5359C125.759 42.4923 113.037 27.9545 104.474 4.72761L102.926 0.52915L103.274 4.02787C103.465 5.95217 103.616 12.1449 103.608 17.7895C103.597 25.9294 103.418 28.8725 102.742 32.0176C101.609 37.2886 101.258 37.8027 100.873 34.755C100.208 29.4939 96.3265 1.9473 96.2421 1.89552C96.1935 1.86566 94.3686 2.18055 92.1866 2.59526C88.8971 3.22083 88.2432 3.4886 88.358 4.16269C88.4346 4.60959 90.6921 13.7958 93.3754 24.5761C96.0586 35.3568 98.2542 44.5472 98.2542 44.9998C98.2542 46.445 93.7329 52.7664 90.6133 55.683C87.1426 58.9279 83.4489 60.8419 79.2791 61.5557C76.8026 61.9797 76.2323 61.9443 75.5219 61.3229C73.3946 59.4625 45.5651 36.3033 45.1441 36.043C44.5126 35.653 39.6133 42.2693 40.235 42.6729C40.4955 42.8417 47.3499 47.1787 55.4673 52.3102C63.5848 57.4417 70.2315 61.76 70.238 61.9065C70.2446 62.053 68.8327 62.0063 67.0997 61.8025C57.5625 60.6796 45.1483 56.581 33.3251 50.6509C30.7968 49.3825 28.6194 48.345 28.4869 48.345C28.3539 48.345 30.0392 50.6014 32.2315 53.3598C45.104 69.5547 51.3419 84.2456 49.7363 94.5869C49.04 99.0736 47.672 101.742 44.3605 105.076C37.6829 111.798 26.6148 115.046 7.70794 115.831L0.00684357 116.15L3.27398 116.707C8.38937 117.579 15.4072 119.624 19.8425 121.535C33.2942 127.332 40.3793 136.86 40.3793 149.155C40.3793 167.115 29.6341 183.134 10.7417 193.338C8.68808 194.448 7.53291 195.228 8.17467 195.073C26.4949 190.644 39.4318 190.524 47.7798 194.708C50.1783 195.909 53.9145 199.51 53.9145 200.619C53.9145 201.111 50.8453 204.87 28.9443 231.206C19.071 243.079 16.5759 246.176 16.5759 246.561C16.5759 247.05 22.5225 251.396 22.9519 251.22C23.1671 251.132 25.7397 247.591 28.6689 243.351C31.5977 239.112 35.086 234.069 36.4209 232.144C37.7553 230.22 41.765 224.439 45.3308 219.298C48.8967 214.157 52.5493 208.862 53.4478 207.531C54.3462 206.2 55.2237 205.106 55.3978 205.1C55.97 205.078 56.3789 210.292 56.0816 213.811C55.2176 224.023 49.7335 236.666 40.8147 249.005L38.5749 252.103L42.8753 249.402C60.5799 238.28 78.7466 233.042 90.7864 235.589C100.737 237.694 107.772 244.544 111.92 256.169C114.258 262.72 115.973 273.718 116.009 282.391L116.028 286.958L117.376 281.826C121.459 266.278 128.289 253.081 135.79 246.247C137.274 244.895 138.921 243.557 139.45 243.275L140.412 242.76L140.092 259.983L139.772 277.207L142.933 277.013C144.672 276.907 146.182 276.739 146.288 276.641C146.395 276.542 145.918 269.062 145.228 260.018C144.539 250.974 143.979 242.925 143.984 242.131C143.993 240.842 144.205 240.625 145.978 240.09C147.068 239.761 149.251 239.386 150.828 239.257C153.345 239.051 153.726 239.129 153.953 239.898C154.096 240.38 155.194 246.442 156.394 253.37C157.593 260.297 158.638 266.037 158.716 266.124C158.931 266.365 164.242 265.166 164.691 264.774C164.908 264.585 163.577 259.144 161.733 252.682C159.89 246.221 158.491 240.824 158.625 240.69C158.76 240.556 159.881 240.94 161.117 241.543C164.166 243.033 171.28 250.175 174.29 254.769C177.348 259.439 181.682 268.185 184.113 274.596L185.971 279.494L185.985 276.426C186.026 267.858 188.264 254.292 190.98 246.152C197.148 227.666 208.135 215.617 223.537 210.449C237.478 205.772 255.083 206.721 274.329 213.188C278.373 214.546 281.68 215.618 281.68 215.569C281.68 215.52 280.125 214.289 278.224 212.834C274.016 209.613 266.356 201.738 263.423 197.618C260.48 193.485 257.611 187.637 256.449 183.403C255.53 180.054 255.019 173.268 255.639 172.648C255.799 172.489 259.045 174.647 262.854 177.445C271.829 184.039 291.554 198.306 292.269 198.721C292.621 198.925 293.625 197.805 295.009 195.667L297.194 192.292L296.134 191.576C295.551 191.182 286.547 185.966 276.125 179.985C265.704 174.005 256.975 168.911 256.728 168.667C256.157 168.103 257.393 164.687 259.412 161.249C261.505 157.683 267.167 152.133 271.94 148.968C279.156 144.183 289.544 139.767 299.611 137.204C301.943 136.61 303.535 136.03 303.15 135.914C302.765 135.799 300.455 135.335 298.016 134.884C280.444 131.634 266.368 122.945 261.208 112.164C258.856 107.249 258.156 103.93 258.177 97.7936C258.209 88.4016 260.937 78.7661 267.02 66.5696C269.14 62.3189 272.353 56.5847 274.16 53.8263C275.967 51.0684 277.345 48.8115 277.222 48.8115C277.1 48.8115 275.795 49.7935 274.323 50.9933C266.059 57.729 254.914 63.0503 245.225 64.8874C240.321 65.8171 232.208 65.8064 227.636 64.8636C223.574 64.0263 217.646 61.8785 217.452 61.1736C217.381 60.9171 226.17 54.6194 236.983 47.1787C247.796 39.7381 256.715 33.4297 256.801 33.1596C256.937 32.7393 248.359 22.2212 247.88 22.2212C247.786 22.2212 241.446 28.7811 233.792 36.7992C226.137 44.8173 218.263 53.0389 216.294 55.0695L212.713 58.7623L210.441 56.6038L208.17 54.4458L217.559 44.9811C231.499 30.9288 237.344 24.8952 237.312 24.5915C237.296 24.4427 234.771 22.3724 231.7 19.9918L226.118 15.6632L224.731 17.8926C223.968 19.1185 219.3 26.7066 214.357 34.7541C209.414 42.8021 205.159 49.3937 204.903 49.403C204.143 49.4301 201.067 42.81 199.967 38.7818C199.406 36.7292 198.662 33.1605 198.311 30.8514C197.461 25.2385 197.497 12.3786 198.383 5.62142C198.776 2.62325 199.024 0.0962412 198.934 0.00527445C198.843 -0.0852258 198.403 0.999847 197.956 2.4166ZM110.345 22.0304C118.144 38.3498 129.123 48.9318 141.551 52.1087C146.376 53.3421 153.778 53.3295 158.738 52.0798C169.158 49.4539 178.833 41.8392 186.51 30.2221C189.713 25.3743 194.21 16.6951 195.325 13.2099C196.207 10.4501 196.294 11.3901 195.533 15.4743C195.152 17.5175 194.72 22.7577 194.573 27.1194C194.186 38.57 195.51 45.6897 199.41 53.1396L201.065 56.302L197.882 61.5366C196.131 64.4158 194.386 67.2964 194.004 67.9378C193.622 68.5793 195.603 66.8626 198.406 64.1224L203.502 59.1406L205.958 61.3271L208.413 63.5136L203.741 68.1659C201.171 70.7251 199.069 72.9704 199.069 73.156C199.069 73.3417 201.799 71.5998 205.136 69.2846L211.204 65.0749L214.348 66.3321C224.188 70.2666 236.256 70.3198 248.776 66.4847C253.793 64.9476 263.06 60.7258 267.219 58.0826C268.627 57.1879 270.084 56.2712 270.458 56.0459C270.831 55.8206 269.815 57.1968 268.2 59.1047C264.259 63.758 258.31 72.6928 255.723 77.8397C254.565 80.1451 252.867 84.2656 251.95 86.997C249.881 93.1627 249.336 100.321 250.572 105.129C251.99 110.65 255.61 116.356 260.637 120.994C266.896 126.77 277.89 132.73 288.803 136.265L291.959 137.287L286.003 138.114C270.866 140.215 259.926 144.687 253.533 151.386C250.867 154.179 248.339 158.67 247.79 161.587C247.633 162.421 247.311 163.103 247.075 163.103C246.701 163.103 237.111 157.722 232.79 155.088C229.379 153.009 231.711 154.922 239.142 160.298L247.01 165.99L247.297 169.561C248.11 179.682 254.117 191.184 264.811 203.091L268.505 207.205L263.248 204.603C257.24 201.631 248.319 198.541 242.217 197.318C235.935 196.059 223.931 196.168 218.905 197.529C199.352 202.822 186.445 221.639 183.689 248.871C183.419 251.528 183.193 254.887 183.184 256.335L183.168 258.968L181.164 254.07C174.068 236.724 164.897 225.72 155.848 223.696L153.341 223.135L152.195 219.36C151.565 217.283 150.475 213.54 149.772 211.041C149.07 208.542 148.437 206.556 148.366 206.627C148.296 206.697 148.854 210.211 149.607 214.435C150.36 218.659 150.981 222.377 150.986 222.698C150.991 223.019 150.463 223.281 149.813 223.281C149.164 223.281 147.354 223.711 145.792 224.237C144.23 224.763 142.888 225.13 142.81 225.052C142.567 224.809 141.664 214.312 141.655 211.619C141.649 209.789 141.516 209.254 141.194 209.753C140.945 210.137 140.738 214.056 140.734 218.46L140.727 226.467L138.464 228.127C130.476 233.988 123.494 246.868 118.964 264.099C118.713 265.054 118.501 263.276 118.296 258.501C117.75 245.794 115.357 237.146 110.341 229.747C105.965 223.292 98.4002 219.549 89.7293 219.549C79.9073 219.549 67.7695 224.696 57.5546 233.193C56.0662 234.431 54.848 235.351 54.848 235.237C54.848 235.123 55.4939 233.594 56.2841 231.838C58.3998 227.134 61.1573 218.907 62.3764 213.66C63.2627 209.845 63.4508 207.687 63.469 201.108L63.4909 193.164L69.5543 184.423C72.8891 179.616 75.9056 175.266 76.258 174.757C76.6103 174.249 76.7994 173.832 76.6789 173.832C76.5585 173.832 73.3502 177.611 69.5501 182.229C65.7499 186.848 62.4879 190.626 62.3012 190.626C62.115 190.626 61.6978 189.988 61.3743 189.208C60.5767 187.283 57.534 184.769 54.9259 183.881C47.8017 181.455 36.3187 183.222 21.4766 189.027C20.9632 189.228 22.2336 188.111 24.3003 186.546C29.131 182.887 36.7373 174.989 39.6521 170.608C44.0296 164.027 46.6839 157.645 48.0813 150.345C51.0142 135.024 44.6685 125.145 28.4477 119.779C24.1995 118.374 17.0095 116.965 13.5766 116.864L11.6752 116.809L14.0088 116.438C15.2924 116.235 18.5478 115.835 21.2432 115.551C38.4904 113.731 51.0651 108.231 55.4435 100.593C60.909 91.0574 54.5693 74.7953 38.6215 57.4417C37.4426 56.1588 35.9378 54.5083 35.2783 53.7745L34.0784 52.4399L37.422 54.1099C48.2754 59.5316 61.4392 63.8359 71.8315 65.3618C74.6263 65.7719 77.3567 66.3438 77.899 66.6316C78.4409 66.9199 82.1402 69.237 86.1191 71.7803C94.1268 76.8997 94.1469 76.8694 86.8192 70.7214C83.9955 68.3525 81.6151 66.2323 81.5297 66.0098C81.4438 65.7873 82.1043 65.6053 82.9971 65.6053C85.8932 65.6053 90.575 63.8289 93.5303 61.6084C96.2752 59.546 100.121 55.2552 100.121 54.255C100.121 52.327 101.306 56.1565 103.661 65.6991C105.162 71.7799 106.461 76.6846 106.547 76.5988C106.633 76.5125 106.382 74.1613 105.99 71.3736C105.598 68.5858 104.751 62.5801 104.107 58.0276L102.937 49.7501L104.337 45.5735C107.052 37.4756 107.798 27.1712 106.417 16.8565C105.539 10.3027 105.566 10.1464 106.906 13.9787C107.518 15.7318 109.066 19.3546 110.345 22.0304Z" fill="#242424"/>
</svg>
