<svg width="113" height="107" viewBox="0 0 113 107" fill="none" xmlns="http://www.w3.org/2000/svg">
<path fill-rule="evenodd" clip-rule="evenodd" d="M41.625 8.3125C35.925 8.3125 35.2916 11.4792 35.6875 13.0625C36.0833 23.3542 37.1125 44.4125 38.0625 46.3125C39.25 48.6875 39.25 51.0625 44 49.875C48.75 48.6875 64.1875 36.8125 66.5625 35.625C68.9375 34.4375 74.875 32.0625 74.875 28.5C74.875 24.9375 54.6875 13.0625 52.3125 11.875C50.4125 10.925 44.3958 9.10417 41.625 8.3125ZM44 41.5625C42.8125 41.5625 41.625 20.1875 45.1875 19C52.7084 22.9583 67.0375 31.1125 64.1875 32.0625C60.625 33.25 45.1875 41.5625 44 41.5625Z" fill="#FF4B4B"/>
<path d="M21.62 69.908C20.2093 69.5707 18.6607 69.402 16.974 69.402C13.938 69.402 11.178 69.8927 8.694 70.874C6.118 71.886 4.83 73.0513 4.83 74.37C4.83 75.5967 6.19467 77.13 8.924 78.97C11.4387 80.5953 13.9533 82.2207 16.468 83.846C19.1053 85.87 20.3473 87.7407 20.194 89.458C20.102 90.6233 18.6913 91.6967 15.962 92.678C13.2327 93.6287 10.35 94.104 7.314 94.104C5.53533 94.104 3.97133 93.92 2.622 93.552L3.726 91.436C4.89133 91.896 6.24067 92.126 7.774 92.126C9.95133 92.126 11.8833 91.712 13.57 90.884C15.2873 90.056 16.0693 89.0593 15.916 87.894C15.7933 87.0353 14.4593 85.7473 11.914 84.03C9.55267 82.4353 7.19133 80.8407 4.83 79.246C2.22333 77.314 0.828 75.704 0.644 74.416C0.337333 72.3 2.53 70.2453 7.222 68.252C11.5153 66.4733 16.2533 65.3387 21.436 64.848L21.62 69.908ZM47.1263 60.984L45.1943 64.756C42.4956 64.94 38.0643 65.63 31.9003 66.826C31.195 72.162 30.8423 78.2953 30.8423 85.226C30.8423 87.434 30.8883 89.4273 30.9803 91.206L26.9783 94.334C27.101 90.2247 28.021 81.2087 29.7383 67.286C28.2356 67.7767 25.9816 68.5127 22.9763 69.494L23.7583 67.286C25.169 66.5807 28.4656 65.4767 33.6483 63.974C39.5976 62.2567 44.0903 61.26 47.1263 60.984ZM56.8481 95.576L55.7441 96.496L53.0301 86.192L43.2781 84.674L39.0001 93.736L35.0901 90.792L50.4541 63.928L56.8481 95.576ZM52.7541 84.812L50.0401 72.208L43.7841 83.34L52.7541 84.812ZM73.5716 67.884C73.357 70.2147 72.6823 72.0393 71.5476 73.358C70.9956 74.0327 69.5083 75.198 67.0856 76.854L73.3876 95.254L69.9836 96.818L65.7516 77.682L62.5316 78.51L61.7496 90.746L60.3236 89.642L60.6916 67.102L58.5296 67.47L58.2076 64.618C59.8636 64.2193 61.5656 64.02 63.3136 64.02C66.0736 64.02 68.527 64.4493 70.6736 65.308C72.6976 66.136 73.6636 66.9947 73.5716 67.884ZM70.4896 69.402C70.3976 68.666 69.907 68.0373 69.0176 67.516C68.1283 66.9947 67.0703 66.734 65.8436 66.734C65.077 66.734 64.3103 66.8567 63.5436 67.102L62.5316 76.716C64.3716 76.5933 66.1963 75.6733 68.0056 73.956C69.815 72.208 70.643 70.69 70.4896 69.402ZM98.9399 60.984L97.0079 64.756C94.3092 64.94 89.8779 65.63 83.7139 66.826C83.0086 72.162 82.6559 78.2953 82.6559 85.226C82.6559 87.434 82.7019 89.4273 82.7939 91.206L78.7919 94.334C78.9146 90.2247 79.8346 81.2087 81.5519 67.286C80.0492 67.7767 77.7952 68.5127 74.7899 69.494L75.5719 67.286C76.9826 66.5807 80.2792 65.4767 85.4619 63.974C91.4112 62.2567 95.9039 61.26 98.9399 60.984ZM112.467 58.592C111.915 64.0813 110.381 71.656 107.867 81.316L106.625 81.5C107.023 76.2253 107.223 70.69 107.223 64.894C107.223 62.6247 107.177 60.7847 107.085 59.374L112.467 58.592ZM108.971 85.364C108.971 86.468 108.603 87.5567 107.867 88.63C107.131 89.6727 106.395 90.194 105.659 90.194C105.168 90.194 104.754 89.9487 104.417 89.458C104.11 88.9367 103.957 88.3387 103.957 87.664C103.957 86.7133 104.263 85.8087 104.877 84.95C105.674 83.8153 106.533 83.248 107.453 83.248C108.465 83.248 108.971 83.9533 108.971 85.364Z" fill="#FF4B4B"/>
</svg>
