<svg width="128" height="73" viewBox="0 0 128 73" fill="none" xmlns="http://www.w3.org/2000/svg">
<path fill-rule="evenodd" clip-rule="evenodd" d="M71.3212 4.06169C71.0283 4.99028 70.103 7.0327 69.4941 8.09454C68.6129 9.63108 67.7555 10.7783 66.6751 11.8658C65.1021 13.4493 63.5746 14.3597 61.7527 14.7994C60.5784 15.0828 58.7111 15.0613 57.5364 14.7509C53.8294 13.7712 50.7472 10.249 48.6725 4.6216L48.2974 3.6044L48.3817 4.45206C48.428 4.91828 48.4644 6.41865 48.4626 7.78622C48.46 9.75834 48.4166 10.4714 48.2529 11.2334C47.9784 12.5104 47.8933 12.635 47.8 11.8966C47.6389 10.6219 46.6985 3.94799 46.678 3.93544C46.6662 3.92821 46.2241 4.0045 45.6954 4.10497C44.8985 4.25654 44.74 4.32141 44.7679 4.48473C44.7864 4.593 45.3334 6.81864 45.9835 9.43046C46.6336 12.0424 47.1655 14.2691 47.1655 14.3787C47.1655 14.7288 46.0701 16.2604 45.3143 16.967C44.4734 17.7532 43.5785 18.2169 42.5682 18.3898C41.9682 18.4926 41.83 18.484 41.6579 18.3334C41.1425 17.8827 34.4 12.2717 34.298 12.2087C34.145 12.1142 32.958 13.7172 33.1087 13.8149C33.1718 13.8558 34.8325 14.9066 36.7991 16.1499C38.7658 17.3931 40.3762 18.4393 40.3778 18.4748C40.3793 18.5103 40.0373 18.499 39.6174 18.4496C37.3068 18.1776 34.2991 17.1846 31.4345 15.7478C30.822 15.4405 30.2945 15.1892 30.2623 15.1892C30.2301 15.1892 30.6384 15.7359 31.1696 16.4042C34.2883 20.3278 35.7996 23.8871 35.4106 26.3926C35.2419 27.4797 34.9105 28.1262 34.1082 28.934C32.4904 30.5626 29.8088 31.3494 25.228 31.5395L23.3622 31.6169L24.1538 31.7519C25.3931 31.9631 27.0934 32.4585 28.168 32.9217C31.4271 34.326 33.1436 36.6346 33.1436 39.6133C33.1436 43.9647 30.5403 47.8457 25.9631 50.318C25.4655 50.5868 25.1856 50.7759 25.3411 50.7383C29.7797 49.6651 32.9141 49.6362 34.9366 50.6498C35.5177 50.9409 36.4229 51.8132 36.4229 52.082C36.4229 52.2011 35.6793 53.1119 30.3732 59.4926C27.9811 62.369 27.3766 63.1195 27.3766 63.2126C27.3766 63.3313 28.8173 64.3842 28.9213 64.3416C28.9735 64.3202 29.5968 63.4623 30.3064 62.4351C31.016 61.408 31.8612 60.1861 32.1846 59.7199C32.5079 59.2537 33.4793 57.8531 34.3433 56.6075C35.2072 55.3619 36.0922 54.079 36.3098 53.7566C36.5275 53.4342 36.7401 53.1691 36.7823 53.1676C36.9209 53.1622 37.02 54.4255 36.9479 55.2781C36.7386 57.7523 35.41 60.8154 33.2491 63.8047L32.7064 64.5555L33.7484 63.901C38.0378 61.2064 42.4392 59.9375 45.3562 60.5546C47.7671 61.0645 49.4714 62.7241 50.4765 65.5405C51.0429 67.1278 51.4583 69.7923 51.4671 71.8936L51.4718 73L51.7982 71.7568C52.7876 67.9897 54.4423 64.7924 56.2597 63.1367C56.6192 62.8091 57.0182 62.485 57.1463 62.4165L57.3794 62.2917L57.3019 66.4647L57.2245 70.6376L57.9902 70.5907C58.4115 70.5649 58.7773 70.5242 58.8032 70.5004C58.8291 70.4765 58.7135 68.6642 58.5464 66.473C58.3792 64.2818 58.2435 62.3317 58.2449 62.1395C58.2471 61.8272 58.2984 61.7746 58.7279 61.645C58.9921 61.5652 59.521 61.4743 59.903 61.443C60.5127 61.3932 60.6052 61.4122 60.6602 61.5985C60.6947 61.7153 60.9607 63.184 61.2515 64.8624C61.5421 66.5408 61.7953 67.9313 61.8141 67.9523C61.8663 68.0109 63.153 67.7203 63.2618 67.6255C63.3144 67.5796 62.9919 66.2613 62.5451 64.6958C62.0984 63.1303 61.7595 61.8229 61.7921 61.7903C61.8247 61.7578 62.0963 61.8508 62.3957 61.9971C63.1346 62.3579 64.8581 64.0883 65.5873 65.2015C66.3283 66.3327 67.3782 68.4518 67.9673 70.0049L68.4174 71.1916L68.4209 70.4484C68.4308 68.3725 68.973 65.0858 69.631 63.1136C71.1253 58.6348 73.7874 55.7156 77.519 54.4636C80.8964 53.3304 85.1617 53.5604 89.8248 55.1271C90.8044 55.4563 91.6058 55.7159 91.6058 55.704C91.6058 55.6921 91.2289 55.394 90.7683 55.0413C89.749 54.261 87.8931 52.3531 87.1824 51.3549C86.4695 50.3535 85.7744 48.9368 85.4928 47.9109C85.27 47.0995 85.1462 45.4555 85.2965 45.3053C85.3352 45.2666 86.1217 45.7896 87.0445 46.4675C89.219 48.0651 93.998 51.5215 94.1713 51.6221C94.2565 51.6715 94.4997 51.4002 94.835 50.8822L95.3643 50.0644L95.1075 49.8909C94.9663 49.7955 92.7848 48.5318 90.2599 47.0829C87.7349 45.6338 85.6201 44.3999 85.5604 44.3407C85.4221 44.2041 85.7215 43.3763 86.2105 42.5435C86.7177 41.6795 88.0894 40.3348 89.2459 39.5681C90.9942 38.4088 93.511 37.3388 95.9501 36.7177C96.5149 36.574 96.9007 36.4334 96.8074 36.4053C96.7141 36.3774 96.1544 36.2651 95.5635 36.1558C91.3063 35.3683 87.8958 33.2631 86.6459 30.6512C86.0759 29.4603 85.9063 28.6563 85.9114 27.1695C85.9191 24.894 86.5802 22.5596 88.0539 19.6046C88.5675 18.5747 89.3459 17.1855 89.7837 16.5172C90.2215 15.849 90.5555 15.3022 90.5257 15.3022C90.4961 15.3022 90.1799 15.5401 89.8232 15.8308C87.821 17.4627 85.1209 18.752 82.7733 19.197C81.5853 19.4223 79.6198 19.4197 78.512 19.1913C77.5278 18.9884 76.0916 18.4681 76.0445 18.2973C76.0275 18.2351 78.1569 16.7093 80.7766 14.9066C83.3964 13.1039 85.5571 11.5755 85.5782 11.5101C85.611 11.4082 83.5327 8.85993 83.4168 8.85993C83.3939 8.85993 81.8578 10.4492 80.0033 12.3919C78.1488 14.3345 76.2412 16.3264 75.764 16.8184L74.8964 17.7131L74.3461 17.1901L73.7957 16.6673L76.0704 14.3742C79.4478 10.9696 80.864 9.50777 80.8562 9.43419C80.8523 9.39814 80.2406 8.89655 79.4966 8.31979L78.1441 7.27106L77.8081 7.81119C77.6234 8.10822 76.4923 9.94664 75.2947 11.8964C74.0971 13.8462 73.0664 15.4432 73.0042 15.4455C72.8201 15.4521 72.0748 13.8482 71.8083 12.8722C71.6725 12.3749 71.4921 11.5103 71.4073 10.9508C71.2011 9.59096 71.2099 6.47527 71.4247 4.83815C71.5199 4.11175 71.5799 3.49951 71.558 3.47747C71.5359 3.45555 71.4294 3.71844 71.3212 4.06169ZM50.0948 8.8137C51.9845 12.7676 54.6443 15.3314 57.6554 16.101C58.8243 16.3999 60.6178 16.3968 61.8195 16.094C64.344 15.4578 66.6881 13.613 68.5479 10.7984C69.324 9.62385 70.4136 7.52107 70.6837 6.67668C70.8975 6.00804 70.9184 6.23578 70.734 7.22529C70.6417 7.72033 70.5371 8.9899 70.5015 10.0467C70.4079 12.8209 70.7286 14.5458 71.6733 16.3508L72.0744 17.117L71.3032 18.3852C70.8791 19.0828 70.4563 19.7807 70.3636 19.9361C70.271 20.0915 70.7509 19.6756 71.4301 19.0117L72.6649 17.8047L73.2598 18.3345L73.8546 18.8642L72.7227 19.9914C72.1001 20.6114 71.5907 21.1554 71.5907 21.2004C71.5907 21.2453 72.2522 20.8233 73.0608 20.2624L74.5308 19.2425L75.2927 19.5471C77.6765 20.5003 80.6004 20.5132 83.6336 19.584C84.8493 19.2116 87.0944 18.1888 88.102 17.5484C88.4432 17.3316 88.7963 17.1095 88.8868 17.0549C88.9772 17.0003 88.731 17.3338 88.3397 17.796C87.3851 18.9234 85.9436 21.0881 85.3169 22.3351C85.0363 22.8937 84.625 23.892 84.4028 24.5537C83.9014 26.0475 83.7695 27.7818 84.0688 28.9468C84.4123 30.2843 85.2895 31.6669 86.5073 32.7906C88.024 34.1899 90.6874 35.6339 93.3315 36.4903L94.096 36.738L92.653 36.9384C88.9856 37.4474 86.3352 38.5307 84.7864 40.1537C84.1405 40.8306 83.5279 41.9187 83.3949 42.6253C83.3568 42.8274 83.2789 42.9926 83.2217 42.9926C83.1311 42.9926 80.8074 41.6889 79.7607 41.0508C78.9343 40.547 79.4992 41.0104 81.2996 42.3129L83.206 43.6921L83.2754 44.5573C83.4723 47.0094 84.9278 49.796 87.5187 52.6809L88.4137 53.6775L87.14 53.0473C85.6843 52.3271 83.5229 51.5785 82.0445 51.2822C80.5227 50.9772 77.6144 51.0035 76.3966 51.3332C71.6593 52.6157 68.5322 57.1748 67.8645 63.7724C67.7992 64.4162 67.7443 65.23 67.7421 65.5808L67.7383 66.2187L67.2528 65.0319C65.5336 60.8293 63.3116 58.1634 61.1193 57.6731L60.5118 57.5371L60.2342 56.6224C60.0815 56.1192 59.8174 55.2124 59.6472 54.607C59.477 54.0015 59.3238 53.5203 59.3066 53.5375C59.2895 53.5545 59.4248 54.4058 59.6073 55.4292C59.7897 56.4527 59.9401 57.3536 59.9412 57.4312C59.9425 57.509 59.8147 57.5725 59.6572 57.5725C59.4997 57.5725 59.0613 57.6767 58.6829 57.8042C58.3044 57.9315 57.9793 58.0205 57.9605 58.0016C57.9015 57.9426 57.6828 55.3994 57.6805 54.7469C57.6791 54.3038 57.6469 54.174 57.5688 54.2948C57.5085 54.3881 57.4584 55.3373 57.4574 56.4044L57.4557 58.3444L56.9074 58.7467C54.9722 60.1666 53.2805 63.2872 52.1831 67.4619C52.1222 67.6933 52.0708 67.2624 52.0211 66.1056C51.8888 63.0268 51.3092 60.9316 50.0939 59.139C49.0336 57.5751 47.2009 56.6683 45.1001 56.6683C42.7204 56.6683 39.7797 57.9153 37.3048 59.9739C36.9442 60.2738 36.6491 60.4967 36.6491 60.4692C36.6491 60.4417 36.8056 60.0711 36.997 59.6456C37.5096 58.506 38.1777 56.5127 38.4731 55.2415C38.6878 54.3172 38.7334 53.7945 38.7378 52.2005L38.7431 50.2759L40.2121 48.1581C41.0201 46.9933 41.7509 45.9394 41.8363 45.8161C41.9216 45.6929 41.9674 45.5921 41.9383 45.5921C41.9091 45.5921 41.1318 46.5076 40.2111 47.6265C39.2904 48.7454 38.5001 49.6609 38.4548 49.6609C38.4097 49.6609 38.3086 49.5063 38.2303 49.3173C38.037 48.8509 37.2999 48.2419 36.668 48.0267C34.9419 47.4389 32.1598 47.8669 28.5639 49.2735C28.4395 49.3221 28.7473 49.0516 29.248 48.6724C30.4184 47.7858 32.2613 45.8724 32.9674 44.8109C34.028 43.2164 34.6711 41.6704 35.0097 39.9017C35.7202 36.1897 34.1828 33.7962 30.2528 32.4961C29.2236 32.1557 27.4816 31.8143 26.6499 31.79L26.1892 31.7765L26.7546 31.6868C27.0656 31.6374 27.8543 31.5406 28.5073 31.4717C32.686 31.0308 35.7326 29.6983 36.7934 27.8477C38.1175 25.5375 36.5816 21.5975 32.7178 17.3931C32.4321 17.0823 32.0675 16.6824 31.9078 16.5046L31.617 16.1813L32.4271 16.5859C35.0567 17.8994 38.246 18.9423 40.7638 19.312C41.4409 19.4113 42.1025 19.5499 42.2339 19.6196C42.3651 19.6895 43.2614 20.2509 44.2254 20.8671C46.1655 22.1074 46.1704 22.1 44.395 20.6105C43.7109 20.0366 43.1342 19.5229 43.1135 19.469C43.0927 19.4151 43.2527 19.371 43.469 19.371C44.1707 19.371 45.305 18.9406 46.021 18.4026C46.686 17.9029 47.6178 16.8634 47.6178 16.621C47.6178 16.1539 47.9048 17.0817 48.4755 19.3937C48.8392 20.8669 49.1538 22.0553 49.1747 22.0345C49.1955 22.0136 49.1348 21.4439 49.0398 20.7685C48.9448 20.0931 48.7395 18.638 48.5836 17.5351L48.3001 15.5296L48.6392 14.5177C49.2969 12.5558 49.4777 10.0592 49.1431 7.56017C48.9305 5.97233 48.9369 5.93446 49.2615 6.86294C49.41 7.28768 49.785 8.16541 50.0948 8.8137Z" fill="white"/>
<path d="M50.0948 8.8137C51.9845 12.7676 54.6443 15.3314 57.6554 16.101C58.8243 16.3999 60.6178 16.3968 61.8195 16.094C64.344 15.4578 66.6881 13.613 68.5479 10.7984C69.324 9.62385 70.4136 7.52107 70.6837 6.67668C70.8975 6.00804 70.9184 6.23578 70.734 7.22529C70.6417 7.72033 70.5371 8.9899 70.5015 10.0467C70.4079 12.8209 70.7286 14.5458 71.6733 16.3508L72.0744 17.117L71.3032 18.3852C70.8791 19.0828 70.4563 19.7807 70.3636 19.9361C70.271 20.0915 70.7509 19.6756 71.4301 19.0117L72.6649 17.8047L73.2598 18.3345L73.8546 18.8642L72.7227 19.9914C72.1001 20.6114 71.5907 21.1554 71.5907 21.2004C71.5907 21.2453 72.2522 20.8233 73.0608 20.2624L74.5308 19.2425L75.2927 19.5471C77.6765 20.5003 80.6004 20.5132 83.6336 19.584C84.8493 19.2116 87.0944 18.1888 88.102 17.5484C88.4432 17.3316 88.7963 17.1095 88.8868 17.0549C88.9772 17.0003 88.731 17.3338 88.3397 17.796C87.3851 18.9234 85.9436 21.0881 85.3169 22.3351C85.0363 22.8937 84.625 23.892 84.4028 24.5537C83.9014 26.0475 83.7695 27.7818 84.0688 28.9468C84.4123 30.2843 85.2895 31.6669 86.5073 32.7906C88.024 34.1899 90.6874 35.6339 93.3315 36.4903L94.096 36.738L92.653 36.9384C88.9856 37.4474 86.3352 38.5307 84.7864 40.1537C84.1405 40.8306 83.5279 41.9187 83.3949 42.6253C83.3568 42.8274 83.2789 42.9926 83.2217 42.9926C83.1311 42.9926 80.8074 41.6889 79.7607 41.0508C78.9343 40.547 79.4992 41.0104 81.2996 42.3129L83.206 43.6921L83.2754 44.5573C83.4723 47.0094 84.9278 49.796 87.5187 52.6809L88.4137 53.6775L87.14 53.0473C85.6843 52.3271 83.5229 51.5785 82.0445 51.2822C80.5227 50.9772 77.6144 51.0035 76.3966 51.3332C71.6593 52.6157 68.5322 57.1748 67.8645 63.7724C67.7992 64.4162 67.7443 65.23 67.7421 65.5808L67.7383 66.2187L67.2528 65.0319C65.5336 60.8293 63.3116 58.1634 61.1193 57.6731L60.5118 57.5371L60.2342 56.6224C60.0815 56.1192 59.8174 55.2124 59.6472 54.607C59.477 54.0015 59.3238 53.5203 59.3066 53.5375C59.2895 53.5545 59.4248 54.4058 59.6073 55.4292C59.7897 56.4527 59.9401 57.3536 59.9412 57.4312C59.9425 57.509 59.8147 57.5725 59.6572 57.5725C59.4997 57.5725 59.0613 57.6767 58.6829 57.8042C58.3044 57.9315 57.9793 58.0205 57.9605 58.0016C57.9015 57.9426 57.6828 55.3994 57.6805 54.7469C57.6791 54.3038 57.6469 54.174 57.5688 54.2948C57.5085 54.3881 57.4584 55.3373 57.4574 56.4044L57.4557 58.3444L56.9074 58.7467C54.9722 60.1666 53.2805 63.2872 52.1831 67.4619C52.1222 67.6933 52.0708 67.2624 52.0211 66.1056C51.8888 63.0268 51.3092 60.9316 50.0939 59.139C49.0336 57.5751 47.2009 56.6683 45.1001 56.6683C42.7204 56.6683 39.7797 57.9153 37.3048 59.9739C36.9442 60.2738 36.6491 60.4967 36.6491 60.4692C36.6491 60.4417 36.8056 60.0711 36.997 59.6456C37.5096 58.506 38.1777 56.5127 38.4731 55.2415C38.6878 54.3172 38.7334 53.7945 38.7378 52.2005L38.7431 50.2759L40.2121 48.1581C41.0201 46.9933 41.7509 45.9394 41.8363 45.8161C41.9216 45.6929 41.9674 45.5921 41.9383 45.5921C41.9091 45.5921 41.1318 46.5076 40.2111 47.6265C39.2904 48.7454 38.5001 49.6609 38.4548 49.6609C38.4097 49.6609 38.3086 49.5063 38.2303 49.3173C38.037 48.8509 37.2999 48.2419 36.668 48.0267C34.9419 47.4389 32.1598 47.8669 28.5639 49.2735C28.4395 49.3221 28.7473 49.0516 29.248 48.6724C30.4184 47.7858 32.2613 45.8724 32.9674 44.8109C34.028 43.2164 34.6711 41.6704 35.0097 39.9017C35.7202 36.1897 34.1828 33.7962 30.2528 32.4961C29.2236 32.1557 27.4816 31.8143 26.6499 31.79L26.1892 31.7765L26.7546 31.6868C27.0656 31.6374 27.8543 31.5406 28.5073 31.4717C32.686 31.0308 35.7326 29.6983 36.7934 27.8477C38.1175 25.5375 36.5816 21.5975 32.7178 17.3931C32.4321 17.0823 32.0675 16.6824 31.9078 16.5046L31.617 16.1813L32.4271 16.5859C35.0567 17.8994 38.246 18.9423 40.7638 19.312C41.4409 19.4113 42.1025 19.5499 42.2339 19.6196C42.3651 19.6895 43.2614 20.2509 44.2254 20.8671C46.1655 22.1074 46.1704 22.1 44.395 20.6105C43.7109 20.0366 43.1342 19.5229 43.1135 19.469C43.0927 19.4151 43.2527 19.371 43.469 19.371C44.1707 19.371 45.305 18.9406 46.021 18.4026C46.686 17.9029 47.6178 16.8634 47.6178 16.621C47.6178 16.1539 47.9048 17.0817 48.4755 19.3937C48.8392 20.8669 49.1538 22.0553 49.1747 22.0345C49.1955 22.0136 49.1348 21.4439 49.0398 20.7685C48.9448 20.0931 48.7395 18.638 48.5836 17.5351L48.3001 15.5296L48.6392 14.5177C49.2969 12.5558 49.4777 10.0592 49.1431 7.56017C48.9305 5.97233 48.9369 5.93446 49.2615 6.86294C49.41 7.28768 49.785 8.16541 50.0948 8.8137Z" fill="white"/>
<path fill-rule="evenodd" clip-rule="evenodd" d="M71.3212 4.06169C71.0283 4.99028 70.103 7.0327 69.4941 8.09454C68.6129 9.63108 67.7555 10.7783 66.6751 11.8658C65.1021 13.4493 63.5746 14.3597 61.7527 14.7994C60.5784 15.0828 58.7111 15.0613 57.5364 14.7509C53.8294 13.7712 50.7472 10.249 48.6725 4.6216L48.2974 3.6044L48.3817 4.45206C48.428 4.91828 48.4644 6.41865 48.4626 7.78622C48.46 9.75834 48.4166 10.4714 48.2529 11.2334C47.9784 12.5104 47.8933 12.635 47.8 11.8966C47.6389 10.6219 46.6985 3.94799 46.678 3.93544C46.6662 3.92821 46.2241 4.0045 45.6954 4.10497C44.8985 4.25654 44.74 4.32141 44.7679 4.48473C44.7864 4.593 45.3334 6.81864 45.9835 9.43046C46.6336 12.0424 47.1655 14.2691 47.1655 14.3787C47.1655 14.7288 46.0701 16.2604 45.3143 16.967C44.4734 17.7532 43.5785 18.2169 42.5682 18.3898C41.9682 18.4926 41.83 18.484 41.6579 18.3334C41.1425 17.8827 34.4 12.2717 34.298 12.2087C34.145 12.1142 32.958 13.7172 33.1087 13.8149C33.1718 13.8558 34.8325 14.9066 36.7991 16.1499C38.7658 17.3931 40.3762 18.4393 40.3778 18.4748C40.3793 18.5103 40.0373 18.499 39.6174 18.4496C37.3068 18.1776 34.2991 17.1846 31.4345 15.7478C30.822 15.4405 30.2945 15.1892 30.2623 15.1892C30.2301 15.1892 30.6384 15.7359 31.1696 16.4042C34.2883 20.3278 35.7996 23.8871 35.4106 26.3926C35.2419 27.4797 34.9105 28.1262 34.1082 28.934C32.4904 30.5626 29.8088 31.3494 25.228 31.5395L23.3622 31.6169L24.1538 31.7519C25.3931 31.9631 27.0934 32.4585 28.168 32.9217C31.4271 34.326 33.1436 36.6346 33.1436 39.6133C33.1436 43.9647 30.5403 47.8457 25.9631 50.318C25.4655 50.5868 25.1856 50.7759 25.3411 50.7383C29.7797 49.6651 32.9141 49.6362 34.9366 50.6498C35.5177 50.9409 36.4229 51.8132 36.4229 52.082C36.4229 52.2011 35.6793 53.1119 30.3732 59.4926C27.9811 62.369 27.3766 63.1195 27.3766 63.2126C27.3766 63.3313 28.8173 64.3842 28.9213 64.3416C28.9735 64.3202 29.5968 63.4623 30.3064 62.4351C31.016 61.408 31.8612 60.1861 32.1846 59.7199C32.5079 59.2537 33.4793 57.8531 34.3433 56.6075C35.2072 55.3619 36.0922 54.079 36.3098 53.7566C36.5275 53.4342 36.7401 53.1691 36.7823 53.1676C36.9209 53.1622 37.02 54.4255 36.9479 55.2781C36.7386 57.7523 35.41 60.8154 33.2491 63.8047L32.7064 64.5555L33.7484 63.901C38.0378 61.2064 42.4392 59.9375 45.3562 60.5546C47.7671 61.0645 49.4714 62.7241 50.4765 65.5405C51.0429 67.1278 51.4583 69.7923 51.4671 71.8936L51.4718 73L51.7982 71.7568C52.7876 67.9897 54.4423 64.7924 56.2597 63.1367C56.6192 62.8091 57.0182 62.485 57.1463 62.4165L57.3794 62.2917L57.3019 66.4647L57.2245 70.6376L57.9902 70.5907C58.4115 70.5649 58.7773 70.5242 58.8032 70.5004C58.8291 70.4765 58.7135 68.6642 58.5464 66.473C58.3792 64.2818 58.2435 62.3317 58.2449 62.1395C58.2471 61.8272 58.2984 61.7746 58.7279 61.645C58.9921 61.5652 59.521 61.4743 59.903 61.443C60.5127 61.3932 60.6052 61.4122 60.6602 61.5985C60.6947 61.7153 60.9607 63.184 61.2515 64.8624C61.5421 66.5408 61.7953 67.9313 61.8141 67.9523C61.8663 68.0109 63.153 67.7203 63.2618 67.6255C63.3144 67.5796 62.9919 66.2613 62.5451 64.6958C62.0984 63.1303 61.7595 61.8229 61.7921 61.7903C61.8247 61.7578 62.0963 61.8508 62.3957 61.9971C63.1346 62.3579 64.8581 64.0883 65.5873 65.2015C66.3283 66.3327 67.3782 68.4518 67.9673 70.0049L68.4174 71.1916L68.4209 70.4484C68.4308 68.3725 68.973 65.0858 69.631 63.1136C71.1253 58.6348 73.7874 55.7156 77.519 54.4636C80.8964 53.3304 85.1617 53.5604 89.8248 55.1271C90.8044 55.4563 91.6058 55.7159 91.6058 55.704C91.6058 55.6921 91.2289 55.394 90.7683 55.0413C89.749 54.261 87.8931 52.3531 87.1824 51.3549C86.4695 50.3535 85.7744 48.9368 85.4928 47.9109C85.27 47.0995 85.1462 45.4555 85.2965 45.3053C85.3352 45.2666 86.1217 45.7896 87.0445 46.4675C89.219 48.0651 93.998 51.5215 94.1713 51.6221C94.2565 51.6715 94.4997 51.4002 94.835 50.8822L95.3643 50.0644L95.1075 49.8909C94.9663 49.7955 92.7848 48.5318 90.2599 47.0829C87.7349 45.6338 85.6201 44.3999 85.5604 44.3407C85.4221 44.2041 85.7215 43.3763 86.2105 42.5435C86.7177 41.6795 88.0894 40.3348 89.2459 39.5681C90.9942 38.4088 93.511 37.3388 95.9501 36.7177C96.5149 36.574 96.9007 36.4334 96.8074 36.4053C96.7141 36.3774 96.1544 36.2651 95.5635 36.1558C91.3063 35.3683 87.8958 33.2631 86.6459 30.6512C86.0759 29.4603 85.9063 28.6563 85.9114 27.1695C85.9191 24.894 86.5802 22.5596 88.0539 19.6046C88.5675 18.5747 89.3459 17.1855 89.7837 16.5172C90.2215 15.849 90.5555 15.3022 90.5257 15.3022C90.4961 15.3022 90.1799 15.5401 89.8232 15.8308C87.821 17.4627 85.1209 18.752 82.7733 19.197C81.5853 19.4223 79.6198 19.4197 78.512 19.1913C77.5278 18.9884 76.0916 18.4681 76.0445 18.2973C76.0275 18.2351 78.1569 16.7093 80.7766 14.9066C83.3964 13.1039 85.5571 11.5755 85.5782 11.5101C85.611 11.4082 83.5327 8.85993 83.4168 8.85993C83.3939 8.85993 81.8578 10.4492 80.0033 12.3919C78.1488 14.3345 76.2412 16.3264 75.764 16.8184L74.8964 17.7131L74.3461 17.1901L73.7957 16.6673L76.0704 14.3742C79.4478 10.9696 80.864 9.50777 80.8562 9.43419C80.8523 9.39814 80.2406 8.89655 79.4966 8.31979L78.1441 7.27106L77.8081 7.81119C77.6234 8.10822 76.4923 9.94664 75.2947 11.8964C74.0971 13.8462 73.0664 15.4432 73.0042 15.4455C72.8201 15.4521 72.0748 13.8482 71.8083 12.8722C71.6725 12.3749 71.4921 11.5103 71.4073 10.9508C71.2011 9.59096 71.2099 6.47527 71.4247 4.83815C71.5199 4.11175 71.5799 3.49951 71.558 3.47747C71.5359 3.45555 71.4294 3.71844 71.3212 4.06169ZM50.0948 8.8137C51.9845 12.7676 54.6443 15.3314 57.6554 16.101C58.8243 16.3999 60.6178 16.3968 61.8195 16.094C64.344 15.4578 66.6881 13.613 68.5479 10.7984C69.324 9.62385 70.4136 7.52107 70.6837 6.67668C70.8975 6.00804 70.9184 6.23578 70.734 7.22529C70.6417 7.72033 70.5371 8.9899 70.5015 10.0467C70.4079 12.8209 70.7286 14.5458 71.6733 16.3508L72.0744 17.117L71.3032 18.3852C70.8791 19.0828 70.4563 19.7807 70.3636 19.9361C70.271 20.0915 70.7509 19.6756 71.4301 19.0117L72.6649 17.8047L73.2598 18.3345L73.8546 18.8642L72.7227 19.9914C72.1001 20.6114 71.5907 21.1554 71.5907 21.2004C71.5907 21.2453 72.2522 20.8233 73.0608 20.2624L74.5308 19.2425L75.2927 19.5471C77.6765 20.5003 80.6004 20.5132 83.6336 19.584C84.8493 19.2116 87.0944 18.1888 88.102 17.5484C88.4432 17.3316 88.7963 17.1095 88.8868 17.0549C88.9772 17.0003 88.731 17.3338 88.3397 17.796C87.3851 18.9234 85.9436 21.0881 85.3169 22.3351C85.0363 22.8937 84.625 23.892 84.4028 24.5537C83.9014 26.0475 83.7695 27.7818 84.0688 28.9468C84.4123 30.2843 85.2895 31.6669 86.5073 32.7906C88.024 34.1899 90.6874 35.6339 93.3315 36.4903L94.096 36.738L92.653 36.9384C88.9856 37.4474 86.3352 38.5307 84.7864 40.1537C84.1405 40.8306 83.5279 41.9187 83.3949 42.6253C83.3568 42.8274 83.2789 42.9926 83.2217 42.9926C83.1311 42.9926 80.8074 41.6889 79.7607 41.0508C78.9343 40.547 79.4992 41.0104 81.2996 42.3129L83.206 43.6921L83.2754 44.5573C83.4723 47.0094 84.9278 49.796 87.5187 52.6809L88.4137 53.6775L87.14 53.0473C85.6843 52.3271 83.5229 51.5785 82.0445 51.2822C80.5227 50.9772 77.6144 51.0035 76.3966 51.3332C71.6593 52.6157 68.5322 57.1748 67.8645 63.7724C67.7992 64.4162 67.7443 65.23 67.7421 65.5808L67.7383 66.2187L67.2528 65.0319C65.5336 60.8293 63.3116 58.1634 61.1193 57.6731L60.5118 57.5371L60.2342 56.6224C60.0815 56.1192 59.8174 55.2124 59.6472 54.607C59.477 54.0015 59.3238 53.5203 59.3066 53.5375C59.2895 53.5545 59.4248 54.4058 59.6073 55.4292C59.7897 56.4527 59.9401 57.3536 59.9412 57.4312C59.9425 57.509 59.8147 57.5725 59.6572 57.5725C59.4997 57.5725 59.0613 57.6767 58.6829 57.8042C58.3044 57.9315 57.9793 58.0205 57.9605 58.0016C57.9015 57.9426 57.6828 55.3994 57.6805 54.7469C57.6791 54.3038 57.6469 54.174 57.5688 54.2948C57.5085 54.3881 57.4584 55.3373 57.4574 56.4044L57.4557 58.3444L56.9074 58.7467C54.9722 60.1666 53.2805 63.2872 52.1831 67.4619C52.1222 67.6933 52.0708 67.2624 52.0211 66.1056C51.8888 63.0268 51.3092 60.9316 50.0939 59.139C49.0336 57.5751 47.2009 56.6683 45.1001 56.6683C42.7204 56.6683 39.7797 57.9153 37.3048 59.9739C36.9442 60.2738 36.6491 60.4967 36.6491 60.4692C36.6491 60.4417 36.8056 60.0711 36.997 59.6456C37.5096 58.506 38.1777 56.5127 38.4731 55.2415C38.6878 54.3172 38.7334 53.7945 38.7378 52.2005L38.7431 50.2759L40.2121 48.1581C41.0201 46.9933 41.7509 45.9394 41.8363 45.8161C41.9216 45.6929 41.9674 45.5921 41.9383 45.5921C41.9091 45.5921 41.1318 46.5076 40.2111 47.6265C39.2904 48.7454 38.5001 49.6609 38.4548 49.6609C38.4097 49.6609 38.3086 49.5063 38.2303 49.3173C38.037 48.8509 37.2999 48.2419 36.668 48.0267C34.9419 47.4389 32.1598 47.8669 28.5639 49.2735C28.4395 49.3221 28.7473 49.0516 29.248 48.6724C30.4184 47.7858 32.2613 45.8724 32.9674 44.8109C34.028 43.2164 34.6711 41.6704 35.0097 39.9017C35.7202 36.1897 34.1828 33.7962 30.2528 32.4961C29.2236 32.1557 27.4816 31.8143 26.6499 31.79L26.1892 31.7765L26.7546 31.6868C27.0656 31.6374 27.8543 31.5406 28.5073 31.4717C32.686 31.0308 35.7326 29.6983 36.7934 27.8477C38.1175 25.5375 36.5816 21.5975 32.7178 17.3931C32.4321 17.0823 32.0675 16.6824 31.9078 16.5046L31.617 16.1813L32.4271 16.5859C35.0567 17.8994 38.246 18.9423 40.7638 19.312C41.4409 19.4113 42.1025 19.5499 42.2339 19.6196C42.3651 19.6895 43.2614 20.2509 44.2254 20.8671C46.1655 22.1074 46.1704 22.1 44.395 20.6105C43.7109 20.0366 43.1342 19.5229 43.1135 19.469C43.0927 19.4151 43.2527 19.371 43.469 19.371C44.1707 19.371 45.305 18.9406 46.021 18.4026C46.686 17.9029 47.6178 16.8634 47.6178 16.621C47.6178 16.1539 47.9048 17.0817 48.4755 19.3937C48.8392 20.8669 49.1538 22.0553 49.1747 22.0345C49.1955 22.0136 49.1348 21.4439 49.0398 20.7685C48.9448 20.0931 48.7395 18.638 48.5836 17.5351L48.3001 15.5296L48.6392 14.5177C49.2969 12.5558 49.4777 10.0592 49.1431 7.56017C48.9305 5.97233 48.9369 5.93446 49.2615 6.86294C49.41 7.28768 49.785 8.16541 50.0948 8.8137Z" fill="#242424"/>
<mask id="path-3-outside-1" maskUnits="userSpaceOnUse" x="-0.44949" y="-2.19196" width="109.774" height="61.6905" fill="black">
<rect fill="white" x="-0.44949" y="-2.19196" width="109.774" height="61.6905"/>
<path fill-rule="evenodd" clip-rule="evenodd" d="M2.70229 28.3949C3.38908 30.5999 3.4216 30.6435 4.15272 30.3539C4.56407 30.1911 5.20453 30.0522 5.57616 30.045C6.22775 30.0329 6.35416 30.3626 9.17432 39.4341C10.782 44.6054 12.4922 50.3225 12.9753 52.1391C13.7905 55.2061 13.9115 55.4635 14.6682 55.7389C15.1163 55.9021 15.5886 56.0075 15.7176 55.9729C15.8467 55.9383 15.0866 52.5313 14.0287 48.4013L12.1054 40.8926L13.3873 40.1196C14.0922 39.6941 15.1834 39.043 15.812 38.6721C17.664 37.5792 20.7619 34.7678 21.5161 33.4949C22.7141 31.4728 21.7202 29.4454 18.7982 27.9501C15.5418 26.2841 10.343 25.4254 6.03249 25.8415C4.99745 25.9415 3.66677 26.0495 3.07505 26.0813L2 26.1394L2.70229 28.3949ZM94.6651 2.3863C93.8499 2.95249 92.7378 3.8034 92.1937 4.27711L91.2042 5.13882L92.9001 11.4677L94.5959 17.7966L92.1484 18.5417C88.9927 19.5025 88.864 19.5952 89.5464 20.4229C89.9569 20.9214 90.4225 21.0365 91.4935 20.9051C92.2675 20.8102 93.5495 20.6526 94.3422 20.5547L95.7836 20.377L96.3392 22.4504C96.6448 23.5908 97.328 25.7776 97.8573 27.3094C98.6303 29.5473 98.9054 30.0529 99.2554 29.8811C99.8636 29.5821 99.9453 28.9401 99.6925 26.4405C99.5718 25.2442 99.3942 23.3044 99.2984 22.1293L99.124 19.9928L100.191 19.9047C103.857 19.6021 103.487 19.7996 103.746 18.007C104.112 15.4624 104.066 15.4245 101.447 16.1262C100.162 16.4707 99.0224 16.6215 98.8602 16.4684C98.7006 16.3182 98.4869 15.2961 98.3849 14.1967C98.2833 13.0976 98.0735 11.1155 97.919 9.79199C97.7646 8.46845 97.5579 6.58811 97.4593 5.6136C96.9445 0.515152 97.0998 0.694582 94.6651 2.3863ZM76.8901 8.79991C76.0021 9.73171 75.5748 11.6416 75.9453 13.0241C76.4165 14.7826 79.7961 16.6135 81.6703 16.1259C82.7096 15.8554 84.3419 14.2711 84.9748 12.9186C85.6341 11.51 85.3204 9.89097 84.2851 9.36033C82.9606 8.6812 82.0273 9.46964 82.576 10.8037C82.743 11.2096 82.5903 11.7697 82.1539 12.3528C80.3467 14.7675 75.9596 12.559 77.4467 9.98326C77.7984 9.37417 78.3103 9.09009 79.7511 8.70402C81.63 8.20057 82.0002 7.74204 80.7611 7.4523C79.6721 7.19779 77.7941 7.85156 76.8901 8.79991ZM11.9756 28.552C15.3483 28.7246 17.8908 29.4765 19.1405 30.6703C19.8585 31.3565 19.9343 31.5668 19.7569 32.378C19.4275 33.8825 14.3947 38.1283 12.2635 38.6994L11.4133 38.9272L10.0897 33.9876L8.76616 29.0479L9.8007 28.7707C10.3697 28.6183 11.3482 28.5199 11.9756 28.552ZM37.7299 22.9638C37.5782 23.4683 37.9158 23.6429 39.2135 23.7303C40.487 23.8163 40.4811 23.8066 44.1719 31.5558C44.5757 32.4033 45.2577 33.8211 45.6879 34.7067C46.1181 35.5924 46.8153 37.0435 47.2372 37.9314C48.4946 40.5778 49.3606 42.1475 49.6417 42.2902C49.7875 42.364 50.3072 42.1126 50.7964 41.7316C51.6445 41.0712 51.6648 40.9639 51.2262 39.426C50.973 38.5389 50.4501 37.0358 50.0642 36.0859C49.2582 34.1028 49.2922 34.0086 51.2839 32.7149C53.215 31.4602 54.8344 30.0327 56.6306 28.0015C59.0866 25.2237 59.8635 23.3958 59.3705 21.5558C59.1323 20.667 57.275 19.5357 56.1177 19.5744C55.7074 19.5881 54.483 19.6164 53.3967 19.6374C52.3104 19.6582 50.1923 19.8396 48.6896 20.0407C45.1422 20.5151 37.8837 22.451 37.7299 22.9638ZM53.319 20.8379C55.3373 20.71 56.6187 21.1651 56.8687 22.0984C57.1475 23.1388 55.5177 24.9993 51.9793 27.6807C51.5563 28.0015 50.3857 28.4846 49.378 28.7546C47.726 29.1972 47.5139 29.1809 47.2179 28.5889C46.552 27.2571 45.1134 22.744 45.2689 22.4747C45.4846 22.1016 50.965 20.9872 53.319 20.8379ZM30.9112 28.9558C27.6105 31.1251 26.0548 34.5454 26.1286 39.4715C26.2031 44.4357 27.4837 47.4095 30.2393 49.0171C31.5763 49.7971 32.1095 49.9263 33.0039 49.6866C35.6099 48.9883 39.4632 44.3183 40.1701 41.0017C41.1074 36.6038 39.298 29.9645 37.0169 29.4315C36.1319 29.2246 34.6358 29.6314 33.8495 30.2931C33.2045 30.8359 31.8138 33.8295 32.1235 34.0086C32.2209 34.0646 32.629 33.6981 33.0303 33.1942C34.0325 31.9353 34.5111 31.8891 35.4247 32.9632C36.6521 34.4063 37.1018 35.562 37.0968 37.2602C37.0791 43.1154 33.3692 47.697 29.9706 46.0608C28.9203 45.5554 28.8918 45.4985 28.0331 42.195C27.2255 39.0895 27.1932 38.6703 27.5936 36.5129C28.0213 34.2081 29.0971 32.183 30.64 30.7789C31.562 29.9395 31.9877 29.2685 31.8719 28.8363C31.7779 28.4856 31.5916 28.5088 30.9112 28.9558ZM82.2949 19.2459L81.4036 20.0555L83.409 27.726C84.9585 33.6533 85.5121 35.407 85.8443 35.4417C86.4735 35.5077 86.9477 34.6805 86.8571 33.6744C86.8137 33.1913 86.7223 31.6199 86.654 30.1823C86.5709 28.4369 86.1329 26.0282 85.3357 22.9333C84.0087 17.7818 83.965 17.7287 82.2949 19.2459Z"/>
</mask>
<path fill-rule="evenodd" clip-rule="evenodd" d="M2.70229 28.3949C3.38908 30.5999 3.4216 30.6435 4.15272 30.3539C4.56407 30.1911 5.20453 30.0522 5.57616 30.045C6.22775 30.0329 6.35416 30.3626 9.17432 39.4341C10.782 44.6054 12.4922 50.3225 12.9753 52.1391C13.7905 55.2061 13.9115 55.4635 14.6682 55.7389C15.1163 55.9021 15.5886 56.0075 15.7176 55.9729C15.8467 55.9383 15.0866 52.5313 14.0287 48.4013L12.1054 40.8926L13.3873 40.1196C14.0922 39.6941 15.1834 39.043 15.812 38.6721C17.664 37.5792 20.7619 34.7678 21.5161 33.4949C22.7141 31.4728 21.7202 29.4454 18.7982 27.9501C15.5418 26.2841 10.343 25.4254 6.03249 25.8415C4.99745 25.9415 3.66677 26.0495 3.07505 26.0813L2 26.1394L2.70229 28.3949ZM94.6651 2.3863C93.8499 2.95249 92.7378 3.8034 92.1937 4.27711L91.2042 5.13882L92.9001 11.4677L94.5959 17.7966L92.1484 18.5417C88.9927 19.5025 88.864 19.5952 89.5464 20.4229C89.9569 20.9214 90.4225 21.0365 91.4935 20.9051C92.2675 20.8102 93.5495 20.6526 94.3422 20.5547L95.7836 20.377L96.3392 22.4504C96.6448 23.5908 97.328 25.7776 97.8573 27.3094C98.6303 29.5473 98.9054 30.0529 99.2554 29.8811C99.8636 29.5821 99.9453 28.9401 99.6925 26.4405C99.5718 25.2442 99.3942 23.3044 99.2984 22.1293L99.124 19.9928L100.191 19.9047C103.857 19.6021 103.487 19.7996 103.746 18.007C104.112 15.4624 104.066 15.4245 101.447 16.1262C100.162 16.4707 99.0224 16.6215 98.8602 16.4684C98.7006 16.3182 98.4869 15.2961 98.3849 14.1967C98.2833 13.0976 98.0735 11.1155 97.919 9.79199C97.7646 8.46845 97.5579 6.58811 97.4593 5.6136C96.9445 0.515152 97.0998 0.694582 94.6651 2.3863ZM76.8901 8.79991C76.0021 9.73171 75.5748 11.6416 75.9453 13.0241C76.4165 14.7826 79.7961 16.6135 81.6703 16.1259C82.7096 15.8554 84.3419 14.2711 84.9748 12.9186C85.6341 11.51 85.3204 9.89097 84.2851 9.36033C82.9606 8.6812 82.0273 9.46964 82.576 10.8037C82.743 11.2096 82.5903 11.7697 82.1539 12.3528C80.3467 14.7675 75.9596 12.559 77.4467 9.98326C77.7984 9.37417 78.3103 9.09009 79.7511 8.70402C81.63 8.20057 82.0002 7.74204 80.7611 7.4523C79.6721 7.19779 77.7941 7.85156 76.8901 8.79991ZM11.9756 28.552C15.3483 28.7246 17.8908 29.4765 19.1405 30.6703C19.8585 31.3565 19.9343 31.5668 19.7569 32.378C19.4275 33.8825 14.3947 38.1283 12.2635 38.6994L11.4133 38.9272L10.0897 33.9876L8.76616 29.0479L9.8007 28.7707C10.3697 28.6183 11.3482 28.5199 11.9756 28.552ZM37.7299 22.9638C37.5782 23.4683 37.9158 23.6429 39.2135 23.7303C40.487 23.8163 40.4811 23.8066 44.1719 31.5558C44.5757 32.4033 45.2577 33.8211 45.6879 34.7067C46.1181 35.5924 46.8153 37.0435 47.2372 37.9314C48.4946 40.5778 49.3606 42.1475 49.6417 42.2902C49.7875 42.364 50.3072 42.1126 50.7964 41.7316C51.6445 41.0712 51.6648 40.9639 51.2262 39.426C50.973 38.5389 50.4501 37.0358 50.0642 36.0859C49.2582 34.1028 49.2922 34.0086 51.2839 32.7149C53.215 31.4602 54.8344 30.0327 56.6306 28.0015C59.0866 25.2237 59.8635 23.3958 59.3705 21.5558C59.1323 20.667 57.275 19.5357 56.1177 19.5744C55.7074 19.5881 54.483 19.6164 53.3967 19.6374C52.3104 19.6582 50.1923 19.8396 48.6896 20.0407C45.1422 20.5151 37.8837 22.451 37.7299 22.9638ZM53.319 20.8379C55.3373 20.71 56.6187 21.1651 56.8687 22.0984C57.1475 23.1388 55.5177 24.9993 51.9793 27.6807C51.5563 28.0015 50.3857 28.4846 49.378 28.7546C47.726 29.1972 47.5139 29.1809 47.2179 28.5889C46.552 27.2571 45.1134 22.744 45.2689 22.4747C45.4846 22.1016 50.965 20.9872 53.319 20.8379ZM30.9112 28.9558C27.6105 31.1251 26.0548 34.5454 26.1286 39.4715C26.2031 44.4357 27.4837 47.4095 30.2393 49.0171C31.5763 49.7971 32.1095 49.9263 33.0039 49.6866C35.6099 48.9883 39.4632 44.3183 40.1701 41.0017C41.1074 36.6038 39.298 29.9645 37.0169 29.4315C36.1319 29.2246 34.6358 29.6314 33.8495 30.2931C33.2045 30.8359 31.8138 33.8295 32.1235 34.0086C32.2209 34.0646 32.629 33.6981 33.0303 33.1942C34.0325 31.9353 34.5111 31.8891 35.4247 32.9632C36.6521 34.4063 37.1018 35.562 37.0968 37.2602C37.0791 43.1154 33.3692 47.697 29.9706 46.0608C28.9203 45.5554 28.8918 45.4985 28.0331 42.195C27.2255 39.0895 27.1932 38.6703 27.5936 36.5129C28.0213 34.2081 29.0971 32.183 30.64 30.7789C31.562 29.9395 31.9877 29.2685 31.8719 28.8363C31.7779 28.4856 31.5916 28.5088 30.9112 28.9558ZM82.2949 19.2459L81.4036 20.0555L83.409 27.726C84.9585 33.6533 85.5121 35.407 85.8443 35.4417C86.4735 35.5077 86.9477 34.6805 86.8571 33.6744C86.8137 33.1913 86.7223 31.6199 86.654 30.1823C86.5709 28.4369 86.1329 26.0282 85.3357 22.9333C84.0087 17.7818 83.965 17.7287 82.2949 19.2459Z" fill="#32F900"/>
<path fill-rule="evenodd" clip-rule="evenodd" d="M2.70229 28.3949C3.38908 30.5999 3.4216 30.6435 4.15272 30.3539C4.56407 30.1911 5.20453 30.0522 5.57616 30.045C6.22775 30.0329 6.35416 30.3626 9.17432 39.4341C10.782 44.6054 12.4922 50.3225 12.9753 52.1391C13.7905 55.2061 13.9115 55.4635 14.6682 55.7389C15.1163 55.9021 15.5886 56.0075 15.7176 55.9729C15.8467 55.9383 15.0866 52.5313 14.0287 48.4013L12.1054 40.8926L13.3873 40.1196C14.0922 39.6941 15.1834 39.043 15.812 38.6721C17.664 37.5792 20.7619 34.7678 21.5161 33.4949C22.7141 31.4728 21.7202 29.4454 18.7982 27.9501C15.5418 26.2841 10.343 25.4254 6.03249 25.8415C4.99745 25.9415 3.66677 26.0495 3.07505 26.0813L2 26.1394L2.70229 28.3949ZM94.6651 2.3863C93.8499 2.95249 92.7378 3.8034 92.1937 4.27711L91.2042 5.13882L92.9001 11.4677L94.5959 17.7966L92.1484 18.5417C88.9927 19.5025 88.864 19.5952 89.5464 20.4229C89.9569 20.9214 90.4225 21.0365 91.4935 20.9051C92.2675 20.8102 93.5495 20.6526 94.3422 20.5547L95.7836 20.377L96.3392 22.4504C96.6448 23.5908 97.328 25.7776 97.8573 27.3094C98.6303 29.5473 98.9054 30.0529 99.2554 29.8811C99.8636 29.5821 99.9453 28.9401 99.6925 26.4405C99.5718 25.2442 99.3942 23.3044 99.2984 22.1293L99.124 19.9928L100.191 19.9047C103.857 19.6021 103.487 19.7996 103.746 18.007C104.112 15.4624 104.066 15.4245 101.447 16.1262C100.162 16.4707 99.0224 16.6215 98.8602 16.4684C98.7006 16.3182 98.4869 15.2961 98.3849 14.1967C98.2833 13.0976 98.0735 11.1155 97.919 9.79199C97.7646 8.46845 97.5579 6.58811 97.4593 5.6136C96.9445 0.515152 97.0998 0.694582 94.6651 2.3863ZM76.8901 8.79991C76.0021 9.73171 75.5748 11.6416 75.9453 13.0241C76.4165 14.7826 79.7961 16.6135 81.6703 16.1259C82.7096 15.8554 84.3419 14.2711 84.9748 12.9186C85.6341 11.51 85.3204 9.89097 84.2851 9.36033C82.9606 8.6812 82.0273 9.46964 82.576 10.8037C82.743 11.2096 82.5903 11.7697 82.1539 12.3528C80.3467 14.7675 75.9596 12.559 77.4467 9.98326C77.7984 9.37417 78.3103 9.09009 79.7511 8.70402C81.63 8.20057 82.0002 7.74204 80.7611 7.4523C79.6721 7.19779 77.7941 7.85156 76.8901 8.79991ZM11.9756 28.552C15.3483 28.7246 17.8908 29.4765 19.1405 30.6703C19.8585 31.3565 19.9343 31.5668 19.7569 32.378C19.4275 33.8825 14.3947 38.1283 12.2635 38.6994L11.4133 38.9272L10.0897 33.9876L8.76616 29.0479L9.8007 28.7707C10.3697 28.6183 11.3482 28.5199 11.9756 28.552ZM37.7299 22.9638C37.5782 23.4683 37.9158 23.6429 39.2135 23.7303C40.487 23.8163 40.4811 23.8066 44.1719 31.5558C44.5757 32.4033 45.2577 33.8211 45.6879 34.7067C46.1181 35.5924 46.8153 37.0435 47.2372 37.9314C48.4946 40.5778 49.3606 42.1475 49.6417 42.2902C49.7875 42.364 50.3072 42.1126 50.7964 41.7316C51.6445 41.0712 51.6648 40.9639 51.2262 39.426C50.973 38.5389 50.4501 37.0358 50.0642 36.0859C49.2582 34.1028 49.2922 34.0086 51.2839 32.7149C53.215 31.4602 54.8344 30.0327 56.6306 28.0015C59.0866 25.2237 59.8635 23.3958 59.3705 21.5558C59.1323 20.667 57.275 19.5357 56.1177 19.5744C55.7074 19.5881 54.483 19.6164 53.3967 19.6374C52.3104 19.6582 50.1923 19.8396 48.6896 20.0407C45.1422 20.5151 37.8837 22.451 37.7299 22.9638ZM53.319 20.8379C55.3373 20.71 56.6187 21.1651 56.8687 22.0984C57.1475 23.1388 55.5177 24.9993 51.9793 27.6807C51.5563 28.0015 50.3857 28.4846 49.378 28.7546C47.726 29.1972 47.5139 29.1809 47.2179 28.5889C46.552 27.2571 45.1134 22.744 45.2689 22.4747C45.4846 22.1016 50.965 20.9872 53.319 20.8379ZM30.9112 28.9558C27.6105 31.1251 26.0548 34.5454 26.1286 39.4715C26.2031 44.4357 27.4837 47.4095 30.2393 49.0171C31.5763 49.7971 32.1095 49.9263 33.0039 49.6866C35.6099 48.9883 39.4632 44.3183 40.1701 41.0017C41.1074 36.6038 39.298 29.9645 37.0169 29.4315C36.1319 29.2246 34.6358 29.6314 33.8495 30.2931C33.2045 30.8359 31.8138 33.8295 32.1235 34.0086C32.2209 34.0646 32.629 33.6981 33.0303 33.1942C34.0325 31.9353 34.5111 31.8891 35.4247 32.9632C36.6521 34.4063 37.1018 35.562 37.0968 37.2602C37.0791 43.1154 33.3692 47.697 29.9706 46.0608C28.9203 45.5554 28.8918 45.4985 28.0331 42.195C27.2255 39.0895 27.1932 38.6703 27.5936 36.5129C28.0213 34.2081 29.0971 32.183 30.64 30.7789C31.562 29.9395 31.9877 29.2685 31.8719 28.8363C31.7779 28.4856 31.5916 28.5088 30.9112 28.9558ZM82.2949 19.2459L81.4036 20.0555L83.409 27.726C84.9585 33.6533 85.5121 35.407 85.8443 35.4417C86.4735 35.5077 86.9477 34.6805 86.8571 33.6744C86.8137 33.1913 86.7223 31.6199 86.654 30.1823C86.5709 28.4369 86.1329 26.0282 85.3357 22.9333C84.0087 17.7818 83.965 17.7287 82.2949 19.2459Z" stroke="#242424" stroke-width="2" mask="url(#path-3-outside-1)"/>
<mask id="path-4-outside-2" maskUnits="userSpaceOnUse" x="56.1694" y="26.1325" width="72.2228" height="45.3527" fill="black">
<rect fill="white" x="56.1694" y="26.1325" width="72.2228" height="45.3527"/>
<path fill-rule="evenodd" clip-rule="evenodd" d="M64.7662 30.3362C64.4389 31.2612 63.1094 35.9787 61.8116 40.8197L59.4519 49.6212L65.8946 51.2088C69.438 52.082 72.4402 52.7657 72.5661 52.7285C72.6995 52.6888 73.2832 50.8382 73.9649 48.294C75.2662 43.4373 75.2694 43.6823 73.8936 42.5746C73.5185 42.2722 72.9044 41.7779 72.5291 41.4755C71.7277 40.8303 71.2414 40.1843 71.4264 40.0109C71.4986 39.9434 72.0873 38.3087 72.7347 36.3786C73.3823 34.4484 73.9801 32.6936 74.0635 32.479C74.2489 32.0008 73.7078 31.721 70.1216 30.4402C68.7337 29.9443 67.0946 29.3398 66.4795 29.0967L65.361 28.6548L64.7662 30.3362ZM111.749 42.6752C111.44 42.6906 110.886 42.6322 110.517 42.5453C109.27 42.2521 109.28 42.2287 106.486 52.0952L103.954 61.0354L104.556 61.1966C105.518 61.4543 105.864 61.3361 106.037 60.6904C106.224 59.9921 106.606 59.983 106.522 60.679C106.469 61.1169 106.571 61.1858 107.706 61.4774C108.389 61.6529 109.768 61.8941 110.77 62.0138C111.772 62.1333 113.049 62.2957 113.609 62.375C114.795 62.5428 114.91 62.4752 114.877 61.624C114.864 61.274 114.885 60.4028 114.925 59.6878C114.964 58.9729 115.01 57.6991 115.027 56.8571C115.044 56.0152 115.09 54.7413 115.129 54.0264C115.169 53.3115 115.197 52.5901 115.193 52.4235C115.186 52.1849 114.71 52.0105 112.948 51.6023L110.712 51.084L111.81 46.9858C113.001 42.5426 113.002 42.6122 111.749 42.6752ZM122.148 45.5195C122.056 45.646 121.015 49.4483 119.836 53.9688L117.691 62.1879L118.518 62.4754C119.048 62.6597 119.46 62.6816 119.666 62.5369C119.842 62.4127 120.328 61.4249 120.745 60.3419C121.162 59.2588 121.786 57.6569 122.132 56.7823C122.478 55.9076 123.094 54.3413 123.5 53.3014C125.123 49.1505 125.584 47.9947 125.936 47.1937L126.305 46.358L124.31 45.8236C122.904 45.4467 122.266 45.3571 122.148 45.5195ZM70.1435 34.5228C70.1773 34.8482 70.0442 35.9477 69.8478 36.9664C69.5609 38.4538 69.4291 38.821 69.1778 38.8317C69.0058 38.839 68.0379 38.6817 67.0267 38.482L65.1884 38.1191L65.8391 35.6906C66.197 34.3549 66.5683 33.217 66.6641 33.1622C66.7598 33.1072 67.568 33.2578 68.46 33.4968C70.0193 33.9146 70.0844 33.9543 70.1435 34.5228ZM89.2387 43.3017L88.1862 43.5147L86.4318 49.8432C85.4672 53.3237 84.7331 56.2489 84.8007 56.3435C84.8684 56.4382 85.588 56.6374 86.3997 56.7863L87.8757 57.0569L89.2155 52.4692L90.5554 47.8816L92.1426 48.2431L93.7297 48.6048L93.4759 50.0294C92.5964 54.966 92.3182 56.6896 92.3723 56.8674C92.4059 56.9782 93.1268 57.2547 93.9742 57.4818L95.515 57.8946L96.5082 53.6215L97.5015 49.3481L98.778 49.8489C99.48 50.1241 100.103 50.4006 100.162 50.4631C100.221 50.5256 99.777 52.6499 99.1747 55.1839C98.5725 57.7178 98.0597 60.1157 98.035 60.5123C97.9919 61.21 98.0159 61.2349 98.7757 61.2813C99.2076 61.3075 99.9472 61.3738 100.419 61.4282L101.278 61.5271L101.737 59.7816C101.989 58.8214 102.388 56.8506 102.622 55.402C102.857 53.9534 103.164 52.1559 103.304 51.4074C103.444 50.659 103.593 49.7341 103.634 49.3524L103.71 48.6583L100.009 47.6664L96.3069 46.6745L96.04 47.1526C95.6867 47.7854 95.4635 47.692 95.3311 46.8563C95.2712 46.4795 95.1085 46.0887 94.9693 45.9881C94.8301 45.8875 93.8571 45.6826 92.8066 45.533C91.7562 45.3833 90.7771 45.1744 90.6309 45.0686C90.461 44.9457 90.4451 44.5784 90.5868 44.0494C90.8462 43.0812 90.7076 43.0042 89.2387 43.3017ZM85.0909 43.78C85.0185 43.8215 84.1982 43.7567 83.2678 43.636C82.3375 43.5153 80.9483 43.3454 80.1808 43.258C79.4134 43.1707 78.2573 43.0273 77.6117 42.9394L76.4379 42.7797L76.2087 43.7076C76.0058 44.5302 75.7898 45.7143 74.7756 51.5681C74.6354 52.3769 74.582 53.1789 74.6569 53.35C74.7444 53.5502 75.3544 53.8115 76.3672 54.0829C77.2332 54.3147 79.1458 54.9431 80.6174 55.4794C82.4366 56.1423 83.3785 56.4057 83.5599 56.3017C83.7412 56.1977 83.9852 55.2832 84.3218 53.4448C84.5944 51.9578 85.11 49.212 85.4678 47.3428C86.0943 44.0708 86.1019 43.9401 85.6705 43.8245C85.4243 43.7585 85.1635 43.7386 85.0909 43.78ZM82.6427 48.0815C82.5272 48.951 82.244 50.3785 82.0132 51.2539L81.5937 52.8453L81.0305 52.677C80.7208 52.5846 79.8474 52.2215 79.0898 51.8706L77.7123 51.2326L78.0236 49.5686C78.1949 48.6536 78.3724 47.4952 78.4178 46.9945C78.496 46.1329 78.5351 46.0803 79.1463 46.0152C79.5017 45.9774 80.3571 46.014 81.0475 46.0966C81.7376 46.1791 82.3704 46.2077 82.4535 46.16C82.7836 45.9708 82.8429 46.5733 82.6427 48.0815ZM112.644 54.8762C112.734 54.9705 112.787 55.3156 112.763 55.6431C112.738 55.9706 112.715 56.9053 112.711 57.7205C112.707 58.5354 112.631 59.2434 112.543 59.2937C112.274 59.4481 109.24 59.0195 108.91 58.7807C108.646 58.5899 108.689 58.2232 109.195 56.3344C109.529 55.0854 109.908 54.0453 110.059 53.9586C110.323 53.8074 112.295 54.5074 112.644 54.8762ZM69.2018 43.78L70.302 44.2146L70.2949 46.1909C70.291 47.2777 70.2547 48.4717 70.2144 48.8441L70.141 49.5209L66.8971 48.5422C65.1129 48.0037 63.5469 47.4963 63.4166 47.4144C63.2447 47.3063 63.3584 46.5996 63.8321 44.8319C64.1908 43.4932 64.5637 42.3525 64.6607 42.2969C64.8319 42.1988 66.9553 42.8922 69.2018 43.78ZM115.665 66.3087C114.23 68.3094 114.179 68.072 116.233 68.9326C117.23 69.3507 118.133 69.6317 118.239 69.5569C118.344 69.4822 118.577 68.669 118.756 67.7497L119.082 66.0782L117.756 65.6598L116.431 65.2415L115.665 66.3087Z"/>
</mask>
<path fill-rule="evenodd" clip-rule="evenodd" d="M64.7662 30.3362C64.4389 31.2612 63.1094 35.9787 61.8116 40.8197L59.4519 49.6212L65.8946 51.2088C69.438 52.082 72.4402 52.7657 72.5661 52.7285C72.6995 52.6888 73.2832 50.8382 73.9649 48.294C75.2662 43.4373 75.2694 43.6823 73.8936 42.5746C73.5185 42.2722 72.9044 41.7779 72.5291 41.4755C71.7277 40.8303 71.2414 40.1843 71.4264 40.0109C71.4986 39.9434 72.0873 38.3087 72.7347 36.3786C73.3823 34.4484 73.9801 32.6936 74.0635 32.479C74.2489 32.0008 73.7078 31.721 70.1216 30.4402C68.7337 29.9443 67.0946 29.3398 66.4795 29.0967L65.361 28.6548L64.7662 30.3362ZM111.749 42.6752C111.44 42.6906 110.886 42.6322 110.517 42.5453C109.27 42.2521 109.28 42.2287 106.486 52.0952L103.954 61.0354L104.556 61.1966C105.518 61.4543 105.864 61.3361 106.037 60.6904C106.224 59.9921 106.606 59.983 106.522 60.679C106.469 61.1169 106.571 61.1858 107.706 61.4774C108.389 61.6529 109.768 61.8941 110.77 62.0138C111.772 62.1333 113.049 62.2957 113.609 62.375C114.795 62.5428 114.91 62.4752 114.877 61.624C114.864 61.274 114.885 60.4028 114.925 59.6878C114.964 58.9729 115.01 57.6991 115.027 56.8571C115.044 56.0152 115.09 54.7413 115.129 54.0264C115.169 53.3115 115.197 52.5901 115.193 52.4235C115.186 52.1849 114.71 52.0105 112.948 51.6023L110.712 51.084L111.81 46.9858C113.001 42.5426 113.002 42.6122 111.749 42.6752ZM122.148 45.5195C122.056 45.646 121.015 49.4483 119.836 53.9688L117.691 62.1879L118.518 62.4754C119.048 62.6597 119.46 62.6816 119.666 62.5369C119.842 62.4127 120.328 61.4249 120.745 60.3419C121.162 59.2588 121.786 57.6569 122.132 56.7823C122.478 55.9076 123.094 54.3413 123.5 53.3014C125.123 49.1505 125.584 47.9947 125.936 47.1937L126.305 46.358L124.31 45.8236C122.904 45.4467 122.266 45.3571 122.148 45.5195ZM70.1435 34.5228C70.1773 34.8482 70.0442 35.9477 69.8478 36.9664C69.5609 38.4538 69.4291 38.821 69.1778 38.8317C69.0058 38.839 68.0379 38.6817 67.0267 38.482L65.1884 38.1191L65.8391 35.6906C66.197 34.3549 66.5683 33.217 66.6641 33.1622C66.7598 33.1072 67.568 33.2578 68.46 33.4968C70.0193 33.9146 70.0844 33.9543 70.1435 34.5228ZM89.2387 43.3017L88.1862 43.5147L86.4318 49.8432C85.4672 53.3237 84.7331 56.2489 84.8007 56.3435C84.8684 56.4382 85.588 56.6374 86.3997 56.7863L87.8757 57.0569L89.2155 52.4692L90.5554 47.8816L92.1426 48.2431L93.7297 48.6048L93.4759 50.0294C92.5964 54.966 92.3182 56.6896 92.3723 56.8674C92.4059 56.9782 93.1268 57.2547 93.9742 57.4818L95.515 57.8946L96.5082 53.6215L97.5015 49.3481L98.778 49.8489C99.48 50.1241 100.103 50.4006 100.162 50.4631C100.221 50.5256 99.777 52.6499 99.1747 55.1839C98.5725 57.7178 98.0597 60.1157 98.035 60.5123C97.9919 61.21 98.0159 61.2349 98.7757 61.2813C99.2076 61.3075 99.9472 61.3738 100.419 61.4282L101.278 61.5271L101.737 59.7816C101.989 58.8214 102.388 56.8506 102.622 55.402C102.857 53.9534 103.164 52.1559 103.304 51.4074C103.444 50.659 103.593 49.7341 103.634 49.3524L103.71 48.6583L100.009 47.6664L96.3069 46.6745L96.04 47.1526C95.6867 47.7854 95.4635 47.692 95.3311 46.8563C95.2712 46.4795 95.1085 46.0887 94.9693 45.9881C94.8301 45.8875 93.8571 45.6826 92.8066 45.533C91.7562 45.3833 90.7771 45.1744 90.6309 45.0686C90.461 44.9457 90.4451 44.5784 90.5868 44.0494C90.8462 43.0812 90.7076 43.0042 89.2387 43.3017ZM85.0909 43.78C85.0185 43.8215 84.1982 43.7567 83.2678 43.636C82.3375 43.5153 80.9483 43.3454 80.1808 43.258C79.4134 43.1707 78.2573 43.0273 77.6117 42.9394L76.4379 42.7797L76.2087 43.7076C76.0058 44.5302 75.7898 45.7143 74.7756 51.5681C74.6354 52.3769 74.582 53.1789 74.6569 53.35C74.7444 53.5502 75.3544 53.8115 76.3672 54.0829C77.2332 54.3147 79.1458 54.9431 80.6174 55.4794C82.4366 56.1423 83.3785 56.4057 83.5599 56.3017C83.7412 56.1977 83.9852 55.2832 84.3218 53.4448C84.5944 51.9578 85.11 49.212 85.4678 47.3428C86.0943 44.0708 86.1019 43.9401 85.6705 43.8245C85.4243 43.7585 85.1635 43.7386 85.0909 43.78ZM82.6427 48.0815C82.5272 48.951 82.244 50.3785 82.0132 51.2539L81.5937 52.8453L81.0305 52.677C80.7208 52.5846 79.8474 52.2215 79.0898 51.8706L77.7123 51.2326L78.0236 49.5686C78.1949 48.6536 78.3724 47.4952 78.4178 46.9945C78.496 46.1329 78.5351 46.0803 79.1463 46.0152C79.5017 45.9774 80.3571 46.014 81.0475 46.0966C81.7376 46.1791 82.3704 46.2077 82.4535 46.16C82.7836 45.9708 82.8429 46.5733 82.6427 48.0815ZM112.644 54.8762C112.734 54.9705 112.787 55.3156 112.763 55.6431C112.738 55.9706 112.715 56.9053 112.711 57.7205C112.707 58.5354 112.631 59.2434 112.543 59.2937C112.274 59.4481 109.24 59.0195 108.91 58.7807C108.646 58.5899 108.689 58.2232 109.195 56.3344C109.529 55.0854 109.908 54.0453 110.059 53.9586C110.323 53.8074 112.295 54.5074 112.644 54.8762ZM69.2018 43.78L70.302 44.2146L70.2949 46.1909C70.291 47.2777 70.2547 48.4717 70.2144 48.8441L70.141 49.5209L66.8971 48.5422C65.1129 48.0037 63.5469 47.4963 63.4166 47.4144C63.2447 47.3063 63.3584 46.5996 63.8321 44.8319C64.1908 43.4932 64.5637 42.3525 64.6607 42.2969C64.8319 42.1988 66.9553 42.8922 69.2018 43.78ZM115.665 66.3087C114.23 68.3094 114.179 68.072 116.233 68.9326C117.23 69.3507 118.133 69.6317 118.239 69.5569C118.344 69.4822 118.577 68.669 118.756 67.7497L119.082 66.0782L117.756 65.6598L116.431 65.2415L115.665 66.3087Z" fill="#FAFF00"/>
<path fill-rule="evenodd" clip-rule="evenodd" d="M64.7662 30.3362C64.4389 31.2612 63.1094 35.9787 61.8116 40.8197L59.4519 49.6212L65.8946 51.2088C69.438 52.082 72.4402 52.7657 72.5661 52.7285C72.6995 52.6888 73.2832 50.8382 73.9649 48.294C75.2662 43.4373 75.2694 43.6823 73.8936 42.5746C73.5185 42.2722 72.9044 41.7779 72.5291 41.4755C71.7277 40.8303 71.2414 40.1843 71.4264 40.0109C71.4986 39.9434 72.0873 38.3087 72.7347 36.3786C73.3823 34.4484 73.9801 32.6936 74.0635 32.479C74.2489 32.0008 73.7078 31.721 70.1216 30.4402C68.7337 29.9443 67.0946 29.3398 66.4795 29.0967L65.361 28.6548L64.7662 30.3362ZM111.749 42.6752C111.44 42.6906 110.886 42.6322 110.517 42.5453C109.27 42.2521 109.28 42.2287 106.486 52.0952L103.954 61.0354L104.556 61.1966C105.518 61.4543 105.864 61.3361 106.037 60.6904C106.224 59.9921 106.606 59.983 106.522 60.679C106.469 61.1169 106.571 61.1858 107.706 61.4774C108.389 61.6529 109.768 61.8941 110.77 62.0138C111.772 62.1333 113.049 62.2957 113.609 62.375C114.795 62.5428 114.91 62.4752 114.877 61.624C114.864 61.274 114.885 60.4028 114.925 59.6878C114.964 58.9729 115.01 57.6991 115.027 56.8571C115.044 56.0152 115.09 54.7413 115.129 54.0264C115.169 53.3115 115.197 52.5901 115.193 52.4235C115.186 52.1849 114.71 52.0105 112.948 51.6023L110.712 51.084L111.81 46.9858C113.001 42.5426 113.002 42.6122 111.749 42.6752ZM122.148 45.5195C122.056 45.646 121.015 49.4483 119.836 53.9688L117.691 62.1879L118.518 62.4754C119.048 62.6597 119.46 62.6816 119.666 62.5369C119.842 62.4127 120.328 61.4249 120.745 60.3419C121.162 59.2588 121.786 57.6569 122.132 56.7823C122.478 55.9076 123.094 54.3413 123.5 53.3014C125.123 49.1505 125.584 47.9947 125.936 47.1937L126.305 46.358L124.31 45.8236C122.904 45.4467 122.266 45.3571 122.148 45.5195ZM70.1435 34.5228C70.1773 34.8482 70.0442 35.9477 69.8478 36.9664C69.5609 38.4538 69.4291 38.821 69.1778 38.8317C69.0058 38.839 68.0379 38.6817 67.0267 38.482L65.1884 38.1191L65.8391 35.6906C66.197 34.3549 66.5683 33.217 66.6641 33.1622C66.7598 33.1072 67.568 33.2578 68.46 33.4968C70.0193 33.9146 70.0844 33.9543 70.1435 34.5228ZM89.2387 43.3017L88.1862 43.5147L86.4318 49.8432C85.4672 53.3237 84.7331 56.2489 84.8007 56.3435C84.8684 56.4382 85.588 56.6374 86.3997 56.7863L87.8757 57.0569L89.2155 52.4692L90.5554 47.8816L92.1426 48.2431L93.7297 48.6048L93.4759 50.0294C92.5964 54.966 92.3182 56.6896 92.3723 56.8674C92.4059 56.9782 93.1268 57.2547 93.9742 57.4818L95.515 57.8946L96.5082 53.6215L97.5015 49.3481L98.778 49.8489C99.48 50.1241 100.103 50.4006 100.162 50.4631C100.221 50.5256 99.777 52.6499 99.1747 55.1839C98.5725 57.7178 98.0597 60.1157 98.035 60.5123C97.9919 61.21 98.0159 61.2349 98.7757 61.2813C99.2076 61.3075 99.9472 61.3738 100.419 61.4282L101.278 61.5271L101.737 59.7816C101.989 58.8214 102.388 56.8506 102.622 55.402C102.857 53.9534 103.164 52.1559 103.304 51.4074C103.444 50.659 103.593 49.7341 103.634 49.3524L103.71 48.6583L100.009 47.6664L96.3069 46.6745L96.04 47.1526C95.6867 47.7854 95.4635 47.692 95.3311 46.8563C95.2712 46.4795 95.1085 46.0887 94.9693 45.9881C94.8301 45.8875 93.8571 45.6826 92.8066 45.533C91.7562 45.3833 90.7771 45.1744 90.6309 45.0686C90.461 44.9457 90.4451 44.5784 90.5868 44.0494C90.8462 43.0812 90.7076 43.0042 89.2387 43.3017ZM85.0909 43.78C85.0185 43.8215 84.1982 43.7567 83.2678 43.636C82.3375 43.5153 80.9483 43.3454 80.1808 43.258C79.4134 43.1707 78.2573 43.0273 77.6117 42.9394L76.4379 42.7797L76.2087 43.7076C76.0058 44.5302 75.7898 45.7143 74.7756 51.5681C74.6354 52.3769 74.582 53.1789 74.6569 53.35C74.7444 53.5502 75.3544 53.8115 76.3672 54.0829C77.2332 54.3147 79.1458 54.9431 80.6174 55.4794C82.4366 56.1423 83.3785 56.4057 83.5599 56.3017C83.7412 56.1977 83.9852 55.2832 84.3218 53.4448C84.5944 51.9578 85.11 49.212 85.4678 47.3428C86.0943 44.0708 86.1019 43.9401 85.6705 43.8245C85.4243 43.7585 85.1635 43.7386 85.0909 43.78ZM82.6427 48.0815C82.5272 48.951 82.244 50.3785 82.0132 51.2539L81.5937 52.8453L81.0305 52.677C80.7208 52.5846 79.8474 52.2215 79.0898 51.8706L77.7123 51.2326L78.0236 49.5686C78.1949 48.6536 78.3724 47.4952 78.4178 46.9945C78.496 46.1329 78.5351 46.0803 79.1463 46.0152C79.5017 45.9774 80.3571 46.014 81.0475 46.0966C81.7376 46.1791 82.3704 46.2077 82.4535 46.16C82.7836 45.9708 82.8429 46.5733 82.6427 48.0815ZM112.644 54.8762C112.734 54.9705 112.787 55.3156 112.763 55.6431C112.738 55.9706 112.715 56.9053 112.711 57.7205C112.707 58.5354 112.631 59.2434 112.543 59.2937C112.274 59.4481 109.24 59.0195 108.91 58.7807C108.646 58.5899 108.689 58.2232 109.195 56.3344C109.529 55.0854 109.908 54.0453 110.059 53.9586C110.323 53.8074 112.295 54.5074 112.644 54.8762ZM69.2018 43.78L70.302 44.2146L70.2949 46.1909C70.291 47.2777 70.2547 48.4717 70.2144 48.8441L70.141 49.5209L66.8971 48.5422C65.1129 48.0037 63.5469 47.4963 63.4166 47.4144C63.2447 47.3063 63.3584 46.5996 63.8321 44.8319C64.1908 43.4932 64.5637 42.3525 64.6607 42.2969C64.8319 42.1988 66.9553 42.8922 69.2018 43.78ZM115.665 66.3087C114.23 68.3094 114.179 68.072 116.233 68.9326C117.23 69.3507 118.133 69.6317 118.239 69.5569C118.344 69.4822 118.577 68.669 118.756 67.7497L119.082 66.0782L117.756 65.6598L116.431 65.2415L115.665 66.3087Z" stroke="#242424" stroke-width="2" mask="url(#path-4-outside-2)"/>
</svg>
