<svg width="330" height="107" viewBox="0 0 330 107" fill="none" xmlns="http://www.w3.org/2000/svg">
<g filter="url(#filter0_ddd)">
<rect x="5" y="4" width="320" height="96" rx="20" fill="#F6E490"/>
<rect x="7" y="6" width="316" height="92" rx="18" stroke="#B68044" stroke-width="4"/>
</g>
<path fill-rule="evenodd" clip-rule="evenodd" d="M285.894 42.6667C283.99 42.6667 283.779 43.9773 283.911 44.6327C283.943 45.6554 283.987 46.935 284.04 48.3C280.669 45.8733 274.585 46.0714 273.492 47.5159C272.385 49.3242 273.492 51.1889 273.492 53.5C273.492 55.1508 274.039 55.1508 274.585 55.873C275.023 56.4508 281.294 56.5815 284.375 55.2333C284.481 56.8962 284.594 58.1221 284.704 58.3948C285.101 59.3778 285.101 60.3608 286.688 59.8693C288.274 59.3778 293.43 54.4627 294.224 53.9712C295.017 53.4797 297 52.4967 297 51.0222C297 49.5477 290.257 44.6327 289.464 44.1412C288.829 43.748 286.82 42.9943 285.894 42.6667ZM295 52.5714C294.224 53.1905 288.85 58.7619 286 58.7619C285.346 58.7619 284.882 56.527 284.691 53.8095L284.348 53.978C284.369 53.9739 284.349 53.9821 284.291 54.0062L284.29 53.9915C279.5 56.4287 275.932 54.4286 275.5 54.4286C274.953 54.4286 273.907 50.3016 275 48.8571C275.875 47.7016 281.799 48.7058 284.04 49.4762L284.617 49.6559C284.696 47.436 284.976 45.4603 285.5 44.6327C289 43.2857 296.5 50.7143 295 52.5714Z" fill="white"/>
<path d="M286 58.7619C288.85 58.7619 294.224 53.1905 295 52.5714C296.5 50.7143 289 43.2857 285.5 44.6327C284.976 45.4603 284.696 47.436 284.617 49.6559L284.04 49.4762C281.799 48.7058 275.875 47.7016 275 48.8571C273.907 50.3016 274.953 54.4286 275.5 54.4286C275.932 54.4286 279.5 56.4287 284.29 53.9915L284.294 53.9905C284.321 53.9841 284.339 53.9798 284.348 53.978L284.691 53.8095C284.882 56.527 285.346 58.7619 286 58.7619Z" fill="white"/>
<path fill-rule="evenodd" clip-rule="evenodd" d="M285.894 42.6667C283.99 42.6667 283.779 43.9773 283.911 44.6327C283.943 45.6554 283.987 46.935 284.04 48.3C280.669 45.8733 274.585 46.0714 273.492 47.5159C272.385 49.3242 273.492 51.1889 273.492 53.5C273.492 55.1508 274.039 55.1508 274.585 55.873C275.023 56.4508 281.294 56.5815 284.375 55.2333C284.481 56.8962 284.594 58.1221 284.704 58.3948C285.101 59.3778 285.101 60.3608 286.688 59.8693C288.274 59.3778 293.43 54.4627 294.224 53.9712C295.017 53.4797 297 52.4967 297 51.0222C297 49.5477 290.257 44.6327 289.464 44.1412C288.829 43.748 286.82 42.9943 285.894 42.6667ZM295 52.5714C294.224 53.1905 288.85 58.7619 286 58.7619C285.346 58.7619 284.882 56.527 284.691 53.8095L284.348 53.978C284.369 53.9739 284.349 53.9821 284.291 54.0062L284.29 53.9915C279.5 56.4287 275.932 54.4286 275.5 54.4286C274.953 54.4286 273.907 50.3016 275 48.8571C275.875 47.7016 281.799 48.7058 284.04 49.4762L284.617 49.6559C284.696 47.436 284.976 45.4603 285.5 44.6327C289 43.2857 296.5 50.7143 295 52.5714Z" fill="#242424"/>
<g clip-path="url(#clip0)">
<ellipse cx="56.3" cy="74" rx="14.7" ry="4.2" fill="url(#paint0_radial)"/>
<ellipse cx="50.5363" cy="55.7511" rx="21.317" ry="21.317" transform="rotate(30 50.5363 55.7511)" fill="#1C1C1C"/>
<ellipse opacity="0.6" cx="45.9446" cy="53.5814" rx="15.4221" ry="15.4221" transform="rotate(30 45.9446 53.5814)" fill="url(#paint1_radial)"/>
<ellipse opacity="0.6" cx="68.5503" cy="51.7394" rx="2.3697" ry="6.46799" transform="rotate(-12.8068 68.5503 51.7394)" fill="url(#paint2_radial)"/>
<path d="M66.8672 40.565C66.2424 41.6472 63.1731 41.0449 60.0119 39.2198C56.8506 37.3946 54.7944 35.0377 55.4192 33.9555C56.0441 32.8733 59.1133 33.4755 62.2746 35.3007C65.4358 37.1258 67.492 39.4827 66.8672 40.565Z" fill="url(#paint3_linear)"/>
<path d="M60.0119 39.2198C63.1731 41.045 66.2424 41.6472 66.8672 40.565L64.8427 44.0716C64.2178 45.1538 61.1486 44.5515 57.9873 42.7264C54.8261 40.9012 52.7699 38.5443 53.3947 37.4621L55.4193 33.9555C54.7944 35.0377 56.8506 37.3946 60.0119 39.2198Z" fill="url(#paint4_linear)"/>
<g filter="url(#filter1_i)">
<path d="M61.1132 36.8855C60.8874 36.7123 60.8441 36.3881 61.0251 36.1685C63.2675 33.4471 66.4145 31.6132 69.9 31.0092C73.3856 30.4052 76.9662 31.0732 79.9935 32.8814C80.2378 33.0273 80.3061 33.3472 80.1518 33.5863C79.9974 33.8254 79.6788 33.8932 79.4341 33.7479C76.6246 32.0798 73.3064 31.4649 70.076 32.0247C66.8456 32.5845 63.9278 34.2801 61.8434 36.7962C61.6619 37.0154 61.3391 37.0588 61.1132 36.8855Z" fill="#FFD2A0"/>
</g>
<g filter="url(#filter2_d)">
<path d="M81.7371 37.4431L81.367 34.8124L82.6571 35.8863L82.265 34.9229C82.5314 35.029 83.0558 35.2267 83.0226 35.1693C82.9895 35.1119 82.4234 34.5261 82.1444 34.2404L84.6762 35.0488L82.5956 33.6244L83.7855 33.293L82.5262 32.5567L83.4557 32.5544L82.5687 32.204L83.4818 31.3182L81.6902 31.5351L81.6656 29.6211L81.0323 30.9167L80.7405 30.0322L80.2827 31.158L79.8336 30.1057L79.7168 30.7462L78.4858 29.4194L79.2827 31.5576L78.4255 30.6679L78.447 31.6024L75.9011 31.8826L77.9369 32.8269L77.0778 33.1214L78.0108 33.2628L76.6172 34.3546L78.0959 34.2393L77.5352 35.3289L78.3826 34.949L78.0669 35.9655L78.4673 35.8301L78.0089 37.1204L79.3751 35.4837L79.4201 36.3802L79.7453 35.817L80.2841 36.7504L80.5422 35.6578L81.7371 37.4431Z" fill="#ED202F"/>
</g>
<path d="M82.0018 32.5017L80.8658 32.6608L81.3292 32.1035L80.9133 32.2726C80.959 32.1575 81.0442 31.9309 81.0194 31.9452C80.9946 31.9596 80.7418 32.2041 80.6185 32.3245L80.9668 31.2305L80.3524 32.1293L80.2088 31.6149L79.8913 32.1589L79.569 31.795L79.739 32.1404L78.9994 32.0352L79.4504 32.5199L78.6239 32.5299L79.1835 32.8041L78.8017 32.93L79.288 33.1282L78.9336 33.4038L79.1104 33.3727L78.5378 33.9043L79.4609 33.5606L79.3345 34.0062L79.4806 33.9218L79.6024 35.0224L80.0095 34.1427L80.0542 34.3121L80.1978 34.1109L80.6698 34.7137L80.6195 34.0745L81.0902 34.3172L80.9259 33.9508L81.3649 34.0876L81.3063 33.9145L81.8637 34.1131L81.1564 33.522L81.4729 33.3748L81.3002 33.3621L81.7031 33.1295L81.2312 33.0176L82.0018 32.5017Z" fill="#FA9D1C"/>
<path d="M79.8747 33.8738L80.1606 33.4978L80.1889 33.7948L80.2609 33.6248C80.2814 33.6716 80.3232 33.7624 80.3262 33.7511C80.3293 33.7397 80.3313 33.595 80.332 33.5241L80.552 33.9443L80.4674 33.5038L80.6609 33.6122L80.5937 33.3614L80.7952 33.374L80.6437 33.3226L80.8913 33.1386L80.6165 33.1281L80.8556 32.8854L80.611 32.9678L80.6858 32.8203L80.485 32.9036L80.5077 32.7203L80.4651 32.7807L80.4762 32.4594L80.3071 32.8276L80.2129 32.6609L80.195 32.7279L79.8353 32.4422L79.975 32.817L79.9121 32.7805L79.9293 32.8809L79.6136 32.842L79.8165 33.0139L79.6072 33.0797L79.7632 33.1389L79.5944 33.2264L79.6625 33.2599L79.4408 33.3637L79.8219 33.3309L79.7726 33.4656L79.8269 33.4192L79.7774 33.604L79.9485 33.4997L79.8747 33.8738Z" fill="#EDE925"/>
<path d="M79.9506 33.4631L80.1334 33.3215L80.1092 33.4656L80.1648 33.3943C80.1686 33.419 80.1768 33.4673 80.1797 33.4623C80.1826 33.4573 80.2019 33.3891 80.2111 33.3557L80.262 33.5823L80.2778 33.3633L80.3555 33.439L80.3555 33.3119L80.4492 33.3434L80.3841 33.2999L80.5245 33.2443L80.3959 33.2045L80.5397 33.12L80.4136 33.128L80.4676 33.0677L80.3621 33.0817L80.3961 32.9979L80.3683 33.021L80.4143 32.8705L80.2876 33.0232L80.2642 32.9324L80.2473 32.9619L80.1134 32.7812L80.132 32.9761L80.1068 32.9509L80.1022 33.0005L79.9579 32.9421L80.0321 33.0491L79.9248 33.0537L79.991 33.1015L79.9001 33.1214L79.9281 33.1459L79.8101 33.1669L79.9945 33.1997L79.9541 33.2572L79.9856 33.2421L79.9388 33.3232L80.0329 33.2956L79.9506 33.4631Z" fill="white"/>
</g>
<g clip-path="url(#clip1)">
<ellipse cx="118.3" cy="74" rx="14.7" ry="4.2" fill="url(#paint5_radial)"/>
<ellipse cx="112.536" cy="55.7511" rx="21.317" ry="21.317" transform="rotate(30 112.536 55.7511)" fill="#1C1C1C"/>
<ellipse opacity="0.6" cx="107.945" cy="53.5814" rx="15.4221" ry="15.4221" transform="rotate(30 107.945 53.5814)" fill="url(#paint6_radial)"/>
<ellipse opacity="0.6" cx="130.55" cy="51.7394" rx="2.3697" ry="6.46799" transform="rotate(-12.8068 130.55 51.7394)" fill="url(#paint7_radial)"/>
<path d="M128.867 40.565C128.242 41.6472 125.173 41.0449 122.012 39.2198C118.851 37.3946 116.794 35.0377 117.419 33.9555C118.044 32.8733 121.113 33.4755 124.275 35.3007C127.436 37.1258 129.492 39.4827 128.867 40.565Z" fill="url(#paint8_linear)"/>
<path d="M122.012 39.2198C125.173 41.045 128.242 41.6472 128.867 40.565L126.843 44.0716C126.218 45.1538 123.149 44.5515 119.987 42.7264C116.826 40.9012 114.77 38.5443 115.395 37.4621L117.419 33.9555C116.794 35.0377 118.851 37.3946 122.012 39.2198Z" fill="url(#paint9_linear)"/>
<g filter="url(#filter3_i)">
<path d="M123.113 36.8855C122.887 36.7123 122.844 36.3881 123.025 36.1685C125.267 33.4471 128.414 31.6132 131.9 31.0092C135.386 30.4052 138.966 31.0732 141.993 32.8814C142.238 33.0273 142.306 33.3472 142.152 33.5863C141.997 33.8254 141.679 33.8932 141.434 33.7479C138.625 32.0798 135.306 31.4649 132.076 32.0247C128.846 32.5845 125.928 34.2801 123.843 36.7962C123.662 37.0154 123.339 37.0588 123.113 36.8855Z" fill="#FFD2A0"/>
</g>
<g filter="url(#filter4_d)">
<path d="M143.737 37.4431L143.367 34.8124L144.657 35.8863L144.265 34.9229C144.531 35.029 145.056 35.2267 145.023 35.1693C144.989 35.1119 144.423 34.5261 144.144 34.2404L146.676 35.0488L144.596 33.6244L145.785 33.293L144.526 32.5567L145.456 32.5544L144.569 32.204L145.482 31.3182L143.69 31.5351L143.665 29.6211L143.032 30.9167L142.74 30.0322L142.283 31.158L141.834 30.1057L141.717 30.7462L140.486 29.4194L141.283 31.5576L140.425 30.6679L140.447 31.6024L137.901 31.8826L139.937 32.8269L139.078 33.1214L140.011 33.2628L138.617 34.3546L140.096 34.2393L139.535 35.3289L140.383 34.949L140.067 35.9655L140.467 35.8301L140.009 37.1204L141.375 35.4837L141.42 36.3802L141.745 35.817L142.284 36.7504L142.542 35.6578L143.737 37.4431Z" fill="#ED202F"/>
</g>
<path d="M144.002 32.5017L142.866 32.6608L143.329 32.1035L142.913 32.2726C142.959 32.1575 143.044 31.9309 143.019 31.9452C142.994 31.9596 142.742 32.2041 142.618 32.3245L142.967 31.2305L142.352 32.1293L142.209 31.6149L141.891 32.1589L141.569 31.795L141.739 32.1404L140.999 32.0352L141.45 32.5199L140.624 32.5299L141.183 32.8041L140.802 32.93L141.288 33.1282L140.933 33.4038L141.11 33.3727L140.538 33.9043L141.461 33.5606L141.334 34.0062L141.48 33.9218L141.602 35.0224L142.009 34.1427L142.054 34.3121L142.198 34.1109L142.67 34.7137L142.619 34.0745L143.09 34.3172L142.926 33.9508L143.365 34.0876L143.306 33.9145L143.864 34.1131L143.156 33.522L143.473 33.3748L143.3 33.3621L143.703 33.1295L143.231 33.0176L144.002 32.5017Z" fill="#FA9D1C"/>
<path d="M141.875 33.8738L142.161 33.4978L142.189 33.7948L142.261 33.6248C142.281 33.6716 142.323 33.7624 142.326 33.7511C142.329 33.7397 142.331 33.595 142.332 33.5241L142.552 33.9443L142.467 33.5038L142.661 33.6122L142.594 33.3614L142.795 33.374L142.644 33.3226L142.891 33.1386L142.617 33.1281L142.856 32.8854L142.611 32.9678L142.686 32.8203L142.485 32.9036L142.508 32.7203L142.465 32.7807L142.476 32.4594L142.307 32.8276L142.213 32.6609L142.195 32.7279L141.835 32.4422L141.975 32.817L141.912 32.7805L141.929 32.8809L141.614 32.842L141.817 33.0139L141.607 33.0797L141.763 33.1389L141.594 33.2264L141.662 33.2599L141.441 33.3637L141.822 33.3309L141.773 33.4656L141.827 33.4192L141.777 33.604L141.949 33.4997L141.875 33.8738Z" fill="#EDE925"/>
<path d="M141.951 33.4631L142.133 33.3215L142.109 33.4656L142.165 33.3943C142.168 33.419 142.177 33.4673 142.18 33.4623C142.182 33.4573 142.202 33.3891 142.211 33.3557L142.262 33.5823L142.278 33.3633L142.355 33.439L142.355 33.3119L142.449 33.3434L142.384 33.2999L142.524 33.2443L142.396 33.2045L142.54 33.12L142.413 33.128L142.468 33.0677L142.362 33.0817L142.396 32.9979L142.368 33.021L142.414 32.8705L142.288 33.0232L142.264 32.9324L142.247 32.9619L142.113 32.7812L142.132 32.9761L142.107 32.9509L142.102 33.0005L141.958 32.9421L142.032 33.0491L141.925 33.0537L141.991 33.1015L141.9 33.1214L141.928 33.1459L141.81 33.1669L141.994 33.1997L141.954 33.2572L141.985 33.2421L141.939 33.3232L142.033 33.2956L141.951 33.4631Z" fill="white"/>
</g>
<g clip-path="url(#clip2)">
<ellipse cx="180.3" cy="74" rx="14.7" ry="4.2" fill="url(#paint10_radial)"/>
<ellipse cx="174.536" cy="55.7511" rx="21.317" ry="21.317" transform="rotate(30 174.536 55.7511)" fill="#1C1C1C"/>
<ellipse opacity="0.6" cx="169.945" cy="53.5814" rx="15.4221" ry="15.4221" transform="rotate(30 169.945 53.5814)" fill="url(#paint11_radial)"/>
<ellipse opacity="0.6" cx="192.55" cy="51.7394" rx="2.3697" ry="6.46799" transform="rotate(-12.8068 192.55 51.7394)" fill="url(#paint12_radial)"/>
<path d="M190.867 40.565C190.242 41.6472 187.173 41.0449 184.012 39.2198C180.851 37.3946 178.794 35.0377 179.419 33.9555C180.044 32.8733 183.113 33.4755 186.275 35.3007C189.436 37.1258 191.492 39.4827 190.867 40.565Z" fill="url(#paint13_linear)"/>
<path d="M184.012 39.2198C187.173 41.045 190.242 41.6472 190.867 40.565L188.843 44.0716C188.218 45.1538 185.149 44.5515 181.987 42.7264C178.826 40.9012 176.77 38.5443 177.395 37.4621L179.419 33.9555C178.794 35.0377 180.851 37.3946 184.012 39.2198Z" fill="url(#paint14_linear)"/>
<g filter="url(#filter5_i)">
<path d="M185.113 36.8855C184.888 36.7123 184.844 36.3881 185.025 36.1685C187.268 33.4471 190.415 31.6132 193.9 31.0092C197.386 30.4052 200.966 31.0732 203.994 32.8814C204.238 33.0273 204.306 33.3472 204.152 33.5863C203.997 33.8254 203.679 33.8932 203.434 33.7479C200.625 32.0798 197.307 31.4649 194.076 32.0247C190.846 32.5845 187.928 34.2801 185.844 36.7962C185.662 37.0154 185.339 37.0588 185.113 36.8855Z" fill="#FFD2A0"/>
</g>
<g filter="url(#filter6_d)">
<path d="M205.737 37.4431L205.367 34.8124L206.657 35.8863L206.265 34.9229C206.531 35.029 207.056 35.2267 207.023 35.1693C206.99 35.1119 206.423 34.5261 206.145 34.2404L208.676 35.0488L206.596 33.6244L207.786 33.293L206.526 32.5567L207.456 32.5544L206.569 32.204L207.482 31.3182L205.69 31.5351L205.666 29.6211L205.032 30.9167L204.741 30.0322L204.283 31.158L203.834 30.1057L203.717 30.7462L202.486 29.4194L203.283 31.5576L202.426 30.6679L202.447 31.6024L199.901 31.8826L201.937 32.8269L201.078 33.1214L202.011 33.2628L200.617 34.3546L202.096 34.2393L201.535 35.3289L202.383 34.949L202.067 35.9655L202.467 35.8301L202.009 37.1204L203.375 35.4837L203.42 36.3802L203.745 35.817L204.284 36.7504L204.542 35.6578L205.737 37.4431Z" fill="#ED202F"/>
</g>
<path d="M206.002 32.5017L204.866 32.6608L205.329 32.1035L204.913 32.2726C204.959 32.1575 205.044 31.9309 205.019 31.9452C204.995 31.9596 204.742 32.2041 204.619 32.3245L204.967 31.2305L204.352 32.1293L204.209 31.6149L203.891 32.1589L203.569 31.795L203.739 32.1404L202.999 32.0352L203.45 32.5199L202.624 32.5299L203.184 32.8041L202.802 32.93L203.288 33.1282L202.934 33.4038L203.11 33.3727L202.538 33.9043L203.461 33.5606L203.334 34.0062L203.481 33.9218L203.602 35.0224L204.01 34.1427L204.054 34.3121L204.198 34.1109L204.67 34.7137L204.619 34.0745L205.09 34.3172L204.926 33.9508L205.365 34.0876L205.306 33.9145L205.864 34.1131L205.156 33.522L205.473 33.3748L205.3 33.3621L205.703 33.1295L205.231 33.0176L206.002 32.5017Z" fill="#FA9D1C"/>
<path d="M203.875 33.8738L204.161 33.4978L204.189 33.7948L204.261 33.6248C204.282 33.6716 204.323 33.7624 204.326 33.7511C204.329 33.7397 204.331 33.595 204.332 33.5241L204.552 33.9443L204.468 33.5038L204.661 33.6122L204.594 33.3614L204.795 33.374L204.644 33.3226L204.891 33.1386L204.617 33.1281L204.856 32.8854L204.611 32.9678L204.686 32.8203L204.485 32.9036L204.508 32.7203L204.465 32.7807L204.476 32.4594L204.307 32.8276L204.213 32.6609L204.195 32.7279L203.835 32.4422L203.975 32.817L203.912 32.7805L203.929 32.8809L203.614 32.842L203.817 33.0139L203.607 33.0797L203.763 33.1389L203.594 33.2264L203.663 33.2599L203.441 33.3637L203.822 33.3309L203.773 33.4656L203.827 33.4192L203.778 33.604L203.949 33.4997L203.875 33.8738Z" fill="#EDE925"/>
<path d="M203.951 33.4631L204.133 33.3215L204.109 33.4656L204.165 33.3943C204.169 33.419 204.177 33.4673 204.18 33.4623C204.183 33.4573 204.202 33.3891 204.211 33.3557L204.262 33.5823L204.278 33.3633L204.356 33.439L204.356 33.3119L204.449 33.3434L204.384 33.2999L204.524 33.2443L204.396 33.2045L204.54 33.12L204.414 33.128L204.468 33.0677L204.362 33.0817L204.396 32.9979L204.368 33.021L204.414 32.8705L204.288 33.0232L204.264 32.9324L204.247 32.9619L204.113 32.7812L204.132 32.9761L204.107 32.9509L204.102 33.0005L203.958 32.9421L204.032 33.0491L203.925 33.0537L203.991 33.1015L203.9 33.1214L203.928 33.1459L203.81 33.1669L203.994 33.1997L203.954 33.2572L203.986 33.2421L203.939 33.3232L204.033 33.2956L203.951 33.4631Z" fill="white"/>
</g>
<path d="M240.904 69.976C237.704 69.976 234.739 68.3973 232.008 65.24L233.992 61.144C236.253 64.3013 238.579 65.88 240.968 65.88C242.461 65.88 243.763 65.2827 244.872 64.088C245.981 62.8933 246.579 61.656 246.664 60.376C246.792 58.6693 246.408 57.24 245.512 56.088C244.872 55.2773 243.763 54.4027 242.184 53.464C241.587 53.8053 240.157 55.3627 237.896 58.136L237.064 57.688L244.232 45.592L232.776 50.456L231.752 45.464L249.096 42.456L243.208 51.8C244.957 52.056 246.515 53.1227 247.88 55C249.245 56.8773 249.928 58.9253 249.928 61.144C249.928 63.3627 249.053 65.3893 247.304 67.224C245.555 69.0587 243.421 69.976 240.904 69.976Z" fill="#FF4B4B"/>
<path d="M227.656 46.64L224.56 58.628L226.468 62.696L225.244 63.092L223.84 60.608L222.328 64.82L219.916 65.756L222.688 59.312L216.316 50.132L219.016 47.648L223.516 57.116L227.008 46.46L227.656 46.64Z" fill="#FF4B4B"/>
<defs>
<filter id="filter0_ddd" x="0" y="0" width="330" height="107" filterUnits="userSpaceOnUse" color-interpolation-filters="sRGB">
<feFlood flood-opacity="0" result="BackgroundImageFix"/>
<feColorMatrix in="SourceAlpha" type="matrix" values="0 0 0 0 0 0 0 0 0 0 0 0 0 0 0 0 0 0 127 0"/>
<feOffset dy="1"/>
<feGaussianBlur stdDeviation="2.5"/>
<feColorMatrix type="matrix" values="0 0 0 0 0 0 0 0 0 0 0 0 0 0 0 0 0 0 0.2 0"/>
<feBlend mode="normal" in2="BackgroundImageFix" result="effect1_dropShadow"/>
<feColorMatrix in="SourceAlpha" type="matrix" values="0 0 0 0 0 0 0 0 0 0 0 0 0 0 0 0 0 0 127 0"/>
<feOffset dy="3"/>
<feGaussianBlur stdDeviation="2"/>
<feColorMatrix type="matrix" values="0 0 0 0 0 0 0 0 0 0 0 0 0 0 0 0 0 0 0.12 0"/>
<feBlend mode="normal" in2="effect1_dropShadow" result="effect2_dropShadow"/>
<feColorMatrix in="SourceAlpha" type="matrix" values="0 0 0 0 0 0 0 0 0 0 0 0 0 0 0 0 0 0 127 0"/>
<feOffset dy="2"/>
<feGaussianBlur stdDeviation="2"/>
<feColorMatrix type="matrix" values="0 0 0 0 0 0 0 0 0 0 0 0 0 0 0 0 0 0 0.14 0"/>
<feBlend mode="normal" in2="effect2_dropShadow" result="effect3_dropShadow"/>
<feBlend mode="normal" in="SourceGraphic" in2="effect3_dropShadow" result="shape"/>
</filter>
<filter id="filter1_i" x="60.7285" y="25.4848" width="19.6903" height="18.824" filterUnits="userSpaceOnUse" color-interpolation-filters="sRGB">
<feFlood flood-opacity="0" result="BackgroundImageFix"/>
<feBlend mode="normal" in="SourceGraphic" in2="BackgroundImageFix" result="shape"/>
<feColorMatrix in="SourceAlpha" type="matrix" values="0 0 0 0 0 0 0 0 0 0 0 0 0 0 0 0 0 0 127 0" result="hardAlpha"/>
<feOffset/>
<feGaussianBlur stdDeviation="0.5"/>
<feComposite in2="hardAlpha" operator="arithmetic" k2="-1" k3="1"/>
<feColorMatrix type="matrix" values="0 0 0 0 0 0 0 0 0 0 0 0 0 0 0 0 0 0 1 0"/>
<feBlend mode="normal" in2="shape" result="effect1_innerShadow"/>
</filter>
<filter id="filter2_d" x="72.7935" y="25.7307" width="14.9044" height="15.2461" filterUnits="userSpaceOnUse" color-interpolation-filters="sRGB">
<feFlood flood-opacity="0" result="BackgroundImageFix"/>
<feColorMatrix in="SourceAlpha" type="matrix" values="0 0 0 0 0 0 0 0 0 0 0 0 0 0 0 0 0 0 127 0"/>
<feOffset/>
<feGaussianBlur stdDeviation="1"/>
<feColorMatrix type="matrix" values="0 0 0 0 1 0 0 0 0 1 0 0 0 0 1 0 0 0 1 0"/>
<feBlend mode="normal" in2="BackgroundImageFix" result="effect1_dropShadow"/>
<feBlend mode="normal" in="SourceGraphic" in2="effect1_dropShadow" result="shape"/>
</filter>
<filter id="filter3_i" x="122.729" y="25.4848" width="19.6903" height="18.824" filterUnits="userSpaceOnUse" color-interpolation-filters="sRGB">
<feFlood flood-opacity="0" result="BackgroundImageFix"/>
<feBlend mode="normal" in="SourceGraphic" in2="BackgroundImageFix" result="shape"/>
<feColorMatrix in="SourceAlpha" type="matrix" values="0 0 0 0 0 0 0 0 0 0 0 0 0 0 0 0 0 0 127 0" result="hardAlpha"/>
<feOffset/>
<feGaussianBlur stdDeviation="0.5"/>
<feComposite in2="hardAlpha" operator="arithmetic" k2="-1" k3="1"/>
<feColorMatrix type="matrix" values="0 0 0 0 0 0 0 0 0 0 0 0 0 0 0 0 0 0 1 0"/>
<feBlend mode="normal" in2="shape" result="effect1_innerShadow"/>
</filter>
<filter id="filter4_d" x="134.793" y="25.7307" width="14.9044" height="15.2461" filterUnits="userSpaceOnUse" color-interpolation-filters="sRGB">
<feFlood flood-opacity="0" result="BackgroundImageFix"/>
<feColorMatrix in="SourceAlpha" type="matrix" values="0 0 0 0 0 0 0 0 0 0 0 0 0 0 0 0 0 0 127 0"/>
<feOffset/>
<feGaussianBlur stdDeviation="1"/>
<feColorMatrix type="matrix" values="0 0 0 0 1 0 0 0 0 1 0 0 0 0 1 0 0 0 1 0"/>
<feBlend mode="normal" in2="BackgroundImageFix" result="effect1_dropShadow"/>
<feBlend mode="normal" in="SourceGraphic" in2="effect1_dropShadow" result="shape"/>
</filter>
<filter id="filter5_i" x="184.729" y="25.4848" width="19.6903" height="18.824" filterUnits="userSpaceOnUse" color-interpolation-filters="sRGB">
<feFlood flood-opacity="0" result="BackgroundImageFix"/>
<feBlend mode="normal" in="SourceGraphic" in2="BackgroundImageFix" result="shape"/>
<feColorMatrix in="SourceAlpha" type="matrix" values="0 0 0 0 0 0 0 0 0 0 0 0 0 0 0 0 0 0 127 0" result="hardAlpha"/>
<feOffset/>
<feGaussianBlur stdDeviation="0.5"/>
<feComposite in2="hardAlpha" operator="arithmetic" k2="-1" k3="1"/>
<feColorMatrix type="matrix" values="0 0 0 0 0 0 0 0 0 0 0 0 0 0 0 0 0 0 1 0"/>
<feBlend mode="normal" in2="shape" result="effect1_innerShadow"/>
</filter>
<filter id="filter6_d" x="196.794" y="25.7307" width="14.9044" height="15.2461" filterUnits="userSpaceOnUse" color-interpolation-filters="sRGB">
<feFlood flood-opacity="0" result="BackgroundImageFix"/>
<feColorMatrix in="SourceAlpha" type="matrix" values="0 0 0 0 0 0 0 0 0 0 0 0 0 0 0 0 0 0 127 0"/>
<feOffset/>
<feGaussianBlur stdDeviation="1"/>
<feColorMatrix type="matrix" values="0 0 0 0 1 0 0 0 0 1 0 0 0 0 1 0 0 0 1 0"/>
<feBlend mode="normal" in2="BackgroundImageFix" result="effect1_dropShadow"/>
<feBlend mode="normal" in="SourceGraphic" in2="effect1_dropShadow" result="shape"/>
</filter>
<radialGradient id="paint0_radial" cx="0" cy="0" r="1" gradientUnits="userSpaceOnUse" gradientTransform="translate(56.3 74) rotate(90) scale(4.2 14.7)">
<stop/>
<stop offset="1" stop-opacity="0"/>
</radialGradient>
<radialGradient id="paint1_radial" cx="0" cy="0" r="1" gradientUnits="userSpaceOnUse" gradientTransform="translate(45.9446 53.5814) rotate(90) scale(15.4221)">
<stop stop-color="white"/>
<stop offset="1" stop-color="white" stop-opacity="0"/>
</radialGradient>
<radialGradient id="paint2_radial" cx="0" cy="0" r="1" gradientUnits="userSpaceOnUse" gradientTransform="translate(68.5503 51.7394) rotate(90) scale(6.46799 2.3697)">
<stop stop-color="#6E532B"/>
<stop offset="1" stop-color="#6D5127" stop-opacity="0"/>
</radialGradient>
<linearGradient id="paint3_linear" x1="55.4406" y1="33.9185" x2="66.8885" y2="40.528" gradientUnits="userSpaceOnUse">
<stop stop-color="#333333"/>
<stop offset="0.458333" stop-color="#333333"/>
<stop offset="0.59375" stop-color="#393532"/>
<stop offset="1" stop-color="#7B5B2A"/>
</linearGradient>
<linearGradient id="paint4_linear" x1="53.8711" y1="36.637" x2="65.319" y2="43.2465" gradientUnits="userSpaceOnUse">
<stop stop-color="#4B4B4B"/>
<stop offset="0.458333" stop-color="#1B1B1B"/>
<stop offset="0.59375" stop-color="#1B1B1B"/>
<stop offset="1" stop-color="#7B5B2A"/>
</linearGradient>
<radialGradient id="paint5_radial" cx="0" cy="0" r="1" gradientUnits="userSpaceOnUse" gradientTransform="translate(118.3 74) rotate(90) scale(4.2 14.7)">
<stop/>
<stop offset="1" stop-opacity="0"/>
</radialGradient>
<radialGradient id="paint6_radial" cx="0" cy="0" r="1" gradientUnits="userSpaceOnUse" gradientTransform="translate(107.945 53.5814) rotate(90) scale(15.4221)">
<stop stop-color="white"/>
<stop offset="1" stop-color="white" stop-opacity="0"/>
</radialGradient>
<radialGradient id="paint7_radial" cx="0" cy="0" r="1" gradientUnits="userSpaceOnUse" gradientTransform="translate(130.55 51.7394) rotate(90) scale(6.46799 2.3697)">
<stop stop-color="#6E532B"/>
<stop offset="1" stop-color="#6D5127" stop-opacity="0"/>
</radialGradient>
<linearGradient id="paint8_linear" x1="117.441" y1="33.9185" x2="128.889" y2="40.528" gradientUnits="userSpaceOnUse">
<stop stop-color="#333333"/>
<stop offset="0.458333" stop-color="#333333"/>
<stop offset="0.59375" stop-color="#393532"/>
<stop offset="1" stop-color="#7B5B2A"/>
</linearGradient>
<linearGradient id="paint9_linear" x1="115.871" y1="36.637" x2="127.319" y2="43.2465" gradientUnits="userSpaceOnUse">
<stop stop-color="#4B4B4B"/>
<stop offset="0.458333" stop-color="#1B1B1B"/>
<stop offset="0.59375" stop-color="#1B1B1B"/>
<stop offset="1" stop-color="#7B5B2A"/>
</linearGradient>
<radialGradient id="paint10_radial" cx="0" cy="0" r="1" gradientUnits="userSpaceOnUse" gradientTransform="translate(180.3 74) rotate(90) scale(4.2 14.7)">
<stop/>
<stop offset="1" stop-opacity="0"/>
</radialGradient>
<radialGradient id="paint11_radial" cx="0" cy="0" r="1" gradientUnits="userSpaceOnUse" gradientTransform="translate(169.945 53.5814) rotate(90) scale(15.4221)">
<stop stop-color="white"/>
<stop offset="1" stop-color="white" stop-opacity="0"/>
</radialGradient>
<radialGradient id="paint12_radial" cx="0" cy="0" r="1" gradientUnits="userSpaceOnUse" gradientTransform="translate(192.55 51.7394) rotate(90) scale(6.46799 2.3697)">
<stop stop-color="#6E532B"/>
<stop offset="1" stop-color="#6D5127" stop-opacity="0"/>
</radialGradient>
<linearGradient id="paint13_linear" x1="179.441" y1="33.9185" x2="190.889" y2="40.528" gradientUnits="userSpaceOnUse">
<stop stop-color="#333333"/>
<stop offset="0.458333" stop-color="#333333"/>
<stop offset="0.59375" stop-color="#393532"/>
<stop offset="1" stop-color="#7B5B2A"/>
</linearGradient>
<linearGradient id="paint14_linear" x1="177.871" y1="36.637" x2="189.319" y2="43.2465" gradientUnits="userSpaceOnUse">
<stop stop-color="#4B4B4B"/>
<stop offset="0.458333" stop-color="#1B1B1B"/>
<stop offset="0.59375" stop-color="#1B1B1B"/>
<stop offset="1" stop-color="#7B5B2A"/>
</linearGradient>
<clipPath id="clip0">
<rect width="56" height="56" fill="white" transform="translate(29 25)"/>
</clipPath>
<clipPath id="clip1">
<rect width="56" height="56" fill="white" transform="translate(91 25)"/>
</clipPath>
<clipPath id="clip2">
<rect width="56" height="56" fill="white" transform="translate(153 25)"/>
</clipPath>
</defs>
</svg>
