<svg width="330" height="107" viewBox="0 0 330 107" fill="none" xmlns="http://www.w3.org/2000/svg">
<g filter="url(#filter0_ddd)">
<rect x="5" y="4" width="320" height="96" rx="20" fill="#F6E490"/>
<rect x="7" y="6" width="316" height="92" rx="18" stroke="#B68044" stroke-width="4"/>
</g>
<path fill-rule="evenodd" clip-rule="evenodd" d="M285.894 42.6667C283.99 42.6667 283.779 43.9773 283.911 44.6327C283.943 45.6554 283.987 46.935 284.04 48.3C280.669 45.8733 274.585 46.0714 273.492 47.5159C272.385 49.3242 273.492 51.1889 273.492 53.5C273.492 55.1508 274.039 55.1508 274.585 55.873C275.023 56.4508 281.294 56.5815 284.375 55.2333C284.481 56.8962 284.594 58.1221 284.704 58.3948C285.101 59.3778 285.101 60.3608 286.688 59.8693C288.274 59.3778 293.43 54.4627 294.224 53.9712C295.017 53.4797 297 52.4967 297 51.0222C297 49.5477 290.257 44.6327 289.464 44.1412C288.829 43.748 286.82 42.9943 285.894 42.6667ZM295 52.5714C294.224 53.1905 288.85 58.7619 286 58.7619C285.346 58.7619 284.882 56.527 284.691 53.8095L284.348 53.978C284.369 53.9739 284.349 53.9821 284.291 54.0062L284.29 53.9916C279.5 56.4288 275.932 54.4286 275.5 54.4286C274.953 54.4286 273.907 50.3016 275 48.8571C275.875 47.7016 281.799 48.7058 284.04 49.4762L284.617 49.6559C284.696 47.436 284.976 45.4603 285.5 44.6327C289 43.2857 296.5 50.7143 295 52.5714Z" fill="white"/>
<path d="M286 58.7619C288.85 58.7619 294.224 53.1905 295 52.5714C296.5 50.7143 289 43.2857 285.5 44.6327C284.976 45.4603 284.696 47.436 284.617 49.6559L284.04 49.4762C281.799 48.7058 275.875 47.7016 275 48.8571C273.907 50.3016 274.953 54.4286 275.5 54.4286C275.932 54.4286 279.5 56.4288 284.29 53.9916L284.294 53.9905C284.321 53.9841 284.339 53.9798 284.348 53.978L284.691 53.8095C284.882 56.527 285.346 58.7619 286 58.7619Z" fill="white"/>
<path fill-rule="evenodd" clip-rule="evenodd" d="M285.894 42.6667C283.99 42.6667 283.779 43.9773 283.911 44.6327C283.943 45.6554 283.987 46.935 284.04 48.3C280.669 45.8733 274.585 46.0714 273.492 47.5159C272.385 49.3242 273.492 51.1889 273.492 53.5C273.492 55.1508 274.039 55.1508 274.585 55.873C275.023 56.4508 281.294 56.5815 284.375 55.2333C284.481 56.8962 284.594 58.1221 284.704 58.3948C285.101 59.3778 285.101 60.3608 286.688 59.8693C288.274 59.3778 293.43 54.4627 294.224 53.9712C295.017 53.4797 297 52.4967 297 51.0222C297 49.5477 290.257 44.6327 289.464 44.1412C288.829 43.748 286.82 42.9943 285.894 42.6667ZM295 52.5714C294.224 53.1905 288.85 58.7619 286 58.7619C285.346 58.7619 284.882 56.527 284.691 53.8095L284.348 53.978C284.369 53.9739 284.349 53.9821 284.291 54.0062L284.29 53.9916C279.5 56.4288 275.932 54.4286 275.5 54.4286C274.953 54.4286 273.907 50.3016 275 48.8571C275.875 47.7016 281.799 48.7058 284.04 49.4762L284.617 49.6559C284.696 47.436 284.976 45.4603 285.5 44.6327C289 43.2857 296.5 50.7143 295 52.5714Z" fill="#242424"/>
<g clip-path="url(#clip0)">
<ellipse cx="56.3" cy="73" rx="14.7" ry="4.2" fill="url(#paint0_radial)"/>
<ellipse cx="50.5363" cy="54.7511" rx="21.317" ry="21.317" transform="rotate(30 50.5363 54.7511)" fill="#1C1C1C"/>
<ellipse opacity="0.6" cx="45.9446" cy="52.5814" rx="15.4221" ry="15.4221" transform="rotate(30 45.9446 52.5814)" fill="url(#paint1_radial)"/>
<ellipse opacity="0.6" cx="68.5503" cy="50.7394" rx="2.3697" ry="6.46799" transform="rotate(-12.8068 68.5503 50.7394)" fill="url(#paint2_radial)"/>
<path d="M66.8672 39.565C66.2424 40.6472 63.1731 40.045 60.0119 38.2198C56.8506 36.3946 54.7944 34.0377 55.4192 32.9555C56.0441 31.8733 59.1133 32.4755 62.2746 34.3007C65.4358 36.1258 67.492 38.4827 66.8672 39.565Z" fill="url(#paint3_linear)"/>
<path d="M60.0119 38.2198C63.1731 40.0449 66.2424 40.6472 66.8672 39.565L64.8427 43.0715C64.2178 44.1538 61.1486 43.5515 57.9873 41.7264C54.8261 39.9012 52.7699 37.5443 53.3947 36.4621L55.4193 32.9555C54.7944 34.0377 56.8506 36.3946 60.0119 38.2198Z" fill="url(#paint4_linear)"/>
<g filter="url(#filter1_i)">
<path d="M61.1132 35.8856C60.8874 35.7123 60.8441 35.3881 61.0251 35.1685C63.2675 32.4471 66.4145 30.6132 69.9 30.0092C73.3856 29.4052 76.9662 30.0733 79.9935 31.8814C80.2378 32.0274 80.3061 32.3472 80.1518 32.5863C79.9974 32.8254 79.6788 32.8932 79.4341 32.7479C76.6246 31.0798 73.3064 30.4649 70.076 31.0247C66.8456 31.5845 63.9278 33.2801 61.8434 35.7962C61.6619 36.0154 61.3391 36.0588 61.1132 35.8856Z" fill="#FFD2A0"/>
</g>
<g filter="url(#filter2_d)">
<path d="M81.7371 36.4431L81.367 33.8124L82.6571 34.8863L82.265 33.9229C82.5314 34.029 83.0558 34.2267 83.0226 34.1693C82.9895 34.1119 82.4234 33.5261 82.1444 33.2404L84.6762 34.0488L82.5956 32.6244L83.7855 32.2929L82.5262 31.5567L83.4557 31.5544L82.5687 31.204L83.4818 30.3182L81.6902 30.5351L81.6656 28.6211L81.0323 29.9167L80.7405 29.0322L80.2827 30.158L79.8336 29.1057L79.7168 29.7462L78.4858 28.4194L79.2827 30.5576L78.4255 29.6679L78.447 30.6024L75.9011 30.8826L77.9369 31.8269L77.0778 32.1213L78.0108 32.2628L76.6172 33.3546L78.0959 33.2393L77.5352 34.3289L78.3826 33.949L78.0669 34.9655L78.4673 34.83L78.0089 36.1204L79.3751 34.4837L79.4201 35.3802L79.7453 34.817L80.2841 35.7504L80.5422 34.6578L81.7371 36.4431Z" fill="#ED202F"/>
</g>
<path d="M82.0018 31.5017L80.8658 31.6608L81.3292 31.1035L80.9133 31.2726C80.959 31.1575 81.0442 30.9309 81.0194 30.9452C80.9946 30.9596 80.7418 31.2041 80.6185 31.3245L80.9668 30.2305L80.3524 31.1293L80.2088 30.6149L79.8913 31.1589L79.569 30.795L79.739 31.1404L78.9994 31.0352L79.4504 31.5199L78.6239 31.5299L79.1835 31.8041L78.8017 31.93L79.288 32.1282L78.9336 32.4038L79.1104 32.3727L78.5378 32.9043L79.4609 32.5606L79.3345 33.0062L79.4806 32.9218L79.6024 34.0224L80.0095 33.1427L80.0542 33.3121L80.1978 33.1109L80.6698 33.7137L80.6195 33.0745L81.0902 33.3172L80.9259 32.9508L81.3649 33.0876L81.3063 32.9145L81.8637 33.1131L81.1564 32.522L81.4729 32.3748L81.3002 32.3621L81.7031 32.1295L81.2312 32.0176L82.0018 31.5017Z" fill="#FA9D1C"/>
<path d="M79.8747 32.8738L80.1606 32.4978L80.1889 32.7948L80.2609 32.6248C80.2814 32.6716 80.3232 32.7624 80.3262 32.7511C80.3293 32.7397 80.3313 32.595 80.332 32.5241L80.552 32.9443L80.4674 32.5038L80.6609 32.6122L80.5937 32.3614L80.7952 32.374L80.6437 32.3226L80.8913 32.1386L80.6165 32.1281L80.8556 31.8853L80.611 31.9678L80.6858 31.8203L80.485 31.9036L80.5077 31.7203L80.4651 31.7807L80.4762 31.4594L80.3071 31.8276L80.2129 31.6609L80.195 31.7279L79.8353 31.4422L79.975 31.817L79.9121 31.7805L79.9293 31.8809L79.6136 31.842L79.8165 32.0139L79.6072 32.0797L79.7632 32.1389L79.5944 32.2264L79.6625 32.2599L79.4408 32.3637L79.8219 32.3309L79.7726 32.4656L79.8269 32.4192L79.7774 32.604L79.9485 32.4997L79.8747 32.8738Z" fill="#EDE925"/>
<path d="M79.9506 32.4631L80.1334 32.3215L80.1092 32.4656L80.1648 32.3943C80.1686 32.419 80.1768 32.4673 80.1797 32.4623C80.1826 32.4573 80.2019 32.3891 80.2111 32.3557L80.262 32.5823L80.2778 32.3632L80.3555 32.439L80.3555 32.3119L80.4492 32.3434L80.3841 32.2999L80.5245 32.2443L80.3959 32.2045L80.5397 32.12L80.4136 32.128L80.4676 32.0677L80.3621 32.0816L80.3961 31.9979L80.3683 32.021L80.4143 31.8705L80.2876 32.0232L80.2642 31.9324L80.2473 31.9618L80.1134 31.7812L80.132 31.9761L80.1068 31.9509L80.1022 32.0005L79.9579 31.9421L80.0321 32.0491L79.9248 32.0537L79.991 32.1015L79.9001 32.1214L79.9281 32.1459L79.8101 32.1669L79.9945 32.1997L79.9541 32.2572L79.9856 32.2421L79.9388 32.3232L80.0329 32.2956L79.9506 32.4631Z" fill="white"/>
</g>
<path d="M122.76 32.152C122.931 35.9067 122.568 42.2853 121.672 51.288C120.947 58.456 120.136 65.0267 119.24 71L117 72.344C117.299 68.3333 117.597 64.3227 117.896 60.312C118.323 54.68 118.536 50.0507 118.536 46.424C118.536 43.0107 118.365 40.2373 118.024 38.104L113.032 43.736L111.176 43.864L117.768 34.264L122.76 32.152Z" fill="#FF4B4B"/>
<path d="M107.656 44.64L104.56 56.628L106.468 60.696L105.244 61.092L103.84 58.608L102.328 62.82L99.916 63.756L102.688 57.312L96.316 48.132L99.016 45.648L103.516 55.116L107.008 44.46L107.656 44.64Z" fill="#FF4B4B"/>
<defs>
<filter id="filter0_ddd" x="0" y="0" width="330" height="107" filterUnits="userSpaceOnUse" color-interpolation-filters="sRGB">
<feFlood flood-opacity="0" result="BackgroundImageFix"/>
<feColorMatrix in="SourceAlpha" type="matrix" values="0 0 0 0 0 0 0 0 0 0 0 0 0 0 0 0 0 0 127 0"/>
<feOffset dy="1"/>
<feGaussianBlur stdDeviation="2.5"/>
<feColorMatrix type="matrix" values="0 0 0 0 0 0 0 0 0 0 0 0 0 0 0 0 0 0 0.2 0"/>
<feBlend mode="normal" in2="BackgroundImageFix" result="effect1_dropShadow"/>
<feColorMatrix in="SourceAlpha" type="matrix" values="0 0 0 0 0 0 0 0 0 0 0 0 0 0 0 0 0 0 127 0"/>
<feOffset dy="3"/>
<feGaussianBlur stdDeviation="2"/>
<feColorMatrix type="matrix" values="0 0 0 0 0 0 0 0 0 0 0 0 0 0 0 0 0 0 0.12 0"/>
<feBlend mode="normal" in2="effect1_dropShadow" result="effect2_dropShadow"/>
<feColorMatrix in="SourceAlpha" type="matrix" values="0 0 0 0 0 0 0 0 0 0 0 0 0 0 0 0 0 0 127 0"/>
<feOffset dy="2"/>
<feGaussianBlur stdDeviation="2"/>
<feColorMatrix type="matrix" values="0 0 0 0 0 0 0 0 0 0 0 0 0 0 0 0 0 0 0.14 0"/>
<feBlend mode="normal" in2="effect2_dropShadow" result="effect3_dropShadow"/>
<feBlend mode="normal" in="SourceGraphic" in2="effect3_dropShadow" result="shape"/>
</filter>
<filter id="filter1_i" x="60.7285" y="24.4848" width="19.6903" height="18.824" filterUnits="userSpaceOnUse" color-interpolation-filters="sRGB">
<feFlood flood-opacity="0" result="BackgroundImageFix"/>
<feBlend mode="normal" in="SourceGraphic" in2="BackgroundImageFix" result="shape"/>
<feColorMatrix in="SourceAlpha" type="matrix" values="0 0 0 0 0 0 0 0 0 0 0 0 0 0 0 0 0 0 127 0" result="hardAlpha"/>
<feOffset/>
<feGaussianBlur stdDeviation="0.5"/>
<feComposite in2="hardAlpha" operator="arithmetic" k2="-1" k3="1"/>
<feColorMatrix type="matrix" values="0 0 0 0 0 0 0 0 0 0 0 0 0 0 0 0 0 0 1 0"/>
<feBlend mode="normal" in2="shape" result="effect1_innerShadow"/>
</filter>
<filter id="filter2_d" x="72.7935" y="24.7307" width="14.9044" height="15.2461" filterUnits="userSpaceOnUse" color-interpolation-filters="sRGB">
<feFlood flood-opacity="0" result="BackgroundImageFix"/>
<feColorMatrix in="SourceAlpha" type="matrix" values="0 0 0 0 0 0 0 0 0 0 0 0 0 0 0 0 0 0 127 0"/>
<feOffset/>
<feGaussianBlur stdDeviation="1"/>
<feColorMatrix type="matrix" values="0 0 0 0 1 0 0 0 0 1 0 0 0 0 1 0 0 0 1 0"/>
<feBlend mode="normal" in2="BackgroundImageFix" result="effect1_dropShadow"/>
<feBlend mode="normal" in="SourceGraphic" in2="effect1_dropShadow" result="shape"/>
</filter>
<radialGradient id="paint0_radial" cx="0" cy="0" r="1" gradientUnits="userSpaceOnUse" gradientTransform="translate(56.3 73) rotate(90) scale(4.2 14.7)">
<stop/>
<stop offset="1" stop-opacity="0"/>
</radialGradient>
<radialGradient id="paint1_radial" cx="0" cy="0" r="1" gradientUnits="userSpaceOnUse" gradientTransform="translate(45.9446 52.5814) rotate(90) scale(15.4221)">
<stop stop-color="white"/>
<stop offset="1" stop-color="white" stop-opacity="0"/>
</radialGradient>
<radialGradient id="paint2_radial" cx="0" cy="0" r="1" gradientUnits="userSpaceOnUse" gradientTransform="translate(68.5503 50.7394) rotate(90) scale(6.46799 2.3697)">
<stop stop-color="#6E532B"/>
<stop offset="1" stop-color="#6D5127" stop-opacity="0"/>
</radialGradient>
<linearGradient id="paint3_linear" x1="55.4406" y1="32.9185" x2="66.8885" y2="39.528" gradientUnits="userSpaceOnUse">
<stop stop-color="#333333"/>
<stop offset="0.458333" stop-color="#333333"/>
<stop offset="0.59375" stop-color="#393532"/>
<stop offset="1" stop-color="#7B5B2A"/>
</linearGradient>
<linearGradient id="paint4_linear" x1="53.8711" y1="35.637" x2="65.319" y2="42.2465" gradientUnits="userSpaceOnUse">
<stop stop-color="#4B4B4B"/>
<stop offset="0.458333" stop-color="#1B1B1B"/>
<stop offset="0.59375" stop-color="#1B1B1B"/>
<stop offset="1" stop-color="#7B5B2A"/>
</linearGradient>
<clipPath id="clip0">
<rect width="56" height="56" fill="white" transform="translate(29 24)"/>
</clipPath>
</defs>
</svg>
