<svg width="330" height="107" viewBox="0 0 330 107" fill="none" xmlns="http://www.w3.org/2000/svg">
<g filter="url(#filter0_ddd)">
<rect x="5" y="4" width="320" height="96" rx="20" fill="#F6E490"/>
<rect x="7" y="6" width="316" height="92" rx="18" stroke="#B68044" stroke-width="4"/>
</g>
<path fill-rule="evenodd" clip-rule="evenodd" d="M285.894 42.6667C283.99 42.6667 283.779 43.9773 283.911 44.6327C283.943 45.6554 283.987 46.935 284.04 48.3C280.669 45.8733 274.585 46.0714 273.492 47.5159C272.385 49.3242 273.492 51.1889 273.492 53.5C273.492 55.1508 274.039 55.1508 274.585 55.873C275.023 56.4508 281.294 56.5815 284.375 55.2333C284.481 56.8962 284.594 58.1221 284.704 58.3948C285.101 59.3778 285.101 60.3608 286.688 59.8693C288.274 59.3778 293.43 54.4627 294.224 53.9712C295.017 53.4797 297 52.4967 297 51.0222C297 49.5477 290.257 44.6327 289.464 44.1412C288.829 43.748 286.82 42.9943 285.894 42.6667ZM295 52.5714C294.224 53.1905 288.85 58.7619 286 58.7619C285.346 58.7619 284.882 56.527 284.691 53.8095L284.348 53.978C284.369 53.9739 284.349 53.9821 284.291 54.0062L284.29 53.9915C279.5 56.4287 275.932 54.4286 275.5 54.4286C274.953 54.4286 273.907 50.3016 275 48.8571C275.875 47.7016 281.799 48.7058 284.04 49.4762L284.617 49.6559C284.696 47.436 284.976 45.4603 285.5 44.6327C289 43.2857 296.5 50.7143 295 52.5714Z" fill="white"/>
<path d="M286 58.7619C288.85 58.7619 294.224 53.1905 295 52.5714C296.5 50.7143 289 43.2857 285.5 44.6327C284.976 45.4603 284.696 47.436 284.617 49.6559L284.04 49.4762C281.799 48.7058 275.875 47.7016 275 48.8571C273.907 50.3016 274.953 54.4286 275.5 54.4286C275.932 54.4286 279.5 56.4287 284.29 53.9915L284.294 53.9905C284.321 53.9841 284.339 53.9798 284.348 53.978L284.691 53.8095C284.882 56.527 285.346 58.7619 286 58.7619Z" fill="white"/>
<path fill-rule="evenodd" clip-rule="evenodd" d="M285.894 42.6667C283.99 42.6667 283.779 43.9773 283.911 44.6327C283.943 45.6554 283.987 46.935 284.04 48.3C280.669 45.8733 274.585 46.0714 273.492 47.5159C272.385 49.3242 273.492 51.1889 273.492 53.5C273.492 55.1508 274.039 55.1508 274.585 55.873C275.023 56.4508 281.294 56.5815 284.375 55.2333C284.481 56.8962 284.594 58.1221 284.704 58.3948C285.101 59.3778 285.101 60.3608 286.688 59.8693C288.274 59.3778 293.43 54.4627 294.224 53.9712C295.017 53.4797 297 52.4967 297 51.0222C297 49.5477 290.257 44.6327 289.464 44.1412C288.829 43.748 286.82 42.9943 285.894 42.6667ZM295 52.5714C294.224 53.1905 288.85 58.7619 286 58.7619C285.346 58.7619 284.882 56.527 284.691 53.8095L284.348 53.978C284.369 53.9739 284.349 53.9821 284.291 54.0062L284.29 53.9915C279.5 56.4287 275.932 54.4286 275.5 54.4286C274.953 54.4286 273.907 50.3016 275 48.8571C275.875 47.7016 281.799 48.7058 284.04 49.4762L284.617 49.6559C284.696 47.436 284.976 45.4603 285.5 44.6327C289 43.2857 296.5 50.7143 295 52.5714Z" fill="#242424"/>
<g clip-path="url(#clip0)">
<ellipse cx="56.3" cy="72" rx="14.7" ry="4.2" fill="url(#paint0_radial)"/>
<ellipse cx="50.5363" cy="53.7511" rx="21.317" ry="21.317" transform="rotate(30 50.5363 53.7511)" fill="#1C1C1C"/>
<ellipse opacity="0.6" cx="45.9446" cy="51.5814" rx="15.4221" ry="15.4221" transform="rotate(30 45.9446 51.5814)" fill="url(#paint1_radial)"/>
<ellipse opacity="0.6" cx="68.5503" cy="49.7394" rx="2.3697" ry="6.46799" transform="rotate(-12.8068 68.5503 49.7394)" fill="url(#paint2_radial)"/>
<path d="M66.8672 38.565C66.2424 39.6472 63.1731 39.045 60.0119 37.2198C56.8506 35.3946 54.7944 33.0377 55.4192 31.9555C56.0441 30.8733 59.1133 31.4755 62.2746 33.3007C65.4358 35.1258 67.492 37.4827 66.8672 38.565Z" fill="url(#paint3_linear)"/>
<path d="M60.0119 37.2198C63.1731 39.045 66.2424 39.6472 66.8672 38.565L64.8427 42.0716C64.2178 43.1538 61.1486 42.5515 57.9873 40.7264C54.8261 38.9012 52.7699 36.5443 53.3947 35.4621L55.4193 31.9555C54.7944 33.0377 56.8506 35.3946 60.0119 37.2198Z" fill="url(#paint4_linear)"/>
<g filter="url(#filter1_i)">
<path d="M61.1132 34.8856C60.8874 34.7123 60.8441 34.3881 61.0251 34.1685C63.2675 31.4471 66.4145 29.6132 69.9 29.0092C73.3856 28.4052 76.9662 29.0733 79.9935 30.8814C80.2378 31.0274 80.3061 31.3472 80.1518 31.5863C79.9974 31.8254 79.6788 31.8932 79.4341 31.7479C76.6246 30.0798 73.3064 29.4649 70.076 30.0247C66.8456 30.5845 63.9278 32.2801 61.8434 34.7962C61.6619 35.0154 61.3391 35.0588 61.1132 34.8856Z" fill="#FFD2A0"/>
</g>
<g filter="url(#filter2_d)">
<path d="M81.7371 35.4431L81.367 32.8124L82.6571 33.8863L82.265 32.9229C82.5314 33.029 83.0558 33.2267 83.0226 33.1693C82.9895 33.1119 82.4234 32.5261 82.1444 32.2404L84.6762 33.0488L82.5956 31.6244L83.7855 31.293L82.5262 30.5567L83.4557 30.5544L82.5687 30.204L83.4818 29.3182L81.6902 29.5351L81.6656 27.6211L81.0323 28.9167L80.7405 28.0322L80.2827 29.158L79.8336 28.1057L79.7168 28.7462L78.4858 27.4194L79.2827 29.5576L78.4255 28.6679L78.447 29.6024L75.9011 29.8826L77.9369 30.8269L77.0778 31.1214L78.0108 31.2628L76.6172 32.3546L78.0959 32.2393L77.5352 33.3289L78.3826 32.949L78.0669 33.9655L78.4673 33.8301L78.0089 35.1204L79.3751 33.4837L79.4201 34.3802L79.7453 33.817L80.2841 34.7504L80.5422 33.6578L81.7371 35.4431Z" fill="#ED202F"/>
</g>
<path d="M82.0018 30.5017L80.8658 30.6608L81.3292 30.1035L80.9133 30.2726C80.959 30.1575 81.0442 29.9309 81.0194 29.9452C80.9946 29.9596 80.7418 30.2041 80.6185 30.3245L80.9668 29.2305L80.3524 30.1293L80.2088 29.6149L79.8913 30.1589L79.569 29.795L79.739 30.1404L78.9994 30.0352L79.4504 30.5199L78.6239 30.5299L79.1835 30.8041L78.8017 30.93L79.288 31.1282L78.9336 31.4038L79.1104 31.3727L78.5378 31.9043L79.4609 31.5606L79.3345 32.0062L79.4806 31.9218L79.6024 33.0224L80.0095 32.1427L80.0542 32.3121L80.1978 32.1109L80.6698 32.7137L80.6195 32.0745L81.0902 32.3172L80.9259 31.9508L81.3649 32.0876L81.3063 31.9145L81.8637 32.1131L81.1564 31.522L81.4729 31.3748L81.3002 31.3621L81.7031 31.1295L81.2312 31.0176L82.0018 30.5017Z" fill="#FA9D1C"/>
<path d="M79.8747 31.8738L80.1606 31.4978L80.1889 31.7948L80.2609 31.6248C80.2814 31.6716 80.3232 31.7624 80.3262 31.7511C80.3293 31.7397 80.3313 31.595 80.332 31.5241L80.552 31.9443L80.4674 31.5038L80.6609 31.6122L80.5937 31.3614L80.7952 31.374L80.6437 31.3226L80.8913 31.1386L80.6165 31.1281L80.8556 30.8854L80.611 30.9678L80.6858 30.8203L80.485 30.9036L80.5077 30.7203L80.4651 30.7807L80.4762 30.4594L80.3071 30.8276L80.2129 30.6609L80.195 30.7279L79.8353 30.4422L79.975 30.817L79.9121 30.7805L79.9293 30.8809L79.6136 30.842L79.8165 31.0139L79.6072 31.0797L79.7632 31.1389L79.5944 31.2264L79.6625 31.2599L79.4408 31.3637L79.8219 31.3309L79.7726 31.4656L79.8269 31.4192L79.7774 31.604L79.9485 31.4997L79.8747 31.8738Z" fill="#EDE925"/>
<path d="M79.9506 31.4631L80.1334 31.3215L80.1092 31.4656L80.1648 31.3943C80.1686 31.419 80.1768 31.4673 80.1797 31.4623C80.1826 31.4573 80.2019 31.3891 80.2111 31.3557L80.262 31.5823L80.2778 31.3632L80.3555 31.439L80.3555 31.3119L80.4492 31.3434L80.3841 31.2999L80.5245 31.2443L80.3959 31.2045L80.5397 31.12L80.4136 31.128L80.4676 31.0677L80.3621 31.0816L80.3961 30.9979L80.3683 31.021L80.4143 30.8705L80.2876 31.0232L80.2642 30.9324L80.2473 30.9618L80.1134 30.7812L80.132 30.9761L80.1068 30.9509L80.1022 31.0005L79.9579 30.9421L80.0321 31.0491L79.9248 31.0537L79.991 31.1015L79.9001 31.1214L79.9281 31.1459L79.8101 31.1669L79.9945 31.1997L79.9541 31.2572L79.9856 31.2421L79.9388 31.3232L80.0329 31.2956L79.9506 31.4631Z" fill="white"/>
</g>
<g clip-path="url(#clip1)">
<ellipse cx="118.3" cy="72" rx="14.7" ry="4.2" fill="url(#paint5_radial)"/>
<ellipse cx="112.536" cy="53.7511" rx="21.317" ry="21.317" transform="rotate(30 112.536 53.7511)" fill="#1C1C1C"/>
<ellipse opacity="0.6" cx="107.945" cy="51.5814" rx="15.4221" ry="15.4221" transform="rotate(30 107.945 51.5814)" fill="url(#paint6_radial)"/>
<ellipse opacity="0.6" cx="130.55" cy="49.7394" rx="2.3697" ry="6.46799" transform="rotate(-12.8068 130.55 49.7394)" fill="url(#paint7_radial)"/>
<path d="M128.867 38.565C128.242 39.6472 125.173 39.045 122.012 37.2198C118.851 35.3946 116.794 33.0377 117.419 31.9555C118.044 30.8733 121.113 31.4755 124.275 33.3007C127.436 35.1258 129.492 37.4827 128.867 38.565Z" fill="url(#paint8_linear)"/>
<path d="M122.012 37.2198C125.173 39.045 128.242 39.6472 128.867 38.565L126.843 42.0716C126.218 43.1538 123.149 42.5515 119.987 40.7264C116.826 38.9012 114.77 36.5443 115.395 35.4621L117.419 31.9555C116.794 33.0377 118.851 35.3946 122.012 37.2198Z" fill="url(#paint9_linear)"/>
<g filter="url(#filter3_i)">
<path d="M123.113 34.8856C122.887 34.7123 122.844 34.3881 123.025 34.1685C125.267 31.4471 128.414 29.6132 131.9 29.0092C135.386 28.4052 138.966 29.0733 141.993 30.8814C142.238 31.0274 142.306 31.3472 142.152 31.5863C141.997 31.8254 141.679 31.8932 141.434 31.7479C138.625 30.0798 135.306 29.4649 132.076 30.0247C128.846 30.5845 125.928 32.2801 123.843 34.7962C123.662 35.0154 123.339 35.0588 123.113 34.8856Z" fill="#FFD2A0"/>
</g>
<g filter="url(#filter4_d)">
<path d="M143.737 35.4431L143.367 32.8124L144.657 33.8863L144.265 32.9229C144.531 33.029 145.056 33.2267 145.023 33.1693C144.989 33.1119 144.423 32.5261 144.144 32.2404L146.676 33.0488L144.596 31.6244L145.785 31.293L144.526 30.5567L145.456 30.5544L144.569 30.204L145.482 29.3182L143.69 29.5351L143.665 27.6211L143.032 28.9167L142.74 28.0322L142.283 29.158L141.834 28.1057L141.717 28.7462L140.486 27.4194L141.283 29.5576L140.425 28.6679L140.447 29.6024L137.901 29.8826L139.937 30.8269L139.078 31.1214L140.011 31.2628L138.617 32.3546L140.096 32.2393L139.535 33.3289L140.383 32.949L140.067 33.9655L140.467 33.8301L140.009 35.1204L141.375 33.4837L141.42 34.3802L141.745 33.817L142.284 34.7504L142.542 33.6578L143.737 35.4431Z" fill="#ED202F"/>
</g>
<path d="M144.002 30.5017L142.866 30.6608L143.329 30.1035L142.913 30.2726C142.959 30.1575 143.044 29.9309 143.019 29.9452C142.994 29.9596 142.742 30.2041 142.618 30.3245L142.967 29.2305L142.352 30.1293L142.209 29.6149L141.891 30.1589L141.569 29.795L141.739 30.1404L140.999 30.0352L141.45 30.5199L140.624 30.5299L141.183 30.8041L140.802 30.93L141.288 31.1282L140.933 31.4038L141.11 31.3727L140.538 31.9043L141.461 31.5606L141.334 32.0062L141.48 31.9218L141.602 33.0224L142.009 32.1427L142.054 32.3121L142.198 32.1109L142.67 32.7137L142.619 32.0745L143.09 32.3172L142.926 31.9508L143.365 32.0876L143.306 31.9145L143.864 32.1131L143.156 31.522L143.473 31.3748L143.3 31.3621L143.703 31.1295L143.231 31.0176L144.002 30.5017Z" fill="#FA9D1C"/>
<path d="M141.875 31.8738L142.161 31.4978L142.189 31.7948L142.261 31.6248C142.281 31.6716 142.323 31.7624 142.326 31.7511C142.329 31.7397 142.331 31.595 142.332 31.5241L142.552 31.9443L142.467 31.5038L142.661 31.6122L142.594 31.3614L142.795 31.374L142.644 31.3226L142.891 31.1386L142.617 31.1281L142.856 30.8854L142.611 30.9678L142.686 30.8203L142.485 30.9036L142.508 30.7203L142.465 30.7807L142.476 30.4594L142.307 30.8276L142.213 30.6609L142.195 30.7279L141.835 30.4422L141.975 30.817L141.912 30.7805L141.929 30.8809L141.614 30.842L141.817 31.0139L141.607 31.0797L141.763 31.1389L141.594 31.2264L141.662 31.2599L141.441 31.3637L141.822 31.3309L141.773 31.4656L141.827 31.4192L141.777 31.604L141.949 31.4997L141.875 31.8738Z" fill="#EDE925"/>
<path d="M141.951 31.4631L142.133 31.3215L142.109 31.4656L142.165 31.3943C142.168 31.419 142.177 31.4673 142.18 31.4623C142.182 31.4573 142.202 31.3891 142.211 31.3557L142.262 31.5823L142.278 31.3632L142.355 31.439L142.355 31.3119L142.449 31.3434L142.384 31.2999L142.524 31.2443L142.396 31.2045L142.54 31.12L142.413 31.128L142.468 31.0677L142.362 31.0816L142.396 30.9979L142.368 31.021L142.414 30.8705L142.288 31.0232L142.264 30.9324L142.247 30.9618L142.113 30.7812L142.132 30.9761L142.107 30.9509L142.102 31.0005L141.958 30.9421L142.032 31.0491L141.925 31.0537L141.991 31.1015L141.9 31.1214L141.928 31.1459L141.81 31.1669L141.994 31.1997L141.954 31.2572L141.985 31.2421L141.939 31.3232L142.033 31.2956L141.951 31.4631Z" fill="white"/>
</g>
<path d="M197.704 60.376L194.952 66.392L180.552 69.4L179.912 67.608C182.173 64.7067 184.435 61.8053 186.696 58.904C189.896 54.3387 191.496 50.8613 191.496 48.472C191.496 47.832 191.389 47.2773 191.176 46.808C190.024 44.2053 188.083 42.904 185.352 42.904C184.712 42.904 184.072 42.9893 183.432 43.16C181.64 43.672 180.125 45.784 178.888 49.496L175.24 45.912C175.709 44.2907 176.307 42.8827 177.032 41.688C178.867 38.8293 181.299 37.2933 184.328 37.08C186.76 36.9093 188.979 37.4427 190.984 38.68C193.16 40.0027 194.632 41.8587 195.4 44.248C195.571 44.8027 195.656 45.4 195.656 46.04C195.656 48.472 194.184 51.7573 191.24 55.896C188.68 59.1813 186.12 62.4667 183.56 65.752L197.704 60.376Z" fill="#FF4B4B"/>
<path d="M171.656 46.64L168.56 58.628L170.468 62.696L169.244 63.092L167.84 60.608L166.328 64.82L163.916 65.756L166.688 59.312L160.316 50.132L163.016 47.648L167.516 57.116L171.008 46.46L171.656 46.64Z" fill="#FF4B4B"/>
<defs>
<filter id="filter0_ddd" x="0" y="0" width="330" height="107" filterUnits="userSpaceOnUse" color-interpolation-filters="sRGB">
<feFlood flood-opacity="0" result="BackgroundImageFix"/>
<feColorMatrix in="SourceAlpha" type="matrix" values="0 0 0 0 0 0 0 0 0 0 0 0 0 0 0 0 0 0 127 0"/>
<feOffset dy="1"/>
<feGaussianBlur stdDeviation="2.5"/>
<feColorMatrix type="matrix" values="0 0 0 0 0 0 0 0 0 0 0 0 0 0 0 0 0 0 0.2 0"/>
<feBlend mode="normal" in2="BackgroundImageFix" result="effect1_dropShadow"/>
<feColorMatrix in="SourceAlpha" type="matrix" values="0 0 0 0 0 0 0 0 0 0 0 0 0 0 0 0 0 0 127 0"/>
<feOffset dy="3"/>
<feGaussianBlur stdDeviation="2"/>
<feColorMatrix type="matrix" values="0 0 0 0 0 0 0 0 0 0 0 0 0 0 0 0 0 0 0.12 0"/>
<feBlend mode="normal" in2="effect1_dropShadow" result="effect2_dropShadow"/>
<feColorMatrix in="SourceAlpha" type="matrix" values="0 0 0 0 0 0 0 0 0 0 0 0 0 0 0 0 0 0 127 0"/>
<feOffset dy="2"/>
<feGaussianBlur stdDeviation="2"/>
<feColorMatrix type="matrix" values="0 0 0 0 0 0 0 0 0 0 0 0 0 0 0 0 0 0 0.14 0"/>
<feBlend mode="normal" in2="effect2_dropShadow" result="effect3_dropShadow"/>
<feBlend mode="normal" in="SourceGraphic" in2="effect3_dropShadow" result="shape"/>
</filter>
<filter id="filter1_i" x="60.7285" y="23.4848" width="19.6903" height="18.824" filterUnits="userSpaceOnUse" color-interpolation-filters="sRGB">
<feFlood flood-opacity="0" result="BackgroundImageFix"/>
<feBlend mode="normal" in="SourceGraphic" in2="BackgroundImageFix" result="shape"/>
<feColorMatrix in="SourceAlpha" type="matrix" values="0 0 0 0 0 0 0 0 0 0 0 0 0 0 0 0 0 0 127 0" result="hardAlpha"/>
<feOffset/>
<feGaussianBlur stdDeviation="0.5"/>
<feComposite in2="hardAlpha" operator="arithmetic" k2="-1" k3="1"/>
<feColorMatrix type="matrix" values="0 0 0 0 0 0 0 0 0 0 0 0 0 0 0 0 0 0 1 0"/>
<feBlend mode="normal" in2="shape" result="effect1_innerShadow"/>
</filter>
<filter id="filter2_d" x="72.7935" y="23.7307" width="14.9044" height="15.2461" filterUnits="userSpaceOnUse" color-interpolation-filters="sRGB">
<feFlood flood-opacity="0" result="BackgroundImageFix"/>
<feColorMatrix in="SourceAlpha" type="matrix" values="0 0 0 0 0 0 0 0 0 0 0 0 0 0 0 0 0 0 127 0"/>
<feOffset/>
<feGaussianBlur stdDeviation="1"/>
<feColorMatrix type="matrix" values="0 0 0 0 1 0 0 0 0 1 0 0 0 0 1 0 0 0 1 0"/>
<feBlend mode="normal" in2="BackgroundImageFix" result="effect1_dropShadow"/>
<feBlend mode="normal" in="SourceGraphic" in2="effect1_dropShadow" result="shape"/>
</filter>
<filter id="filter3_i" x="122.729" y="23.4848" width="19.6903" height="18.824" filterUnits="userSpaceOnUse" color-interpolation-filters="sRGB">
<feFlood flood-opacity="0" result="BackgroundImageFix"/>
<feBlend mode="normal" in="SourceGraphic" in2="BackgroundImageFix" result="shape"/>
<feColorMatrix in="SourceAlpha" type="matrix" values="0 0 0 0 0 0 0 0 0 0 0 0 0 0 0 0 0 0 127 0" result="hardAlpha"/>
<feOffset/>
<feGaussianBlur stdDeviation="0.5"/>
<feComposite in2="hardAlpha" operator="arithmetic" k2="-1" k3="1"/>
<feColorMatrix type="matrix" values="0 0 0 0 0 0 0 0 0 0 0 0 0 0 0 0 0 0 1 0"/>
<feBlend mode="normal" in2="shape" result="effect1_innerShadow"/>
</filter>
<filter id="filter4_d" x="134.793" y="23.7307" width="14.9044" height="15.2461" filterUnits="userSpaceOnUse" color-interpolation-filters="sRGB">
<feFlood flood-opacity="0" result="BackgroundImageFix"/>
<feColorMatrix in="SourceAlpha" type="matrix" values="0 0 0 0 0 0 0 0 0 0 0 0 0 0 0 0 0 0 127 0"/>
<feOffset/>
<feGaussianBlur stdDeviation="1"/>
<feColorMatrix type="matrix" values="0 0 0 0 1 0 0 0 0 1 0 0 0 0 1 0 0 0 1 0"/>
<feBlend mode="normal" in2="BackgroundImageFix" result="effect1_dropShadow"/>
<feBlend mode="normal" in="SourceGraphic" in2="effect1_dropShadow" result="shape"/>
</filter>
<radialGradient id="paint0_radial" cx="0" cy="0" r="1" gradientUnits="userSpaceOnUse" gradientTransform="translate(56.3 72) rotate(90) scale(4.2 14.7)">
<stop/>
<stop offset="1" stop-opacity="0"/>
</radialGradient>
<radialGradient id="paint1_radial" cx="0" cy="0" r="1" gradientUnits="userSpaceOnUse" gradientTransform="translate(45.9446 51.5814) rotate(90) scale(15.4221)">
<stop stop-color="white"/>
<stop offset="1" stop-color="white" stop-opacity="0"/>
</radialGradient>
<radialGradient id="paint2_radial" cx="0" cy="0" r="1" gradientUnits="userSpaceOnUse" gradientTransform="translate(68.5503 49.7394) rotate(90) scale(6.46799 2.3697)">
<stop stop-color="#6E532B"/>
<stop offset="1" stop-color="#6D5127" stop-opacity="0"/>
</radialGradient>
<linearGradient id="paint3_linear" x1="55.4406" y1="31.9185" x2="66.8885" y2="38.528" gradientUnits="userSpaceOnUse">
<stop stop-color="#333333"/>
<stop offset="0.458333" stop-color="#333333"/>
<stop offset="0.59375" stop-color="#393532"/>
<stop offset="1" stop-color="#7B5B2A"/>
</linearGradient>
<linearGradient id="paint4_linear" x1="53.8711" y1="34.637" x2="65.319" y2="41.2465" gradientUnits="userSpaceOnUse">
<stop stop-color="#4B4B4B"/>
<stop offset="0.458333" stop-color="#1B1B1B"/>
<stop offset="0.59375" stop-color="#1B1B1B"/>
<stop offset="1" stop-color="#7B5B2A"/>
</linearGradient>
<radialGradient id="paint5_radial" cx="0" cy="0" r="1" gradientUnits="userSpaceOnUse" gradientTransform="translate(118.3 72) rotate(90) scale(4.2 14.7)">
<stop/>
<stop offset="1" stop-opacity="0"/>
</radialGradient>
<radialGradient id="paint6_radial" cx="0" cy="0" r="1" gradientUnits="userSpaceOnUse" gradientTransform="translate(107.945 51.5814) rotate(90) scale(15.4221)">
<stop stop-color="white"/>
<stop offset="1" stop-color="white" stop-opacity="0"/>
</radialGradient>
<radialGradient id="paint7_radial" cx="0" cy="0" r="1" gradientUnits="userSpaceOnUse" gradientTransform="translate(130.55 49.7394) rotate(90) scale(6.46799 2.3697)">
<stop stop-color="#6E532B"/>
<stop offset="1" stop-color="#6D5127" stop-opacity="0"/>
</radialGradient>
<linearGradient id="paint8_linear" x1="117.441" y1="31.9185" x2="128.889" y2="38.528" gradientUnits="userSpaceOnUse">
<stop stop-color="#333333"/>
<stop offset="0.458333" stop-color="#333333"/>
<stop offset="0.59375" stop-color="#393532"/>
<stop offset="1" stop-color="#7B5B2A"/>
</linearGradient>
<linearGradient id="paint9_linear" x1="115.871" y1="34.637" x2="127.319" y2="41.2465" gradientUnits="userSpaceOnUse">
<stop stop-color="#4B4B4B"/>
<stop offset="0.458333" stop-color="#1B1B1B"/>
<stop offset="0.59375" stop-color="#1B1B1B"/>
<stop offset="1" stop-color="#7B5B2A"/>
</linearGradient>
<clipPath id="clip0">
<rect width="56" height="56" fill="white" transform="translate(29 23)"/>
</clipPath>
<clipPath id="clip1">
<rect width="56" height="56" fill="white" transform="translate(91 23)"/>
</clipPath>
</defs>
</svg>
